<svg xmlns="http://www.w3.org/2000/svg" xmlns:xlink="http://www.w3.org/1999/xlink" viewBox="0 0 500 500" data-imageid="football-team-20" imageName="Football Team" class="illustrations_image" style="width: 171px;"><defs><style>.cls-1_football-team-20,.cls-2_football-team-20,.cls-3_football-team-20,.cls-4_football-team-20,.cls-5_football-team-20,.cls-6_football-team-20,.cls-7_football-team-20,.cls-8_football-team-20,.cls-9_football-team-20,.cls-10_football-team-20,.cls-11_football-team-20,.cls-12_football-team-20,.cls-13_football-team-20,.cls-14_football-team-20,.cls-15_football-team-20,.cls-16_football-team-20,.cls-17_football-team-20,.cls-18_football-team-20,.cls-19_football-team-20,.cls-20_football-team-20,.cls-21_football-team-20,.cls-22_football-team-20,.cls-23_football-team-20,.cls-24_football-team-20,.cls-25_football-team-20,.cls-26_football-team-20,.cls-27_football-team-20,.cls-28_football-team-20,.cls-29_football-team-20,.cls-30_football-team-20,.cls-31_football-team-20{stroke-width:0px;}.cls-1_football-team-20,.cls-32_football-team-20,.cls-14_football-team-20,.cls-33_football-team-20{mix-blend-mode:multiply;}.cls-1_football-team-20,.cls-30_football-team-20{fill:#e5e6e7;}.cls-2_football-team-20{fill:url(#linear-gradient);}.cls-3_football-team-20{opacity:.18;}.cls-3_football-team-20,.cls-34_football-team-20,.cls-23_football-team-20{isolation:isolate;}.cls-3_football-team-20,.cls-23_football-team-20,.cls-31_football-team-20{fill:#68e2fd;}.cls-4_football-team-20{fill:url(#linear-gradient-11-football-team-20);}.cls-5_football-team-20{fill:url(#linear-gradient-12-football-team-20);}.cls-6_football-team-20{fill:url(#linear-gradient-13-football-team-20);}.cls-7_football-team-20{fill:url(#linear-gradient-10-football-team-20);}.cls-8_football-team-20{fill:url(#linear-gradient-17-football-team-20);}.cls-9_football-team-20{fill:url(#linear-gradient-16-football-team-20);}.cls-10_football-team-20{fill:url(#linear-gradient-19-football-team-20);}.cls-11_football-team-20{fill:url(#linear-gradient-15-football-team-20);}.cls-12_football-team-20{fill:url(#linear-gradient-18-football-team-20);}.cls-13_football-team-20{fill:url(#linear-gradient-14-football-team-20);}.cls-14_football-team-20{opacity:.5;}.cls-14_football-team-20,.cls-25_football-team-20{fill:#231f20;}.cls-15_football-team-20{fill:url(#linear-gradient-4-football-team-20);}.cls-16_football-team-20{fill:url(#linear-gradient-2-football-team-20);}.cls-17_football-team-20{fill:url(#linear-gradient-3-football-team-20);}.cls-18_football-team-20{fill:url(#linear-gradient-8-football-team-20);}.cls-19_football-team-20{fill:url(#linear-gradient-9-football-team-20);}.cls-20_football-team-20{fill:url(#linear-gradient-7-football-team-20);}.cls-21_football-team-20{fill:url(#linear-gradient-5-football-team-20);}.cls-22_football-team-20{fill:url(#linear-gradient-6-football-team-20);}.cls-33_football-team-20{opacity:.3;}.cls-23_football-team-20{opacity:.48;}.cls-24_football-team-20{fill:#403d3d;}.cls-26_football-team-20{fill:#c14834;}.cls-27_football-team-20{fill:#f1f1f1;}.cls-28_football-team-20{fill:#fff;}.cls-29_football-team-20{fill:#ffb4a3;}</style><linearGradient id="linear-gradient-football-team-20" x1="385.14" y1="201.26" x2="417.32" y2="365.68" gradientUnits="userSpaceOnUse"><stop offset="0" stop-color="#231f20"/><stop offset=".08" stop-color="#231f20" stop-opacity=".69"/><stop offset=".21" stop-color="#231f20" stop-opacity=".32"/><stop offset="1" stop-color="#231f20" stop-opacity="0"/></linearGradient><linearGradient id="linear-gradient-2-football-team-20" x1="239.41" y1="166.9" x2="271.6" y2="331.32" xlink:href="#linear-gradient-football-team-20"/><linearGradient id="linear-gradient-3-football-team-20" x1="130.38" y1="209.47" x2="131.32" y2="258.45" xlink:href="#linear-gradient-football-team-20"/><linearGradient id="linear-gradient-4-football-team-20" x1="83.97" y1="235.48" x2="84.9" y2="284.46" xlink:href="#linear-gradient-football-team-20"/><linearGradient id="linear-gradient-5-football-team-20" x1="307.94" y1="271.9" x2="308.88" y2="320.88" xlink:href="#linear-gradient-football-team-20"/><linearGradient id="linear-gradient-6-football-team-20" x1="447.03" y1="205.12" x2="447.96" y2="254.1" xlink:href="#linear-gradient-football-team-20"/><linearGradient id="linear-gradient-7-football-team-20" x1="94.61" y1="358.18" x2="77.82" y2="431.41" xlink:href="#linear-gradient-football-team-20"/><linearGradient id="linear-gradient-8-football-team-20" x1="89.44" y1="174.97" x2="89.91" y2="174.97" xlink:href="#linear-gradient-football-team-20"/><linearGradient id="linear-gradient-9-football-team-20" x1="37.79" y1="174.57" x2="124.2" y2="185.42" xlink:href="#linear-gradient-football-team-20"/><linearGradient id="linear-gradient-10-football-team-20" x1="73.55" y1="212.86" x2="122.99" y2="261.83" xlink:href="#linear-gradient-football-team-20"/><linearGradient id="linear-gradient-11-football-team-20" x1="66.77" y1="157.74" x2="56.97" y2="240.65" xlink:href="#linear-gradient-football-team-20"/><linearGradient id="linear-gradient-12-football-team-20" x1="172.76" y1="262.31" x2="148.27" y2="321.78" xlink:href="#linear-gradient-football-team-20"/><linearGradient id="linear-gradient-13-football-team-20" x1="308" y1="207.48" x2="245.97" y2="165.97" xlink:href="#linear-gradient-football-team-20"/><linearGradient id="linear-gradient-14-football-team-20" x1="182.43" y1="205.47" x2="183.37" y2="254.45" xlink:href="#linear-gradient-football-team-20"/><linearGradient id="linear-gradient-15-football-team-20" x1="307.94" y1="194.75" x2="308.88" y2="243.72" xlink:href="#linear-gradient-football-team-20"/><linearGradient id="linear-gradient-16-football-team-20" x1="405.33" y1="235.53" x2="400.67" y2="282.76" xlink:href="#linear-gradient-football-team-20"/><linearGradient id="linear-gradient-17-football-team-20" x1="362.91" y1="164.64" x2="406.45" y2="197.66" gradientUnits="userSpaceOnUse"><stop offset="0" stop-color="#231f20" stop-opacity="0"/><stop offset="1" stop-color="#231f20"/></linearGradient><linearGradient id="linear-gradient-18-football-team-20" x1="460.8" y1="208.96" x2="362.15" y2="208.49" xlink:href="#linear-gradient-football-team-20"/><linearGradient id="linear-gradient-19-football-team-20" x1="365.46" y1="211.27" x2="349.42" y2="198.06" xlink:href="#linear-gradient-football-team-20"/></defs><g class="cls-34_football-team-20"><g id="_0579_football_team_football-team-20"><g id="background_football-team-20"><path class="cls-3_football-team-20" d="M473.41,318.92c-8.76,15.01-25.52,21.79-41.4,26.07-40.85,10.96-80.33,6.18-121.5,7.27-17.84.47-34.19,10.92-48.15,23.01-13.95,12.1-26.54,26.23-41.84,36.23-32.81,21.46-73.42,21.33-111.7,20.56-9.92-.19-19.94-.4-29.56-3.02-25.65-6.96-46.02-31.92-50.36-60.25-.09-.58-.17-1.18-.25-1.76-.06-.42-.11-.84-.16-1.27-.04-.29-.06-.57-.1-.86-.04-.35-.07-.68-.1-1.02-.05-.53-.1-1.07-.14-1.6-.06-.72-.11-1.44-.15-2.16h0c-.04-.71-.06-1.4-.09-2.1l-.04-.97c-.01-.56-.01-1.12-.02-1.68v-.34s.01,0,0-.01v-.42c0-1.02.01-2.04.05-3.06v-.07c.02-.99.07-2,.12-2.99.01-.14.02-.29.04-.43.04-.86.1-1.71.17-2.57.02-.26.05-.52.06-.77.05-.56.1-1.12.16-1.66.1-1.04.22-2.1.35-3.14h0c.1-.82.2-1.63.31-2.42.02-.21.06-.42.09-.63.11-.8.24-1.58.36-2.37.14-.89.29-1.8.43-2.71.16-.89.32-1.8.48-2.71.34-1.8.7-3.62,1.07-5.42.19-.91.37-1.81.57-2.71.2-.91.4-1.8.6-2.71.21-.91.41-1.81.62-2.71.89-3.86,1.84-7.73,2.78-11.59.39-1.57.77-3.12,1.14-4.68.14-.56.26-1.12.4-1.66.26-1.06.51-2.11.76-3.18.51-2.11.99-4.24,1.45-6.36.24-1.06.46-2.11.68-3.18.22-1.06.43-2.11.65-3.18l.45-2.31c.11-.62.22-1.24.34-1.86.5-2.73.92-5.45,1.27-8.19.11-.8.21-1.6.3-2.4.02-.17.05-.34.05-.5.06-.51.11-1.01.16-1.5.07-.71.14-1.42.2-2.12.02-.17.04-.36.04-.53.07-.78.12-1.58.17-2.37.02-.32.05-.63.05-.93.05-.71.07-1.4.09-2.1.14-3.12.11-6.25-.05-9.38-.02-.73-.07-1.47-.14-2.2-.51-6.71-1.75-13.49-3.38-20.34-1.27-5.39-2.78-10.83-4.34-16.28-5.83-20.41-12.34-41.03-9.95-61.01,3.86-32.24,26.59-61.12,51.95-76.61,28.17-17.18,61.64-21.58,93.92-18.34,2.47.25,4.95.55,7.41.88,10.62,1.45,21.23,3.68,31.25,7.79,15.78,6.46,29.62,17.37,43.54,27.72,17.08,12.71,34.7,24.83,53.95,33.09,26.29,11.29,54.76,15.03,82.01,23.23,27.26,8.19,54.76,22.13,70.47,47.66,4.15,6.73,7.29,13.98,9.73,21.54,5.65,17.52,7.47,36.78,8.9,55.45,1.27,16.7,2.09,34.73-6.18,48.87Z"/><path class="cls-23_football-team-20" d="M473.41,318.92c-8.76,15.01-25.52,21.79-41.4,26.07-40.85,10.96-80.33,6.18-121.5,7.27-17.84.47-34.19,10.92-48.15,23.01-13.95,12.1-26.54,26.23-41.84,36.23-32.81,21.46-73.42,21.33-111.7,20.56-9.92-.19-19.94-.4-29.56-3.02-4.55-1.23-8.93-3.03-13.1-5.33-11.62-6.37-21.46-16.55-28.23-28.71-4.49-8.04-7.62-16.94-9.03-26.2-.09-.58-.17-1.18-.25-1.76-.06-.42-.11-.84-.16-1.27-.04-.29-.06-.57-.1-.86-.04-.35-.07-.68-.1-1.02-.05-.53-.1-1.07-.14-1.6-.06-.72-.11-1.44-.15-2.16h0c-.04-.71-.06-1.4-.09-2.1l-.04-.97c-.01-.56-.01-1.12-.02-1.68v-.77c0-1.02.01-2.04.05-3.06v-.07c.02-.99.07-2,.12-2.99.01-.14.02-.29.04-.43.04-.86.1-1.71.17-2.57.02-.26.05-.52.06-.77.05-.56.1-1.12.16-1.66.1-1.04.22-2.1.35-3.14h0c.1-.82.2-1.63.31-2.42.02-.21.06-.42.09-.63.11-.8.24-1.58.36-2.37.14-.89.29-1.8.43-2.71.16-.89.32-1.8.48-2.71.32-1.81.68-3.62,1.07-5.42.19-.91.37-1.81.57-2.71.2-.91.4-1.8.6-2.71.21-.91.41-1.81.62-2.71.89-3.86,1.84-7.73,2.78-11.59.39-1.57.76-3.12,1.14-4.68.14-.56.26-1.12.4-1.66.26-1.07.51-2.12.76-3.18.51-2.11.99-4.24,1.45-6.36.24-1.06.46-2.11.68-3.18.22-1.06.43-2.12.65-3.18l.45-2.31c.11-.62.22-1.24.34-1.86.5-2.73.92-5.45,1.27-8.19.11-.8.21-1.6.3-2.4.02-.17.05-.34.05-.5.06-.5.11-1.01.16-1.5.07-.71.14-1.42.2-2.12.02-.17.04-.36.04-.53.07-.8.12-1.58.17-2.37.02-.32.05-.63.05-.93.05-.7.07-1.4.09-2.1.14-3.12.11-6.25-.05-9.38.48-.11.94-.19,1.4-.22,6.2.66,12.46.58,18.64-.21.52-.05,1.03-.12,1.54-.2h0c8.52-1.24,16.82-3.84,24.51-7.7,3.59-1.8,7.16-3.9,11.13-4.35,4.04-.46,8.1.86,12.16.58,7.03-.46,12.71-5.43,18.99-8.77.76-.41,1.53-.8,2.31-1.14.43-.2.91-.39,1.38-.47.27-.05.56-.06.84-.02,1.62.22,2.44,2.01,3.69,3.04,1.45,1.19,3.47,1.34,5.36,1.43,3.85.17,7.7.31,11.57.4,6.16.15,12.33.19,18.5.11,2.34-.02,4.67-.07,7.01-.14,11.29-.32,22.59-1.22,33.62-3.64,6.41-1.4,13.7-3.17,19.08.6,1.23.86,2.29,1.98,3.67,2.57,2.61,1.11,5.55.07,8.3-.61,13.79-3.45,29.41,2.3,42.05-4.21.35.97.7,1.94,1.04,2.91.92-.12,1.83-.26,2.73-.4,30.42-4.46,57.61-6.19,88.32-7.68,6.27,4.14,14.44,3.47,21.91,2.65,22.23-2.46,44.44-4.92,66.66-7.37,5.65,17.52,7.47,36.78,8.9,55.45,1.27,16.7,2.09,34.73-6.18,48.87Z"/><path class="cls-2_football-team-20" d="M364.28,333.42c29.19-3.92,58.39-7.84,87.58-11.76,1.62-.22,3.35-.49,4.53-1.63.91-.89,1.33-2.16,2.05-3.21,2.04-2.99,6.01-3.76,9.48-4.79,3.47-1.03,7.32-3.28,7.43-6.9-22.7-.95-45.08,13.52-67.09,7.92-4.21-1.07-8.42-2.88-12.73-2.33-5.45.69-9.7,4.96-14.74,7.14-3.37,1.46-7.06,1.97-10.69,2.47-5.54.76-29.15.28-29.75,8.13-.66,8.48,19.34,4.95,23.94,4.95Z"/><path class="cls-16_football-team-20" d="M218.56,299.06c29.19-3.92,58.39-7.84,87.58-11.76,1.62-.22,3.35-.49,4.53-1.63.91-.89,1.33-2.16,2.05-3.21,2.04-2.99,6.01-3.76,9.48-4.79,3.47-1.03,7.32-3.28,7.43-6.9-22.7-.95-45.08,13.52-67.09,7.92-4.21-1.07-8.42-2.88-12.73-2.33-5.45.69-9.7,4.96-14.74,7.14-3.37,1.46-7.06,1.97-10.69,2.47-5.54.76-29.15.28-29.75,8.13-.66,8.48,19.34,4.95,23.94,4.95Z"/><path class="cls-17_football-team-20" d="M116.94,247.18c.91,1.19,2.2,2.09,3.63,2.53.43-.99.85-1.98,1.28-2.97-.25.59,1.52.41,1.78.15.6-.6.64-2.85.88-3.7.46,1.05,1.12,2.02,1.94,2.83.73-1.02,1.47-2.04,2.2-3.05.13-.18.33-.39.54-.32.12.04.19.16.26.28.54.99,1.09,1.97,1.63,2.96.43-.23.86-.46,1.28-.68.15.7.29,1.41.44,2.11.46-.4.97-.73,1.52-1,.24.66.56,1.29.95,1.87.5-.55,1-1.09,1.5-1.64.65.83,1.5,1.52,2.45,1.97.15-.71.45-1.38.87-1.97.37.43.85.78,1.37,1l.79-1.64c.2.22.49.37.78.4.47-.23.1-1.13.56-1.39.14-.08.3-.07.46-.05,3.44.3,6.92.14,10.31-.49-2.1.57-4.29.75-6.46.96-.77.07-1.57.16-2.22.57s-1.11,1.24-.85,1.96c-.37-.4-.83-.71-1.34-.91-.18.47-.36.94-.54,1.42-.48-.52-1.33-.05-1.86.42-.82.74-1.64,1.47-2.46,2.21-.37-.65-.25-1.64-.92-1.97-.43-.21-.97,0-1.26.38s-.41.85-.52,1.32c-.48-.59-1.04-1.18-1.78-1.34-1.14-.25-2.15.9-3.5.69-.27-.04-3.7-1.33-2.83-2.03-.65.53-1.3,1.06-1.95,1.59-.14-.47-.77-.71-1.18-.45.65.39.35,1.62-.41,1.66-1.97.83-4.14,1.17-6.26.97.02.6-.15,1.21-.49,1.71-.62-1.08-2.24-.77-3.4-.31-2.05.82-4.11,1.62-6.18,2.41,3.62-1.87,7.16-4.71,9-8.42Z"/><path class="cls-15_football-team-20" d="M70.53,273.19c.91,1.19,2.2,2.09,3.63,2.53.43-.99.85-1.98,1.28-2.97-.25.59,1.52.41,1.78.15.6-.6.64-2.85.88-3.7.46,1.05,1.12,2.02,1.94,2.83.73-1.02,1.47-2.04,2.2-3.05.13-.18.33-.39.54-.32.12.04.19.16.26.28.54.99,1.09,1.97,1.63,2.96.43-.23.86-.46,1.28-.68.15.7.29,1.41.44,2.11.46-.4.97-.73,1.52-1,.24.66.56,1.29.95,1.87.5-.55,1-1.09,1.5-1.64.65.83,1.5,1.52,2.45,1.97.15-.71.45-1.38.87-1.97.37.43.85.78,1.37,1,.26-.55.53-1.09.79-1.64.2.22.49.37.78.4.47-.23.1-1.13.56-1.39.14-.08.3-.07.46-.05,3.44.3,6.92.14,10.31-.49-2.1.57-4.29.75-6.46.96-.77.07-1.57.16-2.22.57s-1.11,1.24-.85,1.96c-.37-.4-.83-.71-1.34-.91-.18.47-.36.94-.54,1.42-.48-.52-1.33-.05-1.86.42-.82.74-1.64,1.47-2.46,2.21-.37-.65-.25-1.64-.92-1.97-.43-.21-.97,0-1.26.38s-.41.85-.52,1.32c-.48-.59-1.04-1.18-1.78-1.34-1.14-.25-2.15.9-3.5.69-.27-.04-3.7-1.33-2.83-2.03-.65.53-1.3,1.06-1.95,1.59-.14-.47-.77-.71-1.18-.45.65.39.35,1.62-.41,1.66-1.97.83-4.14,1.17-6.26.97.02.6-.15,1.21-.49,1.71-.62-1.08-2.24-.77-3.4-.31-2.05.82-4.11,1.62-6.18,2.41,3.62-1.87,7.16-4.71,9-8.42Z"/><path class="cls-21_football-team-20" d="M294.5,309.61c.91,1.19,2.2,2.09,3.63,2.53.43-.99.85-1.98,1.28-2.97-.25.59,1.52.41,1.78.15.6-.6.64-2.85.88-3.7.46,1.05,1.12,2.02,1.94,2.83.73-1.02,1.47-2.04,2.2-3.05.13-.18.33-.39.54-.32.12.04.19.16.26.28.54.99,1.09,1.97,1.63,2.96.43-.23.86-.46,1.28-.68.15.7.29,1.41.44,2.11.46-.4.97-.73,1.52-1,.24.66.56,1.29.95,1.87l1.5-1.64c.65.83,1.5,1.52,2.45,1.97.15-.71.45-1.38.87-1.97.37.43.85.78,1.37,1,.26-.55.53-1.09.79-1.64.2.22.49.37.78.4.47-.23.1-1.13.56-1.39.14-.08.3-.07.46-.05,3.44.3,6.92.14,10.31-.49-2.1.57-4.29.75-6.46.96-.77.07-1.57.16-2.22.57s-1.11,1.24-.85,1.96c-.37-.4-.83-.71-1.34-.91-.18.47-.36.94-.54,1.42-.48-.52-1.33-.05-1.86.42-.82.74-1.64,1.47-2.46,2.21-.37-.65-.25-1.64-.92-1.97-.43-.21-.97,0-1.26.38s-.41.85-.52,1.32c-.48-.59-1.04-1.18-1.78-1.34-1.14-.25-2.15.9-3.5.69-.27-.04-3.7-1.33-2.83-2.03-.65.53-1.3,1.06-1.95,1.59-.14-.47-.77-.71-1.18-.45.65.39.35,1.62-.41,1.66-1.97.83-4.14,1.17-6.26.97.02.6-.15,1.21-.49,1.71-.62-1.08-2.24-.77-3.4-.31-2.05.82-4.11,1.62-6.18,2.41,3.62-1.87,7.16-4.71,9-8.42Z"/><path class="cls-22_football-team-20" d="M433.59,242.82c.91,1.19,2.2,2.09,3.63,2.53.43-.99.85-1.98,1.28-2.97-.25.59,1.52.41,1.78.15.6-.6.64-2.85.88-3.7.46,1.05,1.12,2.02,1.94,2.83.73-1.02,1.47-2.04,2.2-3.05.13-.18.33-.39.54-.32.12.04.19.16.26.28.54.99,1.09,1.97,1.63,2.96.43-.23.86-.46,1.28-.68.15.7.29,1.41.44,2.11.46-.4.97-.73,1.52-1,.24.66.56,1.29.95,1.87.5-.55,1-1.09,1.5-1.64.65.83,1.5,1.52,2.45,1.97.15-.71.45-1.38.87-1.97.37.43.85.78,1.37,1,.26-.55.53-1.09.79-1.64.2.22.49.37.78.4.47-.23.1-1.13.56-1.39.14-.08.3-.07.46-.05,3.44.3,6.92.14,10.31-.49-2.1.57-4.29.75-6.46.96-.77.07-1.57.16-2.22.57-.65.41-1.11,1.24-.85,1.96-.37-.4-.83-.71-1.34-.91-.18.47-.36.94-.54,1.42-.48-.52-1.33-.05-1.86.42-.82.74-1.64,1.47-2.46,2.21-.37-.65-.25-1.64-.92-1.97-.43-.21-.97,0-1.26.38s-.41.85-.52,1.32c-.48-.59-1.04-1.18-1.78-1.34-1.14-.25-2.15.9-3.5.69-.27-.04-3.7-1.33-2.83-2.03-.65.53-1.3,1.06-1.95,1.59-.14-.47-.77-.71-1.18-.45.65.39.35,1.62-.41,1.66-1.97.83-4.14,1.17-6.26.97.02.6-.15,1.21-.49,1.71-.62-1.08-2.24-.77-3.4-.31-2.05.82-4.11,1.62-6.18,2.41,3.62-1.87,7.16-4.71,9-8.42Z"/><path class="cls-20_football-team-20" d="M103.84,423.41c-12.24,4.66-25.37,3.58-37.67.3-11.62-6.37-21.46-16.55-28.23-28.71,19.92,3.14,48.63,15.72,90.28,17.58,9.21.42-15.82,7.58-24.38,10.83Z"/><path class="cls-18_football-team-20" d="M89.91,175.47c-.19-.22-.35-.47-.47-.73.12-.1.26-.19.41-.27.02.34.04.67.06,1.01Z"/></g><g id="character_4_football-team-20"><path class="cls-25_football-team-20" d="M110.67,394.96c.8.63,1.43,1.44,2.08,2.64.84,1.56.76,3.39,2.07,4.71,1.86,1.88,5.09.23,6.74,2.64,1.06,1.55.4,3.66-.37,5.37-.46,1.03-.96,2.07-1.7,2.92-1.93,2.23-5.14,2.84-8.09,2.82-1.15,0-2.31-.1-3.39-.48-.69-.24-1.32-.59-1.96-.95-1.03-.57-2.05-1.14-3.08-1.7-2.28-1.26-4.63-2.58-6.25-4.62-3.07-3.85-1.05-8.84,1.52-12.43,2.37-3.31,5.88-3.58,9.57-2.34,1.21.41,2.12.83,2.87,1.42Z"/><path class="cls-29_football-team-20" d="M77.02,273.84c-3.32,3.65-6.89,9.19-2.04,16.3,4.85,7.11,11.64,21.19,30.11,39.95,0,0-4.62,13.5-3.83,28.14.67,12.37-1.25,33.31-1.66,35.26-.41,1.95,8.01,3.45,10.54,2.17,0,0,9.27-50.48,11.6-58.17q3.61-11.91-3.48-21.3c-7.09-9.39-16.7-27.74-16.7-27.74l-24.56-14.61Z"/><path class="cls-25_football-team-20" d="M122.57,319.81c-.15.29-.35.57-.59.85-1.85,2.07-5.47,3.79-7.91,5.07-2.87,1.5-5.89,2.69-9,3.58-.88.25-8.88,2.43-9.23,1.64,0,0-9.3-20.49-13.38-25.29-4.37-5.13-9.34-10.49-10.76-17.32-.83-3.99-.13-7.86,2.23-11.22,3.18-4.52,9.19-4.81,14.24-6.21,1.33-.37,2.67-.74,4.04-.88,2.33-.23,4.66.22,6.99.46,2.9.3,6.36.6,8.57,2.74,2.63,2.54,3.07,7.35,4,10.69,2.74,9.8,6.03,19.45,9.84,28.89.95,2.35,2.1,4.86.98,6.98Z"/><path class="cls-29_football-team-20" d="M183.99,232.84c-.55,1.25-2.27,1.38-3.63,1.16-1.35-.22-2.94-.53-3.95.4-.67.6-.93,1.63-1.74,2-.89.41-1.89-.19-2.78-.6-3.03-1.34-6.76-.32-9.36,1.54-2.96,2.12-6,3.95-9.21,5.78-1.74.99-3.5,1.99-5.44,2.47-4.1,1.02-8.42-.4-12.14-2.39-3.43-1.85-6.61-4.21-10.14-5.84-.29-.15-.57-.27-.87-.4-2.86-1.21-10.24-3.24-11.52.8-.45,1.44-.53,3.14-.66,4.8-.06.86-.15,1.69-.3,2.47-.48,2.51-1.11,5.01-1.86,7.46-.35,1.14-.66,2.22-.91,3.26-.02.11-.05.21-.06.31-.77,3.22-1.07,5.94-1.14,8.16v.2c-.07,2.5.12,4.36.25,5.62.1.91.15,1.5.01,1.79-.01.04-.04.07-.06.1-.04.05-.1.1-.19.16-.06.05-.12.11-.21.17-.12.09-.27.2-.46.31-.14.09-.3.19-.48.3-.15.09-.3.17-.47.26-.06.04-.12.07-.2.11h-.01c-.29.15-.6.3-.93.46-1.4.65-3.26,1.3-5.49,1.75-.2.04-.41.07-.61.11-.01.01-.02.01-.04.01-1.79.31-3.79.48-5.99.39-.5-.02-1.02-.06-1.54-.11-.06,0-.14,0-.21-.01-.58-.06-1.18-.11-1.78-.15-.17-.01-.34-.02-.51-.04-.36-.01-.71-.04-1.07-.05-.57-.04-1.14-.06-1.71-.07-1.29-.05-2.61-.07-3.91-.07-.75,0-1.49,0-2.22.01-.26,0-.52,0-.78.01h-.92c-.06.01-.12.01-.19.01h-.31c-.84.01-1.66.02-2.47.05-.52.01-1.04.02-1.55.04-.15,0-.31,0-.46.01h-.27c-.12,0-.25,0-.37.01h-.77c-.1.01-.19.01-.27.01h-.7c-.83.01-1.62.01-2.36,0-.61,0-1.19-.01-1.73-.04-.77-.05-1.45-.1-2.03-.19-1.21-.17-2.36-.48-3.42-.86-1.06-.39-2.03-.83-2.87-1.28-.41-.21-.8-.43-1.14-.63-.09-.06-.17-.11-.26-.16-.71-.43-1.24-.81-1.58-1.04-.1-.06-.17-.12-.24-.16-.77-.55,4.41-14.29,8.59-21.1.53-.88,1.04-2.01,1.52-3.33,3.18-8.87,4.83-25.89,5.37-27.36-.27.76-11.43.47-12.44.51-2.65.1-5.28.19-7.91.25-.47.01-.96.02-1.43.04-1.76.02-7.27-.34-3.11,1.5.86.39,1.63,1.53.97,2.21-.3.31-.76.37-1.18.41-1.79.17-3.58.36-5.37.53-1.27-5.39-2.78-10.83-4.34-16.28,4.46-.86,9.1-1.23,13.51-1.66.06,0,.11-.01.17-.01,7.08-.68,14.48-.94,21.41-2.61,7.26-1.75,13.43.06,16.75,1.04,3.33.98,5.36.01,5.36.01,9.22.26,12.18-1.59,22.4,6.51,4.4,3.47,8.51,7.27,12.49,11.21,1.3,1.3,2.71,2.41,4.15,3.45.89.66,1.8,1.28,2.72,1.89,1.37.93,2.76,1.86,4.13,2.88.51.39,1.02.76,1.63.97.77.26,1.62.2,2.44.12,4.81-.46,9.58-1.34,14.24-2.63,3.76-1.04,7.46-2.36,11.03-3.94,2.09-.92,4.25-1.95,6.54-1.86,3.42.14,6.24,2.78,7.94,5.78.09.14.16.27.24.41.42.82.81,1.79.45,2.65Z"/><path class="cls-27_football-team-20" d="M99.61,393.49c.34-1.62,1.72-16.38,1.79-28.42h0c10.18,2.18,14.35.89,14.35.89h0c-2.87,14.83-5.6,29.7-5.6,29.7-2.53,1.28-10.95-.22-10.54-2.17Z"/><path class="cls-29_football-team-20" d="M76.47,293.4s-6.31,19.73-8,31.37c-.32,2.27-.6,4.1-.89,5.6-1.23,6.26-2.94,7.17-11.82,11.83-3.27,1.71-13.89,8.69-24.49,15.74l-2.96,1.98c-.1.06-.2.14-.3.2h0c-.04-.71-.06-1.4-.09-2.1l-.04-.97c-.01-.56-.01-1.12-.02-1.68v-.34s.01,0,0-.01v-.42c0-1.02.01-2.04.05-3.06v-.07c.02-.99.07-2,.12-2.99.01-.14.02-.29.04-.43.04-.86.1-1.71.17-2.57.02-.26.05-.52.06-.77.05-.56.1-1.12.16-1.66.1-1.04.22-2.1.35-3.14h0c9.46-9.42,20.49-14.74,20.49-14.74,0-.31.01-.63.02-.94.47-25.73,5.62-40.21,7.24-48.56.24-1.21.57-2.27.99-3.21,2.47-5.59,7.83-6.61,12.04-6.8l2.17,8.82.29,1.12h0s.56,2.26.56,2.26l3.84,15.54Z"/><path class="cls-25_football-team-20" d="M68.91,330.55s-15.52-1.43-26.73-11.37c0,0,8.05-21.01,8.59-27.29.54-6.28.77-27.83,18.83-26.23l16.27,21.16-16.97,43.74Z"/><path class="cls-27_football-team-20" d="M20.23,348.65c.53-.53,1.07-1.04,1.59-1.55h0c-.52.52-1.06,1.03-1.59,1.55Z"/><path class="cls-27_football-team-20" d="M31.26,357.94l-2.96,1.98c-.1.06-.2.12-.3.19-.04-.7-.06-1.39-.09-2.09l-.04-.97c-.01-.56-.01-1.12-.02-1.68v-.34c.29.29.55.55.78.78,1.67,1.62,2.62,2.12,2.62,2.12Z"/><path class="cls-28_football-team-20" d="M136.71,223.07c-.81,4.78-2.58,9.39-5.18,13.48-.55.86-1.13,1.69-1.74,2.49-2.62-1.14-5.29-2.31-8.15-2.53-2.85-.22-5.95.66-7.68,2.94-1.16,1.55-1.55,3.52-1.93,5.42-1.24,6.47-3.55,12.81-3.75,19.46-.05,1.28,1.13,6.61.2,7.59-.37.4-2.06,1.55-4.81,2.53-2.93,1.04-7.06,1.89-12.03,1.39-5.23-.53-11.12-.41-16.2-.31-1.94.04-3.75.09-5.37.09-1.95,0-3.6-.05-4.82-.22-4.83-.71-8.73-3.62-9.51-4.15-1.67-1.16,5.48-15.31,6.08-16.91.56-1.5,1.11-2.99,1.6-4.49,1.95-5.94,3.31-11.95,3.43-18.33.02-1.21,0-2.44-.4-3.59-1.44-4.17-9.29-2.82-12.83-3.03-.56-.04-1.17-.09-1.59-.46-.4-.35-.55-.91-.65-1.43-.43-2.2-.82-4.41-1.09-6.63-.02-.16-.04-.32-.05-.48h0c-.07-.52-.12-1.03-.17-1.55-.14-1.74-.22-3.48-.12-5.22.04-.76.22-1.5.15-2.25-.06-.72-.65-1.37-.32-2.12.35-.81,1.5-.8,2.41-.73,3.91.25,7.72-1.5,11.64-1.6,2.61-.09,5.27.57,7.8-.01,1.23-.29,2.41-.84,3.68-.92.92-.05,1.81.16,2.72.31,2.92.48,6.03-.12,8.81.89,2.66.97,5.23,2.32,8.09,2.58,2.47.21,5.04-.02,7.55.11,6.42.36,11.02,3.72,15.9,7.44,5.41,4.11,12.35,6.98,18.33,10.25Z"/><path class="cls-29_football-team-20" d="M85.28,201.65c.97.43,1.92.95,2.82,1.57.97.66,1.9,1.44,2.92,1.98,1.33.71,2.77,1.01,4.19,1.31,1.2.25,2.6.42,3.47-.66.55-1.77.83-3.66.84-5.56-1.74.19-3.45-.35-5.11-.95-1.55-.57-3.26-.96-4.71-1.85-.75-.45-1.81-1.69-2.67-1.08-.5.35-1.92,5.17-1.75,5.25Z"/><path class="cls-26_football-team-20" d="M115.93,173.98c.1,1.4-.35,2.77-.8,4.1-1.4,4.2-2.81,8.4-4.21,12.6-.26.78-.53,1.58-1.06,2.22-.58.72-1.44,1.17-2.21,1.7-2.73,1.93-4.3,5.06-5.77,8.06-2.26.36-4.67-1.09-6.85-1.33-.88-.1-1.73,0-2.51.51-.25-1.95-2.29-3.5-4.24-3.19-.96.15-2.04.65-2.81.07-.46-.35-.62-.96-.91-1.45-.63-1.09-1.93-1.66-2.63-2.71-1.91-2.82,1.4-6.4,1.39-9.82-.01-1.52-.68-2.93-1.07-4.4-1.44-5.57,1.4-11.26,4.15-16.31,3.28-.84,6.41-.11,9.69-.55,1.71-.22,3.24-1.06,4.91-1.39.11-.04.22-.06.34-.07,5.9-.94,9.87,2.71,12.77,7.43.86,1.39,1.7,2.88,1.8,4.52Z"/><path class="cls-19_football-team-20" d="M90.61,168.36c-1.69,1.59-2.22,4.35-1.17,6.37-1.27,1.01-1.53,2.97-1.28,4.62.27,1.83.96,3.64.66,5.45-.46,2.81-3.21,5.37-2.21,8.04,1.86-.2,3.72-.4,5.57-.61-.35.48-.27,1.23.17,1.62.45.4,1.21.37,1.63-.04-.6,2.46,1.01,5.36,1.07,7.52-.88-.1-1.73,0-2.51.51-.25-1.95-2.29-3.5-4.24-3.19-.96.15-2.04.65-2.81.07-.46-.35-.62-.96-.91-1.45-.63-1.09-1.93-1.66-2.63-2.71-1.91-2.82,1.4-6.4,1.39-9.82-.01-1.52-.68-2.93-1.07-4.4-1.44-5.57,1.4-11.26,4.15-16.31,3.28-.84,6.41-.11,9.69-.55,1.71-.22,3.24-1.06,4.91-1.39-1.7,1.5-3.63,2.76-5.69,3.7-1.64.73-3.42,1.32-4.72,2.56Z"/><path class="cls-7_football-team-20" d="M131.53,236.55c-.55.86-1.13,1.69-1.74,2.49-2.62-1.14-5.29-2.31-8.15-2.53-2.85-.22-5.95.66-7.68,2.94-1.16,1.55-1.55,3.52-1.93,5.42-1.24,6.47-3.55,12.81-3.75,19.46-.05,1.28,1.13,6.61.2,7.59-.37.4-2.06,1.55-4.81,2.53-1.04-.02-2.05-.32-2.92-.94-.15-.11-.3-.24-.4-.39-.45-.7.21-1.53.73-2.16,1.38-1.69,1.99-3.85,2.56-5.95,1.11-4.04,2.2-8.06,3.29-12.09.45-1.63.89-3.31.71-4.98-.16-1.39-.75-2.7-.93-4.09-.2-1.38.14-2.99,1.34-3.72.98-.57,2.3-.41,3.22-1.08.99-.72,1.13-2.21.67-3.34-.47-1.14-1.42-2-2.32-2.82-.19-.16,5.55-1.06,6.15-1.01,2.36.17,4.67.94,6.97,1.48,2.44.56,6.56,1.16,8.78,3.19Z"/><path class="cls-4_football-team-20" d="M66.22,218.18c-.23.94-.48,1.91-1.04,2.7s-1.51,1.39-2.47,1.24c-.48-.07-.91-.32-1.37-.5-3.02-1.17-6.81.81-9.5-.98-.18-.12-.39-.26-.58-.18-.19.07-.25.3-.27.5-.08.89.31,1.75.69,2.56.17.36.35.74.68.98.64.46,1.51.18,2.27-.04,2.34-.69,7.75.37,9.97,1.39,1.81.84,2.23,3.94,2.2,1.17-.01-1.27.31-3.3.22-4.52-.08-1.12-1.04-3.33-.8-4.32Z"/></g><g id="ball_football-team-20"><path class="cls-5_football-team-20" d="M172.88,302.27c0,1.75-7.42,3.17-16.58,3.17-9.15,0-16.58-1.42-16.58-3.17,0-1.75,7.42-3.17,16.58-3.17,9.16,0,16.58,1.42,16.58,3.17Z"/><path class="cls-27_football-team-20" d="M169.56,302.91c-8.88,0-16.1-7.27-16.1-16.2,0-8.93,7.22-16.2,16.1-16.2s16.1,7.27,16.1,16.2-7.22,16.2-16.1,16.2Z"/><g class="cls-32_football-team-20"><path class="cls-24_football-team-20" d="M156.39,280.02v-2.61c-1.27,1.81-2.18,3.88-2.62,6.13l2.51-3.24,4.53-.42v-.14s-.03-.14-.03-.14l-4.39.41Z"/><path class="cls-24_football-team-20" d="M180.24,274.62l-.33,4.31-6.46-.07-.17.02-5.79-3.52-.05-.13.67-3.51-.14-.02-.13-.03-.68,3.58.02.06-6.39,4.42,2.43,6.15-.05.14-3.12,7.43v.04l-4.26-.6.12-.06-2.41-4.86c.02.26.05.52.08.77l2.08,4.21.12-.06v1.96s0,.22,0,.22c1.69,2.81,4.2,5.05,7.2,6.4h.3s1.09-2.39,1.09-2.39h.06s8.33-.13,8.33-.13v-.14s0-.14,0-.14l-8.32.14h-.13s-4.02-5.15-4.02-5.15v-.15l3.11-7.41.02-.05h7.14s.21.11.21.11l4.45,6.79.06.04-2.52,5.81,3.65,2.37.4-.07c2.59-1.33,4.78-3.35,6.32-5.81l-.73-3.11.09-.03.89-8.23v-.02s2.06.51,2.06.51c-.54-3.89-2.46-7.34-5.24-9.83ZM183.16,283.85l-.88,8.13-.46.17-6.26.73-.1-.07-4.46-6.8-.02-.03-.05-.02,2.48-6.82h.05s6.4.06,6.4.06l.24.15,3.1,4.43-.05.07Z"/><path class="cls-24_football-team-20" d="M169.56,270.5c-.92,0-1.81.09-2.69.24l1.11.95,2.53-1.15c-.31-.02-.63-.05-.94-.05Z"/></g><path class="cls-1_football-team-20" d="M171.77,299.05c-7.99,0-14.48-6.54-14.48-14.57,0-6.36,4.08-11.77,9.74-13.75-7.68,1.23-13.57,7.92-13.57,15.98,0,8.93,7.22,16.2,16.1,16.2,8.02,0,14.66-5.93,15.88-13.66-1.97,5.69-7.35,9.8-13.67,9.8Z"/></g><g id="character_2_football-team-20"><path class="cls-29_football-team-20" d="M237.59,166.26c-3.38,2.96-6.59,6.69-11.25,6.56-3.65-.1-7.43.61-11.15.54-3.94-.07-7.88-.49-11.74-1.25-.81-.16-1.74-.31-2.38.22-.63.52-.67,1.44-.88,2.22s-.93,1.64-1.69,1.34c-.75-.3-.74-1.42-1.34-1.96-.59-.54-1.56-.33-2.2.15s-1.1,1.17-1.73,1.65c-1.33,1.02-3.4.91-4.61-.25s-1.42-3.22-.46-4.59c1.38-1.98,4.2-2.03,6.56-2.56,3.5-.78,6.55-2.99,10.04-3.8,2.78-.65,5.7-.39,8.53-.77,4.72-.64,8.93-3.03,13.43-4.44,1.66-.52,3.37-.47,5-.93,1.9-.53,3.47-2.07,5.26-2.89,7.85-3.6.62,10.76.62,10.76Z"/><path class="cls-25_football-team-20" d="M226.99,285.05c.78,5.5-3.55,7.98-6.61,8.56-3.05.58-5.15-1.41-9.33,1.01-4.19,2.42-10.12,3.02-14.79.07-4.67-2.95-2.32-4.78,2.64-6.35,4.96-1.57,12.7-4.56,16.58-6.62,4.57-2.42,4.42-2.95,6.44-1.99,4.35,2.07,4.27-.24,5.06,5.32Z"/><path class="cls-29_football-team-20" d="M244.34,205.06c-1.28-.21-30.57,18.02-33.75,22.14-3.04,3.94,1.15,8.64,3.02,25.8,1.89,17.36,2.32,28.5,2.85,30.66.53,2.15,6.6,2.2,7.63-.12,1.03-2.31,1.11-10.17,2.14-18.56,1.47-11.98,4.07-9.26-3.22-28.24l26.9-11.78-5.56-19.9Z"/><path class="cls-25_football-team-20" d="M216.51,220.33c-.4.37-.83.78-.93,1.31-.12.63.23,1.25.57,1.79,4.18,6.61,9.4,12.57,15.4,17.58,5.17-4.37,10.33-8.73,15.5-13.1.78-.66,1.58-1.34,2.13-2.2.8-1.23,1.04-2.73,1.25-4.18,1.04-6.9,1.91-14.32-1.21-20.57-.34-.69-.75-1.37-1.36-1.84-1.25-.96-3.05-.79-4.53-.25-4.87,1.79-8.74,5.84-12.67,9.1-4.82,4-9.54,8.12-14.16,12.34Z"/><path class="cls-25_football-team-20" d="M308.15,254.32c3.63-1.35,6.53-1.65,9.16,0,2.63,1.66,2.79,4.55,7.5,5.64,4.71,1.1,8.07,5.47,9.46,10.81,1.39,5.35-1.58,5.07-6.27,2.83-4.69-2.24-11.01-6.11-15.25-7.26-4.99-1.36-7.64-3.92-8.46-6-1.76-4.49,3.86-6.04,3.86-6.04Z"/><path class="cls-29_football-team-20" d="M249.46,219.35c-.51,1.2,3.86,31.83,7.09,35.9,3.09,3.9,14.14,2.31,31.26,4.61,17.31,2.32,19.84,3.39,22.06,3.39,2.22,0,3.17-4.82,1.64-6.83-1.47-1.92-5.62-2.74-13.56-5.63-11.83-4.31-8.02-6.98-28.19-4.44l-.64-30.73-19.66,3.73Z"/><path class="cls-25_football-team-20" d="M242.54,199.84c2.8,7.53,8.31,35.16,8.5,39.24.19,4.08,20.97.11,23.07-1.15,0,0-3.23-10.47-1.83-14.86,1.4-4.39,6.7-19.46.26-23.23h-29.99Z"/><path class="cls-29_football-team-20" d="M283.92,145.19c4.62,1.95,18.66,9.22,20.97,9.39,2.31.18,5.68-.18,15.62,4.97,9.94,5.15,12.89,8.83,16.62,8.83,3.73,0,13.56,5.19,14.03,8.27.19,1.23-1.6.24-3.72.02-3.16-.33-7.84-2.94-8.55-3.01-2.22-.21,3.59,4.96,2.16,4.96s-3.2-1.57-6.28-3.7c-3.08-2.13-2.63-4.19-12.15-6.09-14.57-2.91-16.15-6.43-18.04-6.91-1.89-.47-23.49-3.78-23.49-3.78l2.82-12.95Z"/><path class="cls-29_football-team-20" d="M247.28,109.34c-.05.01-.11.02-.16.03-1.61.32-3.21.74-4.78,1.24-2.38.77-4.97,2.02-5.7,4.41-.26.84-.25,1.75-.22,2.63.14,4.15.62,8.47,1.42,12.53.69,3.51,3.69,6.27,6.49,8.22,1.04.73,2.19.67,3.4.7.98.02,2.29-.46,3.01.47.52.67.36,1.66-.06,2.4s-1.04,1.34-1.47,2.07-.65,1.69-.19,2.41c.52.8,1.63.93,2.58.89,2.24-.09,4.5-.65,6.35-1.91s3.25-3.26,3.5-5.49c.04-.31.05-.64-.03-.94-.06-.23-.17-.44-.28-.66-.96-1.86-1.67-3.39-1.67-5.53,0-2.07.46-4.11.62-6.16.35-4.32.08-9.75-2.98-13.14-1.24-1.38-2.91-2.29-4.53-3.18-.9-.49-1.82-.99-2.84-1.14-.82-.12-1.65,0-2.46.16Z"/><g class="cls-33_football-team-20"><path class="cls-31_football-team-20" d="M248.32,214.85c0-.41.03-.71.09-.85.12-.29.07.09-.09.85Z"/><path class="cls-31_football-team-20" d="M249.42,227.23c-7.9,5.58-14.49,8.71-14.49,8.71,0,0-.74-1.17-2.23-3.71l-.5-1.99s9.15-4.71,11.88-6.12c2.05-1.07,3.74-6.95,4.25-9.27-.05,3.03,1.09,12.35,1.1,12.38Z"/></g><path class="cls-31_football-team-20" d="M293.87,147.85c-1.32,4.88-3.24,9.62-5.75,14.03-.02.06-.06.12-.1.19-.26.46-.55.93-1.03,1.17-1.13.53-2.32-.65-3.57-.83-2.08-.31-3.45,2.07-4.01,4.1-2.53,9.31-.88,19.17-.87,28.83.01,1.53-.21,3.37-1.57,4.06-.71.37-1.54.32-2.34.29-3.59-.15-7.21.24-10.69,1.13-.57.15-1.14.31-1.71.48-2.91.87-5.75,1.93-8.76,2.34-6.18.82-12.38-1.23-17.97-3.95,1.02-4.3,1.95-8.61,2.82-12.95.3-1.52.6-3.07.51-4.62-.07-1.33-.43-2.63-.52-3.96-.22-3.49,1.4-7.27-.27-10.35-.55.43-1.08.88-1.63,1.32-.09.07-6.67-10.39-6-11.95.5-1.18,3.84-2.91,4.83-4.13.99-1.22,1.68-2.56,2.41-3.93,1.43-2.66,3.69-4.68,6.34-6.09,1.19-.63,2.47-1.22,3.76-1.62.5-.15,1.01-.15,1.52-.29.65-.19,1.3-.39,1.95-.58-.51.83-.92,1.74-1.01,2.71-.07.73.05,1.59.46,2.22.34.48.71.46,1.27.42,1.28-.09,2.53-.45,3.69-1.01,2.3-1.13,4.21-3.08,5.18-5.47.09-.21.16-.43.24-.66.06-.17.12-.37.3-.43.12-.05.26-.01.39.02,5.44,1.52,10.65,3.62,16.13,5.01,1.35.34,16.19,3.79,16,4.5Z"/><path class="cls-25_football-team-20" d="M235.93,112.33c-.07-2.96,1.48-5.82,3.77-7.69s5.26-2.78,8.21-2.95c-.1.16-.21.32-.31.48,1.3-.72,2.84-.85,4.33-.85,3.29-.01,6.58.51,9.71,1.53-1.33.54-2.61,1.19-3.83,1.94.83.76,1.93,1.12,2.95,1.57s2.07,1.07,2.53,2.09l-1.11.09c.92,1.62,2.5,2.84,4.3,3.33-.71.82-1.64,1.43-2.67,1.75.41.51.93.92,1.52,1.2-.5.57-1.32.77-1.85,1.31-.41.41-.61.97-.81,1.51-.97,2.67-1.94,5.33-2.91,8,.19-1.55-.26-3.11-.71-4.61-.3-1-.79-2.17-1.81-2.31-.66-.1-1.31.32-1.7.86s-.56,1.21-.72,1.86c-.13-2.83-1.48-5.58-3.64-7.4-.49-.41-1.03-.79-1.65-.94-.45-.11-.92-.11-1.38-.07-1.63.14-3.22.71-4.56,1.64-1.01.7-2.02,1.64-3.25,1.54-1.03-.09-1.97-.94-2.97-.7-.93.23-1.12.28-1.31-.6-.16-.78-.13-1.77-.15-2.57Z"/><path class="cls-28_football-team-20" d="M213.36,250.9c2.88.69,4.86.28,7.81.53,2.16.18,4.39.23,6.43-.52,0,0,.52,3.3,0,6.02-.52,2.72-2.02,26.45-3.34,27.63-1.32,1.19-5.26,1.91-7.92-.35l-2.98-33.31Z"/><path class="cls-28_football-team-20" d="M275.03,245.75s.67,10.12-2.7,12.74l38.73,5.68s3.68-4.63.44-7.74c-3.24-3.11-4.75-2.6-4.75-2.6,0,0-14.7-5.79-16.94-7.07-5.19-2.97-14.78-1.01-14.78-1.01Z"/><path class="cls-6_football-team-20" d="M288.11,161.88c-.02.06-.06.12-.1.19-.26.46-.55.93-1.03,1.17-1.13.53-2.32-.65-3.57-.83-2.08-.31-3.45,2.07-4.01,4.1-2.53,9.31-.88,19.17-.87,28.83.01,1.53-.21,3.37-1.57,4.06-.71.37-1.54.32-2.34.29-3.59-.15-7.21.24-10.69,1.13-.57.15-1.14.31-1.71.48-3.11.11-6.1.67-8.87,2.17,1.69-3.03,4.08-5.67,6.95-7.63,2.32-1.6,5.09-2.91,6.41-5.4,1.44-2.71.75-6,1.01-9.06.27-3.27,1.65-6.35,2.05-9.6.11-.83.14-1.7-.12-2.5-.34-.96-1.06-1.71-1.8-2.4-2.66-2.45-6-4.62-6.91-8.11,3.59,2.72,8.64,3.4,12.82,1.73,4.19-1.69,8.91-2.34,13.05.27.53.34.97.71,1.3,1.12Z"/><path class="cls-13_football-team-20" d="M169,243.17c.91,1.19,2.2,2.09,3.63,2.53.43-.99.85-1.98,1.28-2.97-.25.59,1.52.41,1.78.15.6-.6.64-2.85.88-3.7.46,1.05,1.12,2.02,1.94,2.83.73-1.02,1.47-2.04,2.2-3.05.13-.18.33-.39.54-.32.12.04.19.16.26.28.54.99,1.09,1.97,1.63,2.96.43-.23.86-.46,1.28-.68.15.7.29,1.41.44,2.11.46-.4.97-.73,1.52-1,.24.66.56,1.29.95,1.87.5-.55,1-1.09,1.5-1.64.65.83,1.5,1.52,2.45,1.97.15-.71.45-1.38.87-1.97.37.43.85.78,1.37,1,.26-.55.53-1.09.79-1.64.2.22.49.37.78.4.47-.23.1-1.13.56-1.39.14-.08.3-.07.46-.05,3.44.3,6.92.14,10.31-.49-2.1.57-4.29.75-6.46.96-.77.07-1.57.16-2.22.57s-1.11,1.24-.85,1.96c-.37-.4-.83-.71-1.34-.91-.18.47-.36.94-.54,1.42-.48-.52-1.33-.05-1.86.42-.82.74-1.64,1.47-2.46,2.21-.37-.65-.25-1.64-.92-1.97-.43-.21-.97,0-1.26.38s-.41.85-.52,1.32c-.48-.59-1.04-1.18-1.78-1.34-1.14-.25-2.15.9-3.5.69-.27-.04-3.7-1.33-2.83-2.03-.65.53-1.3,1.06-1.95,1.59-.14-.47-.77-.71-1.18-.45.65.39.35,1.62-.41,1.66-1.97.83-4.14,1.17-6.26.97.02.6-.15,1.21-.49,1.71-.62-1.08-2.24-.77-3.4-.31-2.05.82-4.11,1.62-6.18,2.41,3.62-1.87,7.16-4.71,9-8.42Z"/><path class="cls-11_football-team-20" d="M294.5,232.45c.91,1.19,2.2,2.09,3.63,2.53.43-.99.85-1.98,1.28-2.97-.25.59,1.52.41,1.78.15.6-.6.64-2.85.88-3.7.46,1.05,1.12,2.02,1.94,2.83.73-1.02,1.47-2.04,2.2-3.05.13-.18.33-.39.54-.32.12.04.19.16.26.28.54.99,1.09,1.97,1.63,2.96.43-.23.86-.46,1.28-.68.15.7.29,1.41.44,2.11.46-.4.97-.73,1.52-1,.24.66.56,1.29.95,1.87l1.5-1.64c.65.83,1.5,1.52,2.45,1.97.15-.71.45-1.38.87-1.97.37.43.85.78,1.37,1,.26-.55.53-1.09.79-1.64.2.22.49.37.78.4.47-.23.1-1.13.56-1.39.14-.08.3-.07.46-.05,3.44.3,6.92.14,10.31-.49-2.1.57-4.29.75-6.46.96-.77.07-1.57.16-2.22.57s-1.11,1.24-.85,1.96c-.37-.4-.83-.71-1.34-.91-.18.47-.36.94-.54,1.42-.48-.52-1.33-.05-1.86.42-.82.74-1.64,1.47-2.46,2.21-.37-.65-.25-1.64-.92-1.97-.43-.21-.97,0-1.26.38s-.41.85-.52,1.32c-.48-.59-1.04-1.18-1.78-1.34-1.14-.25-2.15.9-3.5.69-.27-.04-3.7-1.33-2.83-2.03-.65.53-1.3,1.06-1.95,1.59-.14-.47-.77-.71-1.18-.45.65.39.35,1.62-.41,1.66-1.97.83-4.14,1.17-6.26.97.02.6-.15,1.21-.49,1.71-.62-1.08-2.24-.77-3.4-.31-2.05.82-4.11,1.62-6.18,2.41,3.62-1.87,7.16-4.71,9-8.42Z"/></g><g id="character_1_football-team-20"><path class="cls-25_football-team-20" d="M456.28,293.03s.05,5.57-.86,9.77c-.91,4.2-1,7.21-2.65,10.25-1.65,3.04-.25,7.07,3.42,6.52,3.67-.55,6.65-5.53,8.24-8.17,1.59-2.64,4.11-10.79,4.63-12.18.52-1.4,2.44-7.06,1.76-8.64-.67-1.58-7.73-3.13-10.18-3.72-2.45-.59-4.37,6.17-4.37,6.17Z"/><path class="cls-14_football-team-20" d="M470.83,290.58c-.14-.33-.6-.66-1.2-.97-.08,2.26-1.45,6.34-1.88,7.5-.52,1.4-3.04,9.54-4.63,12.18-1.59,2.64-4.57,7.62-8.24,8.17-1.1.17-1.97-.11-2.65-.63.41,1.75,1.77,3.07,3.96,2.74,3.67-.55,6.65-5.53,8.24-8.17,1.59-2.64,4.11-10.78,4.63-12.18.52-1.4,2.44-7.06,1.76-8.64Z"/><path class="cls-25_football-team-20" d="M363.37,317.67s-4.58,3.16-8.57,4.76c-3.99,1.6-6.54,3.21-9.98,3.56-3.44.34-6,3.76-3.48,6.49,2.52,2.73,8.31,2.41,11.38,2.24,3.08-.16,11.24-2.64,12.69-2.99,1.45-.35,7.21-1.94,8.15-3.39.93-1.44-.5-8.24-1.39-10.6-.89-2.36-8.8-.08-8.8-.08Z"/><path class="cls-14_football-team-20" d="M373.6,325.09c-.96,1.68-6.93,3.54-8.42,3.95-1.5.41-9.94,3.31-13.12,3.5-3.15.19-9.06.56-11.69-2.53-.03.82.24,1.67.97,2.47,2.52,2.73,8.31,2.41,11.38,2.24,3.08-.16,11.24-2.64,12.69-2.99,1.45-.35,7.21-1.94,8.15-3.39.37-.58.36-2.01.16-3.67-.04.14-.06.32-.12.42Z"/><path class="cls-29_football-team-20" d="M460.86,288.02c-4.88-2.19-12.04-7.33-19.82-12.26-7.26-4.6-18.42-5.73-20.76-7.01-2.34-1.28-17.86-36.67-18.4-37.21-.54-.55-27.74,5.22-27.74,5.22,2.17,3.48,28.68,34.3,31.74,37.4,3.06,3.1,3.4,5.81,8.64,6.93,5.24,1.12,42.68,14.18,43.76,14.54,1.08.37,4.94-6.55,2.57-7.61Z"/><path class="cls-31_football-team-20" d="M374.14,236.75s21.78,38.6,22.87,38.24c1.09-.36,16-7.87,18.92-13.63l-14.05-29.82-27.74,5.22Z"/><path class="cls-25_football-team-20" d="M374.14,236.75s21.78,38.6,22.87,38.24c1.09-.36,16-7.87,18.92-13.63l-14.05-29.82-27.74,5.22Z"/><path class="cls-9_football-team-20" d="M405.2,263.22c-.06-.9-.18-1.81-.53-2.65-.59-1.37-1.77-2.39-2.91-3.35-.72-.61-1.57-1.25-2.5-1.11-1.39.21-1.88,1.91-2.82,2.96-1.67,1.86-4.76,1.55-6.74,3.07,2.18-3.64,4.2-7.37,6.05-11.19.69-1.42,1.36-2.85,2.29-4.12,1-1.35,2.28-2.47,3.56-3.58,1.51-1.32,3.03-2.64,4.54-3.96.06-.05.12-.1.2-.12.21-.04.33.21.39.42.51,1.94.7,3.98,1.51,5.81.91,2.04,2.55,3.68,3.54,5.68,1.33,2.66,1.5,5.88,3.3,8.25.3.4.66.79.74,1.28.11.68-.35,1.31-.81,1.83-2.49,2.83-5.62,5-8.72,7.15-.45.31-.87.58-1.4.65-.26-.95.24-2.4.31-3.43.08-1.2.08-2.4,0-3.6Z"/><path class="cls-29_football-team-20" d="M410.78,225.98c2.02,3.48,3.93,8.53-1.17,13.38-5.1,4.85-12.94,14.94-30.93,26.76,0,0,1.37,11.59-1.78,23.15-2.66,9.77-4.73,26.84-4.74,28.47-.01,1.63-7,1.38-8.8-.08,0,0,1.27-41.94.72-48.5q-.84-10.14,6.44-16.43c7.28-6.29,18.11-19.31,18.11-19.31l22.14-7.46Z"/><path class="cls-25_football-team-20" d="M366.34,254.98s7.8,10.07,19.58,13.43c0,0,10.95-14.78,15.04-17.91,4.09-3.13,18.85-12.75,9.81-24.51l-24.78,5.76-19.67,23.24Z"/><path class="cls-29_football-team-20" d="M447.27,203.01c-4.14-3.65-5.74-2.7-9.15-7.43-3.41-4.73-15.07-20-17.78-20.56-2.71-.56-21.84,1.67-27.93,1.27-6.09-.4-10.81,1.92-13.36,3.17-2.54,1.25-4.32.75-4.32.75-7.39,1.49-10.03.41-17.15,8.35-4.64,5.18-8.69,10.91-12.58,16.67-2.37,3.51-3.69,4.7-6.73.96-2.39-2.93-4.49-6.1-6.26-9.44-.24-.45-.48-.93-.43-1.44.06-.71.65-1.24,1.03-1.85,1.11-1.78.34-4.1-.45-6.04-.54-1.33-1.17-2.75-2.43-3.44-1.27-.7-2.87-.43-4.21.11-1.65.67-3.2,1.82-3.88,3.47-1.11,2.7.37,5.7,1.69,8.31,2.12,4.18,3.9,8.54,5.31,13.01,1.37,4.33,2.49,8.95,5.56,12.29,1.07,1.16,2.43,2.16,3.99,2.32,1.9.2,3.71-.87,5.17-2.11,3.41-2.91,5.71-6.89,8.27-10.57,1.53-2.19,3.21-4.35,5.26-6.07,1.56-1.31,3.94-1.98,5.13-3.61.56,6.62,2.72,13.46,5.72,19.35,4.82,9.44,3.52,14.85,4.24,15.4.72.55,6.5,2.94,14.11.81,7.61-2.12,17.39-2.78,21.2-4.03,3.81-1.24,6.54-4.12,7.09-4.66.55-.54-5.54-10.89-9.85-15.81-4.31-4.91-9.08-22.5-9.8-23.77,0,0,19.2-2.41,21.73-3.12,0,0,2.06,3.32,7.28,6.97,5.22,3.65,10.01,5.81,11.44,7.81s.13,6.91,2.46,10c2.33,3.09,1.57.06,4.8,3.25,1.29,1.27,3.8.57,6.53-2.13,2.73-2.7,2.43-4.55-1.71-8.2Z"/><path class="cls-27_football-team-20" d="M372.17,317.75c0-1.36,1.44-13.39,3.45-23.03h0c-8.51,0-11.62-1.75-11.62-1.75h0c-.25,12.35-.63,24.7-.63,24.7,1.8,1.46,8.79,1.71,8.8.08Z"/><path class="cls-30_football-team-20" d="M375.62,294.72c-.66,0-1.24-.03-1.84-.05-1.82,9.27-3.08,19.94-3.09,21.22,0,1.32-4.59,1.41-7.29.62-.02.74-.03,1.16-.03,1.16,1.8,1.46,8.79,1.71,8.8.08,0-1.36,1.44-13.39,3.45-23.03h0Z"/><path class="cls-27_football-team-20" d="M433.99,287.29h0c11.46,3.87,23.69,8.13,24.3,8.34,1.08.37,4.94-6.55,2.57-7.61-4.88-2.19-12.04-7.33-19.82-12.26,0,0-1.48,10.32-7.05,11.53Z"/><path class="cls-30_football-team-20" d="M460.86,288.02c-4.88-2.19-12.04-7.33-19.82-12.26,0,0-.06.42-.2,1.08,7.11,4.58,13.61,9.14,18.13,11.18,1.96.88-.35,5.78-1.82,7.22.62.22,1.03.36,1.13.39,1.08.37,4.94-6.55,2.57-7.61Z"/><path class="cls-31_football-team-20" d="M414.39,228c-.55.53-3.28,3.42-7.08,4.66-1.74.57-4.73,1.01-8.19,1.53-4.11.62-8.87,1.34-13.01,2.5-7.62,2.11-13.39-.27-14.11-.82s.58-5.96-4.24-15.41c-3.24-6.34-5.58-12.57-6.77-16,0,0,0-.01-.01,0h0c-.41-.99-5.23,4.5-6.39,5.84-.17.19-.26.3-.26.3-.09-.06-.17-.11-.25-.17-1.84-1.25-3.23-2.53-4.29-3.74-.06-.09-.14-.17-.21-.26-.06-.09-.14-.17-.21-.26-.16-.19-.32-.39-.46-.57-2.16-2.86-2.46-5.02-2.46-5.02,2.71-4.01,6.27-7.68,10.14-12,3.08-3.43,6.47-6.1,11.01-7.14,2-.46,4.1-.62,6.06-1.14,2.27-.61,4.15-2.05,6.16-3.21,2.1-1.21,4.68-1.14,6.97-1.94.71-.25,1.4-.55,2.15-.63,1.03-.11,2.06.17,3.09.24,2.12.11,4.17-.78,6.29-1.08,3.18-.46,6.49.42,9.6-.32.72-.17,1.65-.35,2.05.26.36.56-.02,1.17.02,1.75.05.61.3,1.19.43,1.79.32,1.39.5,2.81.62,4.22.05.56.09,1.12.11,1.68.09,1.83.09,3.67.04,5.49-.01.43-.05.91-.32,1.24-.29.36-.77.48-1.22.6-2.82.66-9.34.66-9.92,4.22-.16.98-.01,1.98.17,2.94.98,5.12,2.91,9.78,5.31,14.29.61,1.13,1.25,2.26,1.91,3.39.71,1.21,8.42,11.62,7.24,12.79Z"/><path class="cls-29_football-team-20" d="M377.87,160.9c-.47,3.12,2.73,14.31,4.13,18.08,0,0-8.42,7.32-12.91,6.56,0,0-.21-.13-.02-1.69.19-1.56.36-5.41-.94-6.48-1.3-1.07,7.66-12.75,7.66-12.75l2.09-3.72Z"/><path class="cls-8_football-team-20" d="M377.12,172.38s.27-2.16.27-2.18c.02-.87.82-3.05.93-3.81l-1.34,2.16s-9.29,7.25-8.28,8.08c.6.5.8,1.76.82,2.96h0s4.03.78,7.58-7.22Z"/><path class="cls-29_football-team-20" d="M379.44,163.89c0,.06-.02.11-.03.16-.09.53-.18,1.07-.27,1.6-.1.61-.22,1.25-.63,1.71-.36.41-.91.61-1.3.99-.76.76-1.16,2.08-1.79,2.97-.69.98-1.5,1.88-2.4,2.69-1.46,1.31-2.99,3.3-4.89,4-.82.3-1.67.59-2.5.86-2.23.73-2.46-1.11-3.29-2.57-1.03-1.82-1.89-3.71-2.52-5.71-1.23-3.91-1.62-8.09-1.07-12.16.09-.67.21-1.35.44-1.99,1.89-5.24,8.82-7.89,13.64-5.16,3.33,1.89,4.83,5.95,5.02,9.61.34-.18.78-.03,1.07.23.72.66.66,1.78.51,2.76Z"/><path class="cls-25_football-team-20" d="M353.13,148.34c-.64,1.21-1.27,2.71-.54,3.87.78,1.23,2.55,1.21,3.99,1.04-.75.65.02,1.88.87,2.4,2.36,1.44,5.53,1.43,7.89-.02,1,1.18,2.89.49,4.43.6,1.57.11,2.95,1.17,3.85,2.47.89,1.3,1.37,2.83,1.84,4.34,1.13-.18,2.02-1.33,1.91-2.47.85.56,1.88.85,2.9.83.58-2.67,1.17-5.34,1.75-8.02.17-.8.35-1.62.22-2.42-.3-1.82-2.03-3.01-3.6-3.97.57-.72.42-1.8-.06-2.57s-1.25-1.33-1.95-1.91c-1.48-1.22-2.85-2.67-4.68-3.26-1.81-.58-4.02.11-4.7,1.97-6.07-2.52-11.4,1.97-14.11,7.11Z"/><path class="cls-12_football-team-20" d="M414.39,228c-.55.53-3.28,3.42-7.08,4.66-1.74.57-4.73,1.01-8.19,1.53-1.75-.12-3.5-.25-5.18.2,2.52-1.14,5.03-2.32,7.52-3.53.47-.22.97-.48,1.18-.96.11-.25.12-.52.15-.8.12-2.05.24-4.09.36-6.13.04-.57.05-1.19-.31-1.63-.22-.26-.56-.41-.87-.55-1.21-.51-2.41-1.02-3.63-1.54.72-2.29,1.09-4.68,1.12-7.08.01-1.14-.07-2.35-.66-3.34-.42-.71-1.07-1.27-1.52-1.95-.87-1.32-.97-2.97-1.29-4.5-.98-4.7-4.31-8.97-3.85-13.75,1.21.3,2.41.6,3.62.89,1.14.27,2.36.56,3.5.25,1.02-.29,1.84-1.02,2.76-1.55,1.63-.94,3.54-1.28,5.24-2.1.78-.37,1.52-.89,2.07-1.55.42-.48.71-1.48,1.4-1.59.15-.02.3-.01.43.05.09,1.83.09,3.67.04,5.49-.01.43-.05.91-.32,1.24-.29.36-.77.48-1.22.6-2.82.66-9.34.66-9.92,4.22-.16.98-.01,1.98.17,2.94.98,5.12,2.91,9.78,5.31,14.29.61,1.13,1.25,2.26,1.91,3.39.71,1.21,8.42,11.62,7.24,12.79Z"/><path class="cls-10_football-team-20" d="M360.97,204.45c-.41-.98-5.23,4.51-6.39,5.85-.02.01-.05.01-.07.02-.14.04-.29.07-.43.1-1.84-1.25-3.23-2.53-4.29-3.74-.06-.09-.14-.17-.21-.26-.06-.09-.14-.17-.21-.26-.16-.19-.32-.39-.46-.57-.29-.39-.47-.8-.4-1.27,1.52.07,3.06-.16,4.49-.68.45-.16.89-.36,1.28-.65,2-1.53,1.6-5.16,3.84-6.31.67.25,1.12.91,1.35,1.59s.3,1.4.46,2.11c.3,1.34,1.37,2.65,1.04,4.06Z"/></g></g></g></svg>