<svg id="back_to_online_school" data-name="back to online school" xmlns="http://www.w3.org/2000/svg" viewBox="0 0 3824.68 1745.77"><defs><style>.cls-1{fill:#b39f91;}.cls-2{fill:#ffdd89;}.cls-3{fill:#f4ccb5;}.cls-4{fill:#e6967a;}.cls-5{fill:#cf9f70;}.cls-6{fill:#ba8959;}.cls-7{fill:#ad7c50;}.cls-8{fill:#286e2a;}.cls-9{fill:#ffc197;}.cls-10{fill:#46c2b0;}.cls-11{fill:#f47b50;}.cls-12{fill:#cccc89;}.cls-13{fill:#b2d6c5;}.cls-14{fill:#cbcbcb;}.cls-15{fill:#91bb7d;}.cls-16{fill:#e4d5cd;}.cls-17{fill:#c29c7a;}.cls-18{fill:#e7d8cb;}.cls-19{fill:#e0a089;}.cls-20{fill:#e8948b;}.cls-21{fill:#fff;}.cls-22{fill:#452921;}.cls-23{fill:#f1775b;}.cls-24{fill:#5f3535;}.cls-25{fill:#523127;}.cls-26{fill:#4f2c2c;}.cls-27{fill:#e6f1fc;}.cls-28{fill:#141414;}.cls-29{fill:#fbbe30;}.cls-30{fill:#383533;}.cls-31{fill:#c1c8d4;}.cls-32{fill:#91969f;}.cls-33{fill:#82d7ff;}.cls-34{fill:#4fa646;}.cls-35{fill:#4d4d4d;}.cls-36{fill:#382a28;}.cls-37{fill:#273c42;}.cls-38{fill:#6599a8;}.cls-39{fill:#182529;}.cls-40{fill:#1a1a1a;}</style></defs><g id="back_to_online_school-2" data-name="back to online school"><ellipse class="cls-1" cx="3285.56" cy="1687.23" rx="221.4" ry="31.56"/><ellipse class="cls-1" cx="606.03" cy="1685.2" rx="193.17" ry="31.56"/><ellipse class="cls-1" cx="1947.22" cy="1678.71" rx="842.11" ry="67.05"/><g id="backcolor"><path id="backcolor-2" data-name="backcolor" class="cls-2" d="M3225,1030.1c-43.71,456.9-348.57,721.15-1172.55,721.15S845.39,1475,851.25,1051.71c6.11-441,151.83-889,1143.61-889.77C3282.29,161,3265.42,607,3225,1030.1Z" transform="translate(-108.89 -161.94)"/></g><g id="man_teacher" data-name="man teacher"><path class="cls-3" d="M3122.5,1261.92s-4.75-7.56-6.73-14.78.94-26.84-6.34-24.82-6.42,17.58-7,24.64-2.79,20.3-3.07,22.1S3124.38,1268.2,3122.5,1261.92Z" transform="translate(-108.89 -161.94)"/><path class="cls-3" d="M3104.45,1250.76s-4.42,7.22-17.5-.65c-17.17-10.32-15.25-7.83-27.34-15.69-9.91-6.43-13.14.69-4.84,8.56,6.89,6.53,13.86,11.87,20.95,18.21,4,3.56,2.69,5.12-2.62,4.62-3.49-.33-30.57-11.43-37.23-8.86-5.06,2-1.45,7.93,7.59,10.62,8.34,2.48,30.95,11.58,30.76,13.55s-32.18-6.08-38.2-5-4.23,6.17,4.78,8.8c6.45,1.89,36.25,8.87,37.21,12.34,1.41,5.06-14.25,8.41-19.76,12.25-4.25,3-1.67,5.83,8.44,2.45,12.54-4.2,12.88-1.21,25.07-3.42,11.19-2,28.79-1.94,36.28-15.23C3136.16,1278.94,3118.8,1245.08,3104.45,1250.76Z" transform="translate(-108.89 -161.94)"/><path class="cls-4" d="M3091.12,1269.17a53.86,53.86,0,0,0-6.37,13.4c-.45,1.41-.82,3-.15,4.32,1,1.85,3.39,2.21,5.46,2.34l18.29,1.2a33.4,33.4,0,0,1-9.42-29.63l-.21,0a2.8,2.8,0,0,0-1.83,1.1A54.13,54.13,0,0,0,3091.12,1269.17Z" transform="translate(-108.89 -161.94)"/><path class="cls-3" d="M3238.28,1284.39c16.19,6.7,47.09,25.84,36.57,42.39-9.47,12.57-40.55,9-56.88,2.76-24.28-9.22-35.93-11.61-54.15-16.41-7.62-2-53-9.75-52.93-14.11a124.52,124.52,0,0,1,5.84-25.46C3148.94,1267.56,3210.28,1272.33,3238.28,1284.39Z" transform="translate(-108.89 -161.94)"/><path class="cls-5" d="M3135.88,1262.48c19.29-2.79,130.12,17,144.67,20.33,19.42,4.45,31.92,5.82,44.17,26.4,10.85,18.22-5.1,51-21.84,48.83s-135.7-31.11-182.38-42.24C3124.8,1302.59,3131.36,1269.25,3135.88,1262.48Z" transform="translate(-108.89 -161.94)"/><path class="cls-3" d="M3498.57,1404.58c-6.2-18.1-12.21-57,11-59.5,18.76-.68,39.15,27.74,45.92,45.61,10.06,26.58,16.75,37.93,26.24,56.43a194.1,194.1,0,0,0,19.94,29.89c16.73,20.35,12.91,29.69,8.84,32.61-12.67,7.61-34-5.28-47.34-15.19C3533.11,1471.64,3508.86,1436.2,3498.57,1404.58Z" transform="translate(-108.89 -161.94)"/><path class="cls-5" d="M3539.48,1481.55c-15.87-15.49-46.26-66.56-52.89-81.55-8.86-20-17.88-40.94-15.8-62.33,2.21-22.78,38.1-60.84,47.41-44.63s60.64,127,81.52,175.34C3583.85,1472.58,3550.11,1484,3539.48,1481.55Z" transform="translate(-108.89 -161.94)"/><rect class="cls-4" x="3211.85" y="1043.28" width="145.76" height="105.68"/><path class="cls-5" d="M3494.37,1483.82c-3.19-26.48,28.73-154.77,25.88-183.76-2-19.92-50.05-33.51-50.05-33.51s-30.59,36.42-80.72,36.42-72.67-32.92-72.67-32.92c-56.52,14.44-47.95,21.09-47.79,67.16,1.21,18.8,16.91,87.34,25.67,146.61Z" transform="translate(-108.89 -161.94)"/><path class="cls-6" d="M3494.31,1489.78c.26-26.94,14.25-104.08,19-130.36,0,0-3.14.31-6,15.77-5.15,27.49-7.28,65.47-17.61,71.12-11,6-178.7,8.22-189.94,1.15-6.27-3.94-20.2-94.22-22.34-99.72s-8.42-18.09-8.42-18.09c.05,2.4.08,4.91.09,7.56,1.26,19.44,17.5,92,26.56,152.57Z" transform="translate(-108.89 -161.94)"/><path class="cls-7" d="M3470.2,1266.55s-11,11.42-29.77,23-52.76,13-52.76,13c7.88,2.32,23.54,3.29,27.4,10,8.38,14.67.62,29.89.62,29.89s50-40.46,52.39-51.4S3470.2,1266.55,3470.2,1266.55Z" transform="translate(-108.89 -161.94)"/><path class="cls-7" d="M3317.59,1267.82s8.31,12.37,27,23.93,46.54,10.76,46.54,10.76c-7.87,2.32-21.15,3.27-25,10-8.38,14.67-.62,29.89-.62,29.89s-50-40.46-52.39-51.4S3317.59,1267.82,3317.59,1267.82Z" transform="translate(-108.89 -161.94)"/><rect class="cls-8" x="3314.73" y="1184.16" width="24.71" height="5.98"/><rect class="cls-9" x="3339.44" y="1184.16" width="24.71" height="5.98"/><rect class="cls-10" x="3339.44" y="1184.16" width="4.82" height="5.98"/><rect class="cls-11" x="3347.87" y="1184.12" width="4.82" height="5.98"/><rect class="cls-12" x="3356.79" y="1184.12" width="4.82" height="5.98"/><rect class="cls-11" x="3314.73" y="1190.13" width="24.71" height="5.98"/><rect class="cls-13" x="3339.44" y="1190.13" width="9.63" height="5.98"/><rect class="cls-14" x="3349.07" y="1190.13" width="9.63" height="5.98"/><rect class="cls-15" x="3358.7" y="1190.13" width="5.44" height="5.98"/><path class="cls-16" d="M3388.64,1353.59a3.5,3.5,0,1,1,3.5-3.5A3.5,3.5,0,0,1,3388.64,1353.59Z" transform="translate(-108.89 -161.94)"/><circle class="cls-17" cx="3279.75" cy="1188.15" r="2.35"/><path class="cls-16" d="M3388.64,1400.53a3.5,3.5,0,1,1,3.5-3.5A3.5,3.5,0,0,1,3388.64,1400.53Z" transform="translate(-108.89 -161.94)"/><path class="cls-17" d="M3391,1397a2.35,2.35,0,1,1-2.34-2.35A2.34,2.34,0,0,1,3391,1397Z" transform="translate(-108.89 -161.94)"/><path class="cls-16" d="M3388.64,1447.46a3.5,3.5,0,1,1,3.5-3.5A3.5,3.5,0,0,1,3388.64,1447.46Z" transform="translate(-108.89 -161.94)"/><path class="cls-17" d="M3391,1444a2.35,2.35,0,1,1-2.34-2.34A2.35,2.35,0,0,1,3391,1444Z" transform="translate(-108.89 -161.94)"/><rect class="cls-7" x="3286.16" y="1141.62" width="1.6" height="179.3"/><rect class="cls-7" x="3272.98" y="1141.62" width="1.6" height="179.3"/><path class="cls-7" d="M3462.71,1434h-23.87a16.37,16.37,0,0,1-16.35-16.35v-34.88a14.65,14.65,0,0,1-3.44-8.21,39.41,39.41,0,0,1,.67-10.26l.08-.49h62l.07.49c.05.28,1.05,6.86.67,10.26a15.35,15.35,0,0,1-2.56,7.14,11.18,11.18,0,0,1-.92,1.14v34.81A16.38,16.38,0,0,1,3462.71,1434Zm-41.92-69a34.94,34.94,0,0,0-.58,9.46,13.38,13.38,0,0,0,3.28,7.72l.16.17v35.33a15.21,15.21,0,0,0,15.19,15.19h23.87a15.21,15.21,0,0,0,15.19-15.19v-35.27l.16-.17a10.85,10.85,0,0,0,1-1.18,14.17,14.17,0,0,0,2.36-6.6c.3-2.73-.37-7.86-.59-9.46Z" transform="translate(-108.89 -161.94)"/><path class="cls-18" d="M3450.77,1385.55a3.69,3.69,0,1,1,3.69-3.68A3.68,3.68,0,0,1,3450.77,1385.55Z" transform="translate(-108.89 -161.94)"/><circle class="cls-17" cx="3341.89" cy="1219.93" r="2.47"/><path class="cls-6" d="M3450.77,1390l-.14,0-25.22-6.62a.59.59,0,0,1-.42-.71.58.58,0,0,1,.71-.41l25.08,6.58,24.12-6.13a.59.59,0,0,1,.71.42.57.57,0,0,1-.42.7Z" transform="translate(-108.89 -161.94)"/><rect class="cls-6" x="3347.74" y="1227.47" width="0.87" height="44"/><rect class="cls-6" x="3334.92" y="1227.47" width="0.87" height="44"/><path class="cls-7" d="M3346.66,1434h-23.87a16.38,16.38,0,0,1-16.35-16.35v-34.88a14.57,14.57,0,0,1-3.43-8.21,39,39,0,0,1,.66-10.26l.08-.49h62l.08.49c0,.28,1,6.86.66,10.26a15.24,15.24,0,0,1-2.56,7.14,9,9,0,0,1-.92,1.14v34.81A16.37,16.37,0,0,1,3346.66,1434Zm-41.92-69a35.76,35.76,0,0,0-.58,9.46,13.44,13.44,0,0,0,3.28,7.72l.16.17v35.33a15.21,15.21,0,0,0,15.19,15.19h23.87a15.21,15.21,0,0,0,15.19-15.19v-35.27l.16-.17a9.8,9.8,0,0,0,1-1.18,14.06,14.06,0,0,0,2.36-6.6,49.71,49.71,0,0,0-.59-9.46Z" transform="translate(-108.89 -161.94)"/><path class="cls-18" d="M3334.73,1385.55a3.69,3.69,0,1,1,3.68-3.68A3.69,3.69,0,0,1,3334.73,1385.55Z" transform="translate(-108.89 -161.94)"/><circle class="cls-17" cx="3225.84" cy="1219.93" r="2.47"/><path class="cls-6" d="M3334.72,1390l-.14,0-25.22-6.62a.58.58,0,0,1,.3-1.12l25.07,6.58,24.12-6.13a.58.58,0,0,1,.71.42.57.57,0,0,1-.42.7Z" transform="translate(-108.89 -161.94)"/><rect class="cls-6" x="3231.69" y="1227.47" width="0.87" height="44"/><rect class="cls-6" x="3218.87" y="1227.47" width="0.87" height="44"/><path class="cls-3" d="M3705.86,1114.86c15.11-9.93,36.49-9.54,53.83-1.11s30.71,24,38.52,41.24c13.57,29.91,10.61,65.4-7.55,90.64s-50.94,39.39-83.7,36.14c-17.54-1.74-35.25-8.42-48.52-20.49s-21.56-29.83-19.73-46.66Z" transform="translate(-108.89 -161.94)"/><path class="cls-4" d="M3725.1,1223.12c-1-2.24,1.68-5.35,4.63-9.94s6.27-10.88,7.1-18.15-.92-14.5-2.81-19.88-3.75-9.35-2.25-11.15c.72-.85,2.26-1,4.47-.24a21.79,21.79,0,0,1,7.86,5.38,35,35,0,0,1,7.59,11.87,36.2,36.2,0,0,1,2.32,17,33.29,33.29,0,0,1-6,15.57,29.34,29.34,0,0,1-9.92,8.81,19.06,19.06,0,0,1-8.75,2.48C3727.06,1224.86,3725.61,1224.19,3725.1,1223.12Z" transform="translate(-108.89 -161.94)"/><path class="cls-3" d="M3153.23,851.44c1.51-18-9.05-36.62-24.74-47.82s-35.77-15.51-54.63-14.15c-32.76,2.37-62.52,21.92-76,49.94s-10.28,63.56,8.23,90.79c9.91,14.58,24.24,26.95,41.18,32.84s36.51,4.69,50.42-4.95Z" transform="translate(-108.89 -161.94)"/><path class="cls-4" d="M3048.93,886.25c2.46-.16,3.9-4,6.52-8.82s6.57-10.71,12.55-14.91,13.19-6.12,18.82-7,10-1.17,10.86-3.34c.4-1-.2-2.47-1.93-4a21.71,21.71,0,0,0-8.48-4.33,34.86,34.86,0,0,0-14.05-1,36.22,36.22,0,0,0-16.06,6.1,33.2,33.2,0,0,0-10.81,12.7,29.3,29.3,0,0,0-3,12.92,19.06,19.06,0,0,0,2,8.87C3046.47,885.36,3047.75,886.31,3048.93,886.25Z" transform="translate(-108.89 -161.94)"/><path class="cls-3" d="M3436.23,1302.42c52.32-.59,110.59-7.69,162.17-26.62,44.86-16.54,78.76-40.59,109.47-66.69,25.17-27,201.67-255.47,141.16-338-52.21-70.34-82.83-87.83-224.63-171.83-142.07-85.65-218.58-105.17-330.28-94.75-120.87,11.27-207.31,257.89-214.89,300.8-7.72,45.06-10.66,92,2,141.11,14.59,56.49,46.74,106.78,81.3,145,34.83,38.41,76.08,66,123.74,84.66S3383.7,1302.86,3436.23,1302.42Z" transform="translate(-108.89 -161.94)"/><path class="cls-19" d="M3849,871.12c-52.21-70.34-82.83-87.83-224.63-171.83-142.07-85.65-218.58-105.17-330.28-94.75-78.83,7.35-143,114.8-180.22,200.56,53.91,18.71,116.66,9.44,172.47-3,43.13-9.29,100.28-62.31,129.6-94.21-41.47,126.89,215,359.08,378.54,380.48C3841.66,1011.14,3883.26,917.79,3849,871.12Z" transform="translate(-108.89 -161.94)"/><ellipse class="cls-20" cx="3567.62" cy="1112.92" rx="80.23" ry="93.53" transform="translate(1068.13 3823.52) rotate(-67.56)"/><ellipse class="cls-20" cx="3211.18" cy="962.83" rx="80.23" ry="96.49" transform="translate(986.48 3401.28) rotate(-67.56)"/><ellipse class="cls-21" cx="3294.38" cy="862.88" rx="85.27" ry="71.91" transform="translate(1112.42 3402.77) rotate(-67.18)"/><ellipse class="cls-22" cx="3293.92" cy="868.03" rx="73.46" ry="64.1" transform="translate(1107.39 3405.49) rotate(-67.18)"/><path class="cls-21" d="M3280.55,843.58c.08-2.48-1.86-4.7-5.51-5.59s-8.88-.26-14.06,2.6a25.7,25.7,0,0,0-10.78,11.09c-1.81,3.89-1.66,7.09,0,8.63s4.37,1.44,7.33.65a46.41,46.41,0,0,0,9.72-4.2,49.67,49.67,0,0,0,9-6.11C3278.63,848.48,3280.47,846.12,3280.55,843.58Z" transform="translate(-108.89 -161.94)"/><ellipse class="cls-21" cx="3583.51" cy="981.05" rx="85.27" ry="71.91" transform="translate(1180.49 3741.61) rotate(-67.18)"/><ellipse class="cls-22" cx="3581.6" cy="985.59" rx="73.46" ry="64.1" transform="translate(1175.14 3742.63) rotate(-67.18)"/><path class="cls-21" d="M3608.42,978.05c1.72-1.79,4.66-1.95,7.85,0s6.39,6.16,8,11.86a25.75,25.75,0,0,1-.39,15.47c-1.52,4-3.92,6.14-6.15,6.05s-4.09-2.12-5.59-4.79a45.83,45.83,0,0,1-3.79-9.88,49.68,49.68,0,0,1-1.92-10.69C3606.26,982.85,3606.66,979.88,3608.42,978.05Z" transform="translate(-108.89 -161.94)"/><path class="cls-23" d="M3436.26,1003.23a6.23,6.23,0,0,1-.79,6.31,12.48,12.48,0,0,1-1.48,1.72,16,16,0,0,1-2,1.57,18.26,18.26,0,0,1-5.75,2.36,22.28,22.28,0,0,1-3.59.55,29.15,29.15,0,0,1-4,0c-22.55-2.14-34.07-28.71-20.23-46.63a29.07,29.07,0,0,1,2.68-2.91,21.34,21.34,0,0,1,2.85-2.24,18.25,18.25,0,0,1,5.65-2.59,14.93,14.93,0,0,1,2.55-.43,12.65,12.65,0,0,1,2.27.1c8.17,1.13,5.13,10.35,5.26,16,0,.48,0,1.05,0,1.53s.06,1,.07,1.5a20.86,20.86,0,0,0,1,5.19c.25.64.47,1.13.62,1.56s.41.89.72,1.52a20.71,20.71,0,0,0,3.1,4.26c.35.33.69.73,1,1.08s.74.75,1.11,1C3430.17,997.61,3434.35,999.62,3436.26,1003.23Z" transform="translate(-108.89 -161.94)"/><path class="cls-24" d="M3592.78,859.27a132,132,0,0,1,69.79,59.43c2.85,5.16,11.45,1.72,8.57-3.49a141.61,141.61,0,0,0-74.77-64.48c-5.58-2-9.2,6.48-3.59,8.54Z" transform="translate(-108.89 -161.94)"/><path class="cls-24" d="M3289.07,760.21a132,132,0,0,1,89.57,19.52c4.94,3.2,10.91-3.89,5.91-7.13A141.64,141.64,0,0,0,3288.21,751c-5.88.82-5.06,10,.86,9.22Z" transform="translate(-108.89 -161.94)"/><path class="cls-21" d="M3547.34,1073s-158.91-30.31-283.46-120.83c0,0-53.92,145.8,59.61,213.89C3456.11,1245.63,3547.34,1073,3547.34,1073Z" transform="translate(-108.89 -161.94)"/><path class="cls-25" d="M3890.22,810a364.66,364.66,0,0,0-11.15-44.5A308.85,308.85,0,0,0,3853.89,708c-8.93-96.17-90.21-174-179.31-217.81-117.34-57.76-237-56.59-361.17-26.67-92.72,22.33-137.38,57.58-216,140.58-161.23,215-21.6,324.41-21.6,324.41s18-49.6,51.93-110.43c45.37,7.55,114.33-7.92,154-32.69,49.64-31,124.31-96.92,161.44-142.16-19.52,65.39-20.7,164.21,33,210a191.69,191.69,0,0,1,19.69-86.09c10.47,67.3,47.81,130,102,171.35A269.44,269.44,0,0,0,3711.7,988.6a1049.17,1049.17,0,0,0,89.24,65.87L3758.3,1150s98.74-108.5,119.46-165.5C3899.39,925,3901.89,872.86,3890.22,810Z" transform="translate(-108.89 -161.94)"/><path class="cls-22" d="M3927.51,736.54a5.73,5.73,0,0,1-4.93-3.34c-13.59-29.59-45.82-50.38-78.38-50.6a5.76,5.76,0,0,1,.07-11.51c37.46.23,73.13,23.27,88.77,57.3a5.77,5.77,0,0,1-2.83,7.64A5.7,5.7,0,0,1,3927.51,736.54Z" transform="translate(-108.89 -161.94)"/><path class="cls-22" d="M3831.1,654.76a5.75,5.75,0,0,1-3.52-10c22.2-19.72,54.92-26.93,83.36-18.4a5.76,5.76,0,0,1-3.31,11c-24.7-7.42-53.13-1.15-72.41,16A5.74,5.74,0,0,1,3831.1,654.76Z" transform="translate(-108.89 -161.94)"/><path class="cls-22" d="M3789.75,1051.48a5.15,5.15,0,0,1-2.1-.57C3722,1017.11,3676.42,947.67,3671.5,874a5.18,5.18,0,1,1,10.33-.69c4.69,70.12,48.09,136.21,110.56,168.39a5.18,5.18,0,0,1-2.64,9.78Z" transform="translate(-108.89 -161.94)"/><path class="cls-22" d="M3606.67,952a5.16,5.16,0,0,1-2.82-1c-45.72-34.08-81-81.73-102.14-137.79s-26-115.18-14.06-170.94a5.18,5.18,0,1,1,10.13,2.16c-11.49,53.82-6.77,110.92,13.63,165.13s54.51,100.24,98.63,133.13a5.18,5.18,0,0,1-3.37,9.33Z" transform="translate(-108.89 -161.94)"/><path class="cls-22" d="M3444.39,808.93a5.18,5.18,0,0,1-4.57-3.31c-22.14-57.53-9.43-122.94.78-175.5a5.19,5.19,0,1,1,10.18,2c-10,51.25-22.36,115-1.29,169.79a5.19,5.19,0,0,1-3,6.7A5.08,5.08,0,0,1,3444.39,808.93Z" transform="translate(-108.89 -161.94)"/><path class="cls-22" d="M3136.17,823.8c-1.22-.06-2.43-.14-3.65-.22a5.18,5.18,0,0,1,.6-10.34h.08c43.31,2.84,87.94-5.54,129-24.27s76.68-46.92,102.93-81.5a5.18,5.18,0,0,1,8.25,6.26c-27.28,36-64.24,65.22-106.88,84.67C3225,817.32,3180.05,826.08,3136.17,823.8Z" transform="translate(-108.89 -161.94)"/><path class="cls-22" d="M3099.31,716.49a5.23,5.23,0,0,1-2.69-.92,5.18,5.18,0,0,1-1.28-7.21c42.1-60.33,100.69-110,169.42-143.7s143.9-49.53,217.38-45.84h0a5.18,5.18,0,0,1-.52,10.35c-145.9-7.33-294.18,65.33-377.79,185.11A5.15,5.15,0,0,1,3099.31,716.49Z" transform="translate(-108.89 -161.94)"/><path class="cls-22" d="M3818.1,896.11l-.17,0a5.17,5.17,0,0,1-4.72-5.6c10.25-120.9-46.39-245.35-144.29-317a5.18,5.18,0,1,1,6.12-8.36c100.76,73.77,159,201.84,148.49,326.27A5.19,5.19,0,0,1,3818.1,896.11Z" transform="translate(-108.89 -161.94)"/><path class="cls-22" d="M3687.37,866.27a274.12,274.12,0,0,0,25,54.43,269.15,269.15,0,0,0,35.41,46.85,277.23,277.23,0,0,0,24.9,23.45,6.22,6.22,0,1,0,7.86-9.64,265.94,265.94,0,0,1-21.44-19.81l-1.19-1.24c-.22-.23-.82-.82.21.22-.2-.2-.4-.41-.59-.62-.89-.94-1.76-1.88-2.63-2.84-1.59-1.74-3.17-3.5-4.71-5.29q-4.78-5.52-9.26-11.29a268.66,268.66,0,0,1-16.51-23.82q-1.92-3.1-3.75-6.27c-.57-1-1.14-2-1.7-3l-.84-1.5c-.14-.25-.29-.5-.42-.75.76,1.53.11.18,0-.1q-3.48-6.42-6.61-13A266.29,266.29,0,0,1,3699,861.76a6.26,6.26,0,0,0-8.05-3.54,6.35,6.35,0,0,0-3.54,8Z" transform="translate(-108.89 -161.94)"/><path class="cls-22" d="M3825.46,613.12c-37.38-54.3-90-96.2-149-125-60.65-29.58-127.47-46.07-194.74-50.24-67-4.15-135.61,3.65-198.64,27.38-63.83,24-121.61,63.92-167.55,114.26-45.54,49.92-80,110.25-97.38,175.67q-3.21,12.06-5.63,24.29c-1.19,5.93,7.83,9,9,3,13-65.06,42.71-125.92,84.43-177.37a431.91,431.91,0,0,1,157-121.28c60.52-27.31,127.19-38.43,193.33-37.41s132.17,14.1,193.11,39.79c59,24.87,113.37,62.37,153.64,112.56q7.3,9.11,13.94,18.7c3.42,5,11.92.68,8.45-4.37Z" transform="translate(-108.89 -161.94)"/><path class="cls-25" d="M3458,503.34c-42.49-23-68.79-72.9-63.85-121A492.88,492.88,0,0,0,3611,478.57Z" transform="translate(-108.89 -161.94)"/><path class="cls-22" d="M3531.82,454.84a312.05,312.05,0,0,1-56.4-21.76,318.06,318.06,0,0,1-51.62-32.51,306.91,306.91,0,0,1-25.69-22.24,3.18,3.18,0,0,0-5.46,1.94,137.76,137.76,0,0,0,19.58,86.1,135.37,135.37,0,0,0,15.29,20.36c2.72,3,7.38-1.21,4.66-4.2a131.83,131.83,0,0,1-33.63-77.61,126.83,126.83,0,0,1-.18-17.76A320.94,320.94,0,0,0,3441.81,421a322.7,322.7,0,0,0,55.1,28.59,315.78,315.78,0,0,0,32.93,11.18C3533.72,461.88,3535.71,455.93,3531.82,454.84Z" transform="translate(-108.89 -161.94)"/><path class="cls-26" d="M3849.6,710.21a366.39,366.39,0,0,1,32.75,82.57,330.54,330.54,0,0,1,10.92,90.76,287.83,287.83,0,0,1-15.1,86.32,301.38,301.38,0,0,1-36.35,71.69c-16.55,24.38-36,46.64-56.63,67.62q-4.12,4.2-8.33,8.34a4.83,4.83,0,1,0,6.47,7.17c21.88-21.57,42.7-44.41,60.67-69.38,16.27-22.61,30.05-47.06,40-73.11a293.06,293.06,0,0,0,18.43-86.35,334.2,334.2,0,0,0-8-94.26,374.17,374.17,0,0,0-31.09-86c-1.67-3.3-3.4-6.58-5.16-9.83-3-5.45-11.57-1-8.59,4.44Z" transform="translate(-108.89 -161.94)"/><path class="cls-3" d="M3423.56,1616.57c-2.11,43.8,13.2,152,19.23,204,17.62,2.13,23,1.87,41-2.37,12-50.92,31.36-165,26.46-215.2C3504,1539.7,3424.67,1593.47,3423.56,1616.57Z" transform="translate(-108.89 -161.94)"/><polygon class="cls-27" points="3329.03 1637.43 3379.9 1637.43 3376.76 1678.71 3335.14 1678.71 3329.03 1637.43"/><path class="cls-28" d="M3484.24,1827.89c6.2,0,11.75,9.5,11.75,19s-2.38,19.5-6.22,19.5h-47.59c-4.26,0-7.9-3.89-6.45-17.68s1.29-20.82,10.6-20.82Z" transform="translate(-108.89 -161.94)"/><path class="cls-3" d="M3381,1616.57c2.11,43.8-13.2,152-19.23,204-17.62,2.13-23,1.87-41-2.37-12-50.92-31.36-165-26.46-215.2C3300.55,1539.7,3379.91,1593.47,3381,1616.57Z" transform="translate(-108.89 -161.94)"/><polygon class="cls-27" points="3257.77 1637.43 3206.91 1637.43 3210.05 1678.71 3251.67 1678.71 3257.77 1637.43"/><path class="cls-28" d="M3320.34,1827.89c-6.2,0-11.75,9.5-11.75,19s2.38,19.5,6.21,19.5h47.6c4.26,0,7.89-3.89,6.45-17.68s-1.29-20.82-10.6-20.82Z" transform="translate(-108.89 -161.94)"/><path class="cls-5" d="M3294.58,1466.73s123.06,12.81,196.9-4.64c0,0,26.08,53.83,26.08,104s-20.69,248.79-20.69,248.79-44.62,13.73-88,4c0,0-2.18-213-1.88-221.56s-18.86-2.3-18.86-2.3l-4.25,222.65s-76.37,4.62-84-7.4c0,0-24.53-214.77-16.47-281.29C3289.45,1478.51,3294.58,1466.73,3294.58,1466.73Z" transform="translate(-108.89 -161.94)"/><path class="cls-6" d="M3427.73,1575.81c.94-4.71-15.37,9.88-30.47,12.25-14.36,2.25-31.79-7.66-30.45-4,2.92,8,11.67,14.45,11.67,24.78.75,37,1.51,172.69-1.2,209.07,4.08-.18,6.55-.33,6.55-.33l4.25-222.65s19.17-6.31,18.86,2.3,1.88,221.56,1.88,221.56c3,.68,6,1.24,9,1.7C3411.45,1703,3425.6,1586.51,3427.73,1575.81Z" transform="translate(-108.89 -161.94)"/><path class="cls-6" d="M3294.58,1466.73s-5.13,11.78-11.24,62.18c-.8,6.57-1.27,13.67-1.49,21.11,0,0,15.74-36.25,38.21-44,39.52-13.56,157.51-23.21,193.65,32.54.35.54,1.12.49,1.68.74-6.27-40.83-23.91-77.25-23.91-77.25C3417.64,1479.54,3294.58,1466.73,3294.58,1466.73Z" transform="translate(-108.89 -161.94)"/><path class="cls-6" d="M3293.61,1560.53c16.76.46,32.75-9.87,41.24-26.73a60.21,60.21,0,0,0,5.08-14.61c.4-1.94-2.16-2.77-2.57-.83-3.71,17.71-15.39,32-30.43,37.08a38.65,38.65,0,0,1-13.32,2c-1.72,0-1.72,3,0,3.1Z" transform="translate(-108.89 -161.94)"/><path class="cls-6" d="M3452.7,1523.06c4,21.45,18.59,38.74,37,43.58a42.51,42.51,0,0,0,16.3,1.08c1.68-.22,1.7-3.33,0-3.1a41.37,41.37,0,0,1-26.82-5.73A50.18,50.18,0,0,1,3460.5,1538a60,60,0,0,1-5.23-15.81c-.36-2-2.93-1.12-2.57.83Z" transform="translate(-108.89 -161.94)"/><path class="cls-7" d="M3502.83,1488.58c-80.17,6.8-134.44,4-214.61-2.77l1.46-25c76.77,6.5,209.51,0,209.51,0Z" transform="translate(-108.89 -161.94)"/><rect class="cls-29" x="3253.52" y="1300.23" width="59.69" height="31.61"/></g><g id="woman_teacher" data-name="woman teacher"><path class="cls-25" d="M259.51,1245.13c-.11,36.84,11.92,73.91,35.56,103.14,44.31,54.8,125.5,78.6,194.09,58.07,31.58-9.45,61.15-28.34,77-56.22,13.49-23.76,30.19-98.23-13.55-169.65-19.35-31.6-52.38-53.86-87.42-68.32-30.59-12.61-64.85-19.53-97.19-12.52-32.75,7.1-61.05,28.21-80.05,54.74S259.6,1212.91,259.51,1245.13Z" transform="translate(-108.89 -161.94)"/><path class="cls-25" d="M467.57,1118.57c-82.34-87.32-238.53-9.26-224.83,102.82C194.6,1095.09,409.2,1004.18,467.57,1118.57Z" transform="translate(-108.89 -161.94)"/><path class="cls-25" d="M558.6,1236.91c37.74,26.19,48.72,79.06,30.3,120.54-40.78,88.13-158.14,96.65-229.54,45C526.27,1468,635.43,1332,558.6,1236.91Z" transform="translate(-108.89 -161.94)"/><path class="cls-25" d="M583,1291.64c-21.19,165.52-260.69,195.42-308.85,39C352.39,1471,540.41,1424.65,583,1291.64Z" transform="translate(-108.89 -161.94)"/><path class="cls-25" d="M476.5,1124.21c-122-94.78-246.36,42.68-220,162.09C191.09,1123.69,394.28,1011.35,476.5,1124.21Z" transform="translate(-108.89 -161.94)"/><path class="cls-22" d="M460.47,1122.54a114.58,114.58,0,0,0-72.2,7.23c-22,9.64-39.64,26.45-51.53,46.44a135.85,135.85,0,0,0-7.89,15.55,143.07,143.07,0,0,0-5.73,16.46,149.29,149.29,0,0,0-3.49,17.1,170.16,170.16,0,0,0-1.3,17.52c-.37,23.58,4.86,47.37,13.8,70.29a139.68,139.68,0,0,1-24-89,136.72,136.72,0,0,1,2.91-18.8,141.53,141.53,0,0,1,5.78-18.21,143.44,143.44,0,0,1,8.54-17.21,137.43,137.43,0,0,1,11.21-15.77,130.09,130.09,0,0,1,13.75-13.83,109.36,109.36,0,0,1,53-24.59,123.88,123.88,0,0,1,19.58-1.5,112.56,112.56,0,0,1,19.36,2.23A93.18,93.18,0,0,1,460.47,1122.54Z" transform="translate(-108.89 -161.94)"/><path class="cls-22" d="M552.54,1246.78c-2.08,22-10.58,43.43-23.36,62.19a153.14,153.14,0,0,1-50.49,46.45,160.76,160.76,0,0,1-66.76,20.25c-23.33,1.77-47.1-1.37-68.22-10.14a208,208,0,0,0,66.89.32A183.33,183.33,0,0,0,472,1344.58a175.64,175.64,0,0,0,48.88-41.4A187.67,187.67,0,0,0,552.54,1246.78Z" transform="translate(-108.89 -161.94)"/><path class="cls-22" d="M526.67,1207.36c-2,.27-4.06.48-6,.91s-3.92.8-5.84,1.32a100.59,100.59,0,0,0-11.18,3.78c-3.64,1.45-7.19,3.08-10.7,4.81s-6.92,3.64-10.31,5.52a205.93,205.93,0,0,0-37.13,27.24,212.27,212.27,0,0,0-29.78,34.65,244.56,244.56,0,0,0-22,40.92c.93-15.8,5.73-31.43,13-45.86a143.93,143.93,0,0,1,71.15-65.73c1.88-.87,3.89-1.5,5.82-2.25s3.87-1.5,5.88-2.09a104,104,0,0,1,12.15-3.11C510,1205.93,518.61,1205.53,526.67,1207.36Z" transform="translate(-108.89 -161.94)"/><path class="cls-3" d="M560.81,1436.38c10.86-13.49,28-44.74,9-54.05-15.77-6.37-41.9,11.53-53.17,24.66-16.77,19.53-26,27.13-39.76,40a175.52,175.52,0,0,1-26.2,19.3c-20.53,12.16-20.16,21.29-17.59,25,8.44,10.4,30.56,6,45,1.68C510.71,1482.82,542.3,1460.13,560.81,1436.38Z" transform="translate(-108.89 -161.94)"/><path class="cls-5" d="M502.23,1489.3c18.29-8.29,59.92-42.4,70.2-53.12,13.71-14.3,27.85-29.34,32.68-48.19,5.15-20.08-13.66-63.56-26.59-52.63s-94.06,92.84-126.76,127.56C464,1471.4,492.44,1488.07,502.23,1489.3Z" transform="translate(-108.89 -161.94)"/><path class="cls-3" d="M825.55,1318.28c-13.37,9.82-37.45,34.39-24,47.23,11.55,9.42,39.3-.93,52.91-10.32,20.24-14,30.4-18.79,46.07-27.33,6.55-3.56,46.52-20.94,45.46-24.94a118.05,118.05,0,0,0-11.13-22.08C903.87,1282.61,848.56,1300.86,825.55,1318.28Z" transform="translate(-108.89 -161.94)"/><path class="cls-5" d="M898.09,1280.75c-18.36,1.81-82.63,28.25-95.25,34.61-16.84,8.48-40.46,13.05-47.07,34.73-5.86,19.2,16.07,46.55,31,40.8s97.14-43.82,137.53-64.6C917.35,1315.12,903.77,1286,898.09,1280.75Z" transform="translate(-108.89 -161.94)"/><path class="cls-3" d="M1022.31,1284.38a8.81,8.81,0,0,1,4.87,2.52c1.63,2,.64,4.53-1.51,6.15-5.19,3.9-35.35,7.13-48.13,8.17,0,0-23.59,6.92-28.64,8.07-20.17,4.57-46.08-4.43-39.42-21.88,4.17-10.93,16.81-12.64,31-10,28.44,5.35,47.47,5.7,76.37,6.18A26.14,26.14,0,0,1,1022.31,1284.38Z" transform="translate(-108.89 -161.94)"/><path class="cls-3" d="M911.53,1283.6c.75-5.3,26.72-18.89,31.78-21.54s8.41,2.1.75,13.83a23.36,23.36,0,0,0-3.82,12.2S910.78,1288.89,911.53,1283.6Z" transform="translate(-108.89 -161.94)"/><path class="cls-4" d="M979.83,1301s21.1-1.17,29.1-2,3-8.37-8.62-10-42.44-2.62-42.44-2.62,36,3.41,43.18,4.42c8.7,1.23,8.7,6.52,5.37,7.36S979.83,1301,979.83,1301Z" transform="translate(-108.89 -161.94)"/><rect class="cls-4" x="512.62" y="1072.05" width="143.06" height="151.55"/><path class="cls-5" d="M787.22,1514.68c-3-24.82,26.94-145.09,24.26-172.26-1.84-18.68-46.91-31.42-46.91-31.42s-64.14,61.74-74.09,61.74-69.71-58.46-69.71-58.46c-53,13.54-44.95,19.77-44.79,63,1.13,17.63,15.84,81.87,24.06,137.44Z" transform="translate(-108.89 -161.94)"/><path class="cls-6" d="M787.17,1520.27c.25-25.26,13.35-97.58,17.78-122.21-2.87,1.61-6.36,13-7.83,23.36-4.69,33.06-6.85,52.8-16.54,58.1-10.32,5.64-170.89,4.42-181.42-2.21-5.88-3.69-11.74-58.25-16.5-78.94-2.31-10-6.69-23.61-6.68-21.13,1.17,18.22,16.4,86.26,24.89,143Z" transform="translate(-108.89 -161.94)"/><path class="cls-7" d="M738.31,1365.88l-11.59-3a90.17,90.17,0,0,1,15.07-6.34c10.46-3.16,24.06-.95,24.06-.95L764.57,1311l-74.81,62.47.72,18S727.9,1373.67,738.31,1365.88Z" transform="translate(-108.89 -161.94)"/><path class="cls-7" d="M689.76,1373.47l-68.59-58.81s.34,27.91-1.43,41c23.31,0,36.28,9.82,36.28,9.82l-19.21,6.42s48.39,13.5,53.67,19.61C690.75,1391.67,689.76,1373.47,689.76,1373.47Z" transform="translate(-108.89 -161.94)"/><rect class="cls-8" x="612.01" y="1223.63" width="23.16" height="5.6"/><rect class="cls-9" x="635.17" y="1223.63" width="23.16" height="5.6"/><rect class="cls-10" x="635.17" y="1223.63" width="4.51" height="5.6"/><rect class="cls-11" x="643.07" y="1223.6" width="4.51" height="5.6"/><rect class="cls-12" x="651.44" y="1223.6" width="4.51" height="5.6"/><rect class="cls-11" x="612.01" y="1229.23" width="23.16" height="5.6"/><rect class="cls-13" x="635.17" y="1229.23" width="9.03" height="5.6"/><rect class="cls-14" x="644.2" y="1229.23" width="9.03" height="5.6"/><rect class="cls-15" x="653.23" y="1229.23" width="5.1" height="5.6"/><path class="cls-16" d="M690.48,1392.6a3.29,3.29,0,1,1,3.29-3.29A3.29,3.29,0,0,1,690.48,1392.6Z" transform="translate(-108.89 -161.94)"/><path class="cls-17" d="M692.69,1389.31a2.21,2.21,0,1,1-2.21-2.2A2.21,2.21,0,0,1,692.69,1389.31Z" transform="translate(-108.89 -161.94)"/><path class="cls-16" d="M690.48,1436.6a3.29,3.29,0,1,1,3.29-3.29A3.29,3.29,0,0,1,690.48,1436.6Z" transform="translate(-108.89 -161.94)"/><path class="cls-17" d="M692.69,1433.31a2.21,2.21,0,1,1-2.21-2.2A2.21,2.21,0,0,1,692.69,1433.31Z" transform="translate(-108.89 -161.94)"/><path class="cls-16" d="M690.48,1480.6a3.29,3.29,0,1,1,3.29-3.29A3.29,3.29,0,0,1,690.48,1480.6Z" transform="translate(-108.89 -161.94)"/><path class="cls-17" d="M692.69,1477.31a2.21,2.21,0,1,1-2.21-2.2A2.21,2.21,0,0,1,692.69,1477.31Z" transform="translate(-108.89 -161.94)"/><path class="cls-16" d="M690.48,1524.6a3.29,3.29,0,1,1,3.29-3.29A3.29,3.29,0,0,1,690.48,1524.6Z" transform="translate(-108.89 -161.94)"/><path class="cls-17" d="M692.69,1521.31a2.21,2.21,0,1,1-2.21-2.2A2.21,2.21,0,0,1,692.69,1521.31Z" transform="translate(-108.89 -161.94)"/><rect class="cls-7" x="587.6" y="1230.66" width="1.5" height="155.66"/><rect class="cls-7" x="575.25" y="1230.66" width="1.5" height="155.66"/><path class="cls-7" d="M757.54,1468H735.17a15.34,15.34,0,0,1-15.33-15.33v-32.7a13.63,13.63,0,0,1-3.22-7.7,36.85,36.85,0,0,1,.62-9.62l.08-.46h58.12l.07.47c0,.26,1,6.42.63,9.61a14.43,14.43,0,0,1-2.41,6.7,10.88,10.88,0,0,1-.86,1.07v32.63A15.35,15.35,0,0,1,757.54,1468Zm-39.29-64.72a33.39,33.39,0,0,0-.55,8.87,12.54,12.54,0,0,0,3.08,7.24l.15.15v33.13a14.25,14.25,0,0,0,14.24,14.24h22.37a14.26,14.26,0,0,0,14.24-14.24v-33.07l.15-.16a8.57,8.57,0,0,0,.91-1.1,13.15,13.15,0,0,0,2.21-6.18,46.49,46.49,0,0,0-.55-8.88Z" transform="translate(-108.89 -161.94)"/><path class="cls-18" d="M746.35,1422.55a3.45,3.45,0,1,1,3.46-3.45A3.45,3.45,0,0,1,746.35,1422.55Z" transform="translate(-108.89 -161.94)"/><path class="cls-17" d="M748.67,1419.1a2.32,2.32,0,1,1-2.32-2.31A2.32,2.32,0,0,1,748.67,1419.1Z" transform="translate(-108.89 -161.94)"/><path class="cls-6" d="M746.35,1426.73l-.13,0-23.64-6.2a.55.55,0,0,1,.27-1.06l23.51,6.17,22.61-5.75a.54.54,0,0,1,.66.4.54.54,0,0,1-.39.66Z" transform="translate(-108.89 -161.94)"/><rect class="cls-6" x="642.95" y="1264.23" width="0.82" height="41.24"/><rect class="cls-6" x="630.93" y="1264.23" width="0.82" height="41.24"/><path class="cls-7" d="M648.76,1468H626.38a15.35,15.35,0,0,1-15.33-15.33v-32.7a13.77,13.77,0,0,1-3.22-7.7,36.41,36.41,0,0,1,.63-9.62l.07-.46h58.12l.07.47c0,.26,1,6.42.63,9.61a14.31,14.31,0,0,1-2.4,6.7,9.69,9.69,0,0,1-.87,1.07v32.63A15.34,15.34,0,0,1,648.76,1468Zm-39.3-64.72a33.39,33.39,0,0,0-.55,8.87,12.6,12.6,0,0,0,3.08,7.24l.15.15v33.13a14.26,14.26,0,0,0,14.24,14.24h22.38A14.25,14.25,0,0,0,663,1452.63v-33.07l.16-.16a9.48,9.48,0,0,0,.91-1.1,13.37,13.37,0,0,0,2.21-6.18,46.41,46.41,0,0,0-.56-8.88Z" transform="translate(-108.89 -161.94)"/><path class="cls-18" d="M637.57,1422.55a3.45,3.45,0,1,1,3.45-3.45A3.45,3.45,0,0,1,637.57,1422.55Z" transform="translate(-108.89 -161.94)"/><path class="cls-17" d="M639.88,1419.1a2.32,2.32,0,1,1-2.31-2.31A2.31,2.31,0,0,1,639.88,1419.1Z" transform="translate(-108.89 -161.94)"/><path class="cls-6" d="M637.57,1426.73l-.14,0-23.64-6.2a.55.55,0,1,1,.28-1.06l23.5,6.17,22.62-5.75a.55.55,0,0,1,.66.4.54.54,0,0,1-.4.66Z" transform="translate(-108.89 -161.94)"/><rect class="cls-6" x="534.17" y="1264.23" width="0.82" height="41.24"/><rect class="cls-6" x="522.15" y="1264.23" width="0.82" height="41.24"/><path class="cls-3" d="M984.56,953.4c6.22-17,23.61-29.41,42.56-33s39,1,55.51,10.15c28.73,15.93,47.51,46.18,48,77.28s-17.41,62-45.65,78.9c-15.12,9.06-33.33,14.26-51.18,12.48s-35.09-11.11-43.66-25.71Z" transform="translate(-108.89 -161.94)"/><path class="cls-4" d="M1064.54,1028.85c-2.17-1.18-1.84-5.3-2.21-10.74s-1.45-12.48-5.11-18.81-9.39-11.09-14.11-14.29-8.58-5.27-8.45-7.6c.07-1.11,1.22-2.15,3.45-2.86a21.77,21.77,0,0,1,9.51-.37,35,35,0,0,1,13.17,5,36.16,36.16,0,0,1,12,12.28,33.29,33.29,0,0,1,4.47,16.08,29.4,29.4,0,0,1-2.72,13,19,19,0,0,1-5.54,7.2C1067.15,1029.08,1065.58,1029.41,1064.54,1028.85Z" transform="translate(-108.89 -161.94)"/><path class="cls-3" d="M383.82,1071.29c-9.54-15.37-29.09-24-48.37-23.65s-38,8.87-52.3,21.21c-24.89,21.43-37.13,54.87-31.27,85.41s29.64,57.16,60.72,68c16.65,5.8,35.53,7.19,52.65,1.82s32.1-18,37.53-34Z" transform="translate(-108.89 -161.94)"/><path class="cls-4" d="M320.82,1161.41c1.89-1.59.73-5.56,0-11s-1.11-12.52,1.19-19.46,6.94-12.77,10.92-16.86,7.33-6.9,6.73-9.16c-.3-1.07-1.63-1.86-4-2.1a21.72,21.72,0,0,0-9.39,1.58,34.82,34.82,0,0,0-11.88,7.57,36.2,36.2,0,0,0-9.26,14.47,33.17,33.17,0,0,0-1.11,16.64,29.3,29.3,0,0,0,5.29,12.17,19.11,19.11,0,0,0,6.89,5.92C318.31,1162.17,319.91,1162.16,320.82,1161.41Z" transform="translate(-108.89 -161.94)"/><path class="cls-3" d="M879.86,1264.71c41.66-31.66,84.21-72.09,114.35-118,26.16-40,39-79.53,48.15-118.8,4.09-36.71,9.64-325.34-88.12-355.52-83.86-25.35-118.87-21.15-282.8-4.07-165.12,15.91-238.19,45.84-321.67,120.79-90.33,81.09-12.73,330.64,6.76,369.61,20.66,40.78,46.27,80.21,85.69,112.13,45.38,36.66,101.17,57.88,151.7,68,50.85,10.08,100.43,7.65,149.82-5.79S838,1296.37,879.86,1264.71Z" transform="translate(-108.89 -161.94)"/><path class="cls-19" d="M954.24,672.35c-83.86-25.35-118.87-21.15-282.8-4.07-165.12,15.91-238.19,45.84-321.67,120.79-58.21,52.26-46.68,174.48-25.9,265.21C421.31,1000.72,486,864.08,518,756.34,581.16,818,689.9,875.6,775.12,893.58c10.54,1.29,190,36.67,267.38,21.44C1037.18,817.64,1017,691.73,954.24,672.35Z" transform="translate(-108.89 -161.94)"/><ellipse class="cls-20" cx="872.16" cy="1039.53" rx="93.53" ry="80.23" transform="translate(-317.65 57.29) rotate(-12.81)"/><ellipse class="cls-20" cx="494.46" cy="1122.69" rx="96.49" ry="80.23" transform="translate(-345.48 -24.37) rotate(-12.81)"/><ellipse class="cls-21" cx="510.2" cy="990.95" rx="71.91" ry="85.27" transform="translate(-310.24 -28.88) rotate(-12.43)"/><ellipse class="cls-22" cx="512.79" cy="995.42" rx="64.1" ry="73.46" transform="translate(-311.14 -28.22) rotate(-12.43)"/><path class="cls-21" d="M487.77,983.16c-1.37-2.07-4.24-2.76-7.73-1.38s-7.4,4.92-10,10.24a25.76,25.76,0,0,0-2.41,15.28c.77,4.22,2.75,6.75,5,7.06s4.4-1.35,6.35-3.7a45.42,45.42,0,0,0,5.52-9,49.5,49.5,0,0,0,3.81-10.17C489,988.28,489.17,985.29,487.77,983.16Z" transform="translate(-108.89 -161.94)"/><ellipse class="cls-21" cx="803.19" cy="926.36" rx="71.91" ry="85.27" transform="translate(-289.47 32.68) rotate(-12.43)"/><ellipse class="cls-22" cx="804.25" cy="931.17" rx="64.1" ry="73.46" transform="translate(-290.48 33.02) rotate(-12.43)"/><path class="cls-21" d="M821.81,909.53c.36-2.45,2.67-4.29,6.42-4.5s8.78,1.35,13.37,5.09A25.75,25.75,0,0,1,850.2,923c1.08,4.16.35,7.28-1.53,8.5s-4.56.63-7.32-.69a45.11,45.11,0,0,1-8.81-5.88,49.58,49.58,0,0,1-7.74-7.62C822.81,914.7,821.42,912.05,821.81,909.53Z" transform="translate(-108.89 -161.94)"/><path class="cls-23" d="M701.59,1025.77a6.21,6.21,0,0,1,3,5.61,13.38,13.38,0,0,1-.21,2.26,15.38,15.38,0,0,1-.77,2.47,18.2,18.2,0,0,1-3.34,5.24,21.6,21.6,0,0,1-2.61,2.52,28.52,28.52,0,0,1-3.24,2.26c-19.66,11.28-44.4-3.77-43.44-26.39a29.49,29.49,0,0,1,.51-3.92,22.88,22.88,0,0,1,1-3.48,18.31,18.31,0,0,1,3.13-5.38,16.48,16.48,0,0,1,1.83-1.82,13.77,13.77,0,0,1,1.9-1.23c7.34-3.79,10.17,5.49,13.56,10.05.25.41.63.85.9,1.25s.64.8.92,1.18a20.44,20.44,0,0,0,3.8,3.66c.58.39,1,.66,1.41.92s.86.49,1.46.83a20.57,20.57,0,0,0,5,1.68c.47.07,1,.2,1.48.28s1,.19,1.52.22C693.37,1024.69,697.94,1023.92,701.59,1025.77Z" transform="translate(-108.89 -161.94)"/><path class="cls-24" d="M740.47,821.56a132,132,0,0,1,91.3,8.26c5.31,2.56,10.35-5.21,5-7.81a141.65,141.65,0,0,0-98.27-9.49c-5.74,1.54-3.77,10.59,2,9Z" transform="translate(-108.89 -161.94)"/><path class="cls-24" d="M446.6,910.16A132,132,0,0,1,531,874.41c5.89-.24,6.67-9.47.72-9.23a141.65,141.65,0,0,0-91.15,38c-4.33,4.07,1.67,11.13,6,7Z" transform="translate(-108.89 -161.94)"/><path class="cls-21" d="M520.09,1085.24s161.75-3.26,299.7-71.64c0,0,28.73,152.77-94.6,200.88C581.13,1270.67,520.09,1085.24,520.09,1085.24Z" transform="translate(-108.89 -161.94)"/><path class="cls-25" d="M950.89,598.74a363.82,363.82,0,0,0-35.48-29.08,307.67,307.67,0,0,0-54.51-31.19c-64.5-71.89-176.13-85.91-273.81-68C458.44,494,363.08,566.28,281.2,664.33c-61.13,73.2-76,128.12-89.68,241.66-5.51,158,89.7,322.46,89.7,322.46S404.61,929.63,493,701.47c0,0,169.81,166.49,531.87,146.76l22.71,102.13s14.61-146-2.73-204.1C1026.8,685.61,997.71,642.23,950.89,598.74Z" transform="translate(-108.89 -161.94)"/><path class="cls-22" d="M937,517.51a5.76,5.76,0,0,1-6,.26c-28.54-15.66-66.81-13.15-93.09,6.09a5.76,5.76,0,1,1-6.8-9.29c30.21-22.14,72.58-24.91,105.43-6.9a5.78,5.78,0,0,1,2.28,7.82A5.84,5.84,0,0,1,937,517.51Z" transform="translate(-108.89 -161.94)"/><path class="cls-22" d="M810.87,509.31a5.75,5.75,0,0,1-8.82-6c6.07-29.06,28-54.36,56-64.46a5.76,5.76,0,0,1,3.91,10.83c-24.26,8.77-43.34,30.74-48.61,56A5.76,5.76,0,0,1,810.87,509.31Z" transform="translate(-108.89 -161.94)"/><path class="cls-22" d="M485.88,692.72a587.23,587.23,0,0,0,76.27,56.65,679.35,679.35,0,0,0,86.84,46,726.43,726.43,0,0,0,94.38,34.15,680.38,680.38,0,0,0,97.24,20.37A592.81,592.81,0,0,0,938.37,855q5.86-.19,11.73-.52c6.18-.34,5.62-9.92-.55-9.58a567.28,567.28,0,0,1-95.31-3,670.06,670.06,0,0,1-97.08-18.53,707.28,707.28,0,0,1-93.27-32,689.6,689.6,0,0,1-87.1-44.26,583.78,583.78,0,0,1-76.25-54.45q-4.21-3.59-8.36-7.24c-4.63-4.08-10.94,3.15-6.3,7.25Z" transform="translate(-108.89 -161.94)"/><path class="cls-22" d="M485,691.75c21.62,30,48.51,56.12,78.15,78.19a488.09,488.09,0,0,0,103.53,58.47,561,561,0,0,0,118.77,34.75,539.74,539.74,0,0,0,125.7,7.52c41.63-2.49,83.11-10.17,122.54-23.83q7.05-2.45,14-5.16a4.9,4.9,0,0,0,3.06-6.05,4.85,4.85,0,0,0-6.06-3.06A439.17,439.17,0,0,1,925.7,860a521.36,521.36,0,0,1-123.37-3.79,551.91,551.91,0,0,1-118.28-31.11c-36.3-14.06-71.52-32.13-103.3-54.26a406,406,0,0,1-44-35.29,329.7,329.7,0,0,1-36-38.81q-4-5.06-7.71-10.27c-3.6-5-11.61.29-8,5.31Z" transform="translate(-108.89 -161.94)"/><path class="cls-22" d="M488,700.47A864.75,864.75,0,0,1,457.4,793a724.42,724.42,0,0,1-36,77.06q-9.47,17.46-19.86,34.39c-6.75,11-13.67,21.72-20.6,32-14.49,21.42-29.81,42.26-45.42,62.87-16.35,21.59-33,43-49.41,64.49l-6.43,8.45a5.23,5.23,0,0,0,.51,7.2c2,1.72,5.52,1.7,7.19-.51,16.7-22,33.67-43.82,50.42-65.8,15.76-20.7,31.31-41.57,46.06-63,15-21.74,29.14-44,42-67.07a722.18,722.18,0,0,0,36.88-76.12,856.69,856.69,0,0,0,31.78-91.8q1.8-6.32,3.53-12.64c.73-2.66-1.42-5.49-4-6a5.21,5.21,0,0,0-6,4Z" transform="translate(-108.89 -161.94)"/><path class="cls-22" d="M531,677.34a536.55,536.55,0,0,0,114.18,54A542.11,542.11,0,0,0,764.27,756.8a612.25,612.25,0,0,0,122.57-.37,716.64,716.64,0,0,0,122.72-23.78c11.21-3.18,22.61-6.28,33.43-10.67,11.48-4.65,22.53-11.29,29.6-21.74,6.21-9.16,9.36-20.75,5.69-31.54-3-8.89-10.37-16.3-19.66-18.35a24.67,24.67,0,0,0-13.89,1.13c-6.13,2.32-3,12,3.19,9.7,7.16-2.71,13.95-.14,18.07,5.66a19.29,19.29,0,0,1,3.64,10.37,26.36,26.36,0,0,1-3.1,13.41c-5,9.85-14.41,16.37-24.35,20.67-10.48,4.55-21.65,7.6-32.6,10.75a705,705,0,0,1-117.83,23.62,604.33,604.33,0,0,1-117.46,1.87,545.09,545.09,0,0,1-115.62-22.44,523.8,523.8,0,0,1-110-48.92q-6.63-3.9-13.14-8c-2.33-1.47-5.7.05-6.82,2.34-1.32,2.68,0,5.35,2.34,6.82Z" transform="translate(-108.89 -161.94)"/><path class="cls-22" d="M437.2,648.74A401.78,401.78,0,0,1,421.9,753a427.6,427.6,0,0,1-41.13,97.16,428.84,428.84,0,0,1-63.27,84,403.22,403.22,0,0,1-82.07,65.41c-32.58,19.58-69.4,34.94-107.79,36.64q-7,.3-14,0c-2.75-.13-4.94,2.84-4.8,5.39.18,3,2.63,4.66,5.39,4.79,40,1.91,79.57-12.08,114.21-31a405.84,405.84,0,0,0,87-64.7A437.82,437.82,0,0,0,383,866.21a439.8,439.8,0,0,0,45-98.32,414.17,414.17,0,0,0,19-106.3q.3-6.72.38-13.44c0-2.76-2.78-4.95-5.39-4.8a5.2,5.2,0,0,0-4.8,5.39Z" transform="translate(-108.89 -161.94)"/><path class="cls-22" d="M997.15,656a287.16,287.16,0,0,1,39.33,78.31c8.21,25.66,12.42,52.34,13.55,79.23q.21,4.88.28,9.76a3.58,3.58,0,0,0,3.34,3.53c.91.05,1.81.08,2.71.1a3.56,3.56,0,0,0,3.61-3.62v0c-.4-27.85-3.92-55.7-11.46-82.54a293.62,293.62,0,0,0-36.67-80.32,334.5,334.5,0,0,0-62.6-70.92A373.57,373.57,0,0,0,873,538.94q-5-2.48-10-4.81c-5.64-2.62-9.92,6-4.25,8.68a366,366,0,0,1,75.51,46.78A330.22,330.22,0,0,1,997.15,656Z" transform="translate(-108.89 -161.94)"/><path class="cls-22" d="M781.52,479.24C719.14,457.92,652,455.62,587.41,467.69c-66.34,12.41-129.82,39-186.32,75.74-56.28,36.62-106.71,83.77-143.17,140.39C221,741.16,198.37,807.64,191.5,875.43c-6.82,67.23,1.5,136.19,26.52,199.11q4.6,11.58,9.95,22.85c2.59,5.47,11.65,2.55,9-3-28.38-60-40.77-126.56-37.94-192.74a431.94,431.94,0,0,1,53.77-191c32.31-58,79.21-106.66,132.93-145.27S500.3,498,564.54,482.28c62.22-15.21,128.21-17.5,190.46-1.2,7.52,2,15,4.19,22.34,6.71,5.71,1.95,10-6.57,4.18-8.55Z" transform="translate(-108.89 -161.94)"/><path class="cls-30" d="M548.28,1639.19s-10.61-7.81-23.52-7.81c-20.94,0-19.7,42.46-17.62,55.85,3.23,20.79,17.15,21.1,26.16,13.91C543.44,1693,555.32,1646.23,548.28,1639.19Z" transform="translate(-108.89 -161.94)"/><path class="cls-3" d="M670.32,1643.32c5.31,20.79-9.85,42.85-29.73,50.94s-42.68,4.87-62.92-2.29c-17.41-6.15-33.72-15-50.75-22.2,0-14.29,5-22.18,15.59-31.76,0,0,32.34,7,46.46,6.08,14.29-.94,25.28-13,29.39-26.73Z" transform="translate(-108.89 -161.94)"/><path class="cls-4" d="M642.87,1665.54c-21.56-14.87-46.27-15.89-69.33-22.25a92.48,92.48,0,0,0,15.43.8c14.29-.94,25.28-13,29.39-26.73l52,26c5.31,20.79-9.85,42.85-29.73,50.94l-.25.1.77-.74C649,1685.72,653.4,1672.56,642.87,1665.54Z" transform="translate(-108.89 -161.94)"/><path class="cls-3" d="M548.28,1639.19s-14.87-6.49-21.36,0-13.72,37.31-3.53,41.38,17.67-11.12,17.67-11.12Z" transform="translate(-108.89 -161.94)"/><path class="cls-30" d="M694.54,1811.76s-5.21,3.38-6.45,11.42,2.32,13.9,11.7,29.2c8.76,14.28,41.22,21.37,44.29,2.9s-19.58-41.15-26.83-44.17C709,1807.67,694.54,1811.76,694.54,1811.76Z" transform="translate(-108.89 -161.94)"/><path class="cls-3" d="M756.76,1618.58c-9.09,65.18-21.82,129.66-39.51,192.53a50.86,50.86,0,0,1,8.46,11.22c10.37,18.51-33.16,27.8-34,3.34-2.6-76.07-6.61-151.61-19-227,0,0,45.69-19.44,60.57-20.22S759.5,1598.92,756.76,1618.58Z" transform="translate(-108.89 -161.94)"/><path class="cls-4" d="M733.24,1578.41c14.88-.78,26.26,20.51,23.52,40.17q-6.6,47.36-15.93,94.1c-17.52,4.74-36.55,5-54.76,1.93-2.89-38.72-7-77.37-13.4-116C672.67,1598.63,718.36,1579.19,733.24,1578.41Z" transform="translate(-108.89 -161.94)"/><path class="cls-5" d="M783.27,1497.24c26.53,60.39,9.32,129.81-5,194.43-30.81,15.51-43.88,10.73-76.06-1.35s-94.94-48.42-117.72-48.42A838.52,838.52,0,0,1,597,1500.85Z" transform="translate(-108.89 -161.94)"/><path class="cls-6" d="M597,1500.85l186.31-3.61c26.53,60.39,9.32,129.81-5,194.43a117.15,117.15,0,0,1-15.64,6.65c8-42.14,24.63-151.9,12.75-150.06-76.3,11.79-91,14-151.58,5.81-27.77-1.82-27.34,33.36-27.34,40.65,0,22.21-.48,34.29-.3,49.14a46.15,46.15,0,0,0-11.67-2A838.52,838.52,0,0,1,597,1500.85Z" transform="translate(-108.89 -161.94)"/><path class="cls-7" d="M790.13,1511.13c-74.11,6.28-123.13,3.76-197.23-2.52l1.75-23.07c71,6,197.78,0,197.78,0Z" transform="translate(-108.89 -161.94)"/><rect class="cls-29" x="555.1" y="1324.83" width="55.17" height="29.22"/></g><g id="laptop"><g id="laptop-2" data-name="laptop"><path class="cls-31" d="M1554.29,1813.91c-85.31,0-109.28-45.56-109.28-85.88l-7.48-691.18A86.06,86.06,0,0,1,1523.4,951l1081.69-.05a86,86,0,0,1,85.88,85.88L2685.83,1728c0,47.35-59.5,85.88-104.15,85.88l-1027.39.05h0Z" transform="translate(-108.89 -161.94)"/><path class="cls-32" d="M2605.11,1789.91l-1081.68,0c-43.66,0-61.94-27.86-61.94-61.93l0-691.18a62.12,62.12,0,0,1,61.93-61.94l1081.69,0a62.11,62.11,0,0,1,61.93,61.93l0,691.19A62.11,62.11,0,0,1,2605.11,1789.91Z" transform="translate(-108.89 -161.94)"/><path class="cls-33" d="M1523.42,1757.89a30,30,0,0,1-29.85-29.86l0-691.19a30,30,0,0,1,29.86-29.86l1081.69-.05a29.89,29.89,0,0,1,29.86,29.86l0,691.19a30,30,0,0,1-29.86,29.86Z" transform="translate(-108.89 -161.94)"/><path class="cls-34" d="M2599.13,1526.49c-92-54.28-195-86.92-300.23-103-104.17-16-211.14-17.74-316.05-9-107.4,8.93-214,29.45-316.7,62.3a1204.86,1204.86,0,0,0-172.59,69.83V1728a30,30,0,0,0,29.85,29.86l1081.69-.05A30,30,0,0,0,2635,1728V1549.2Q2617.41,1537.32,2599.13,1526.49Z" transform="translate(-108.89 -161.94)"/><path class="cls-31" d="M1371.68,1829.88H2756.83a23.9,23.9,0,0,0,23.83-23.84h0a23.9,23.9,0,0,0-23.83-23.84H1371.68a23.91,23.91,0,0,0-23.84,23.84h0A23.91,23.91,0,0,0,1371.68,1829.88Z" transform="translate(-108.89 -161.94)"/><path class="cls-35" d="M2291.14,1791H1837.37a8.83,8.83,0,0,1-8.83-8.83H2300A8.83,8.83,0,0,1,2291.14,1791Z" transform="translate(-108.89 -161.94)"/></g><g id="text"><rect class="cls-21" x="1802.73" y="1207.13" width="342.03" height="62.06" rx="31.03"/><path class="cls-21" d="M2114.53,1538.06v-.65h125v.65Z" transform="translate(-108.89 -161.94)"/><path class="cls-21" d="M2113.68,1535.18V1526H2119v.9h-4.32v3.29h4v.9h-4v4.06Z" transform="translate(-108.89 -161.94)"/><path class="cls-21" d="M2127.27,1533.51a3.27,3.27,0,0,1-1.26,1.39,3.62,3.62,0,0,1-1.9.48,3.69,3.69,0,0,1-1.91-.48,3.32,3.32,0,0,1-1.25-1.39,5.06,5.06,0,0,1-.44-2.19v-1.42a5,5,0,0,1,.44-2.19,3.26,3.26,0,0,1,1.25-1.39,3.69,3.69,0,0,1,1.91-.48,3.62,3.62,0,0,1,1.9.48,3.22,3.22,0,0,1,1.26,1.39,5,5,0,0,1,.44,2.19v1.42A5.06,5.06,0,0,1,2127.27,1533.51Zm-.89-5.37a2.4,2.4,0,0,0-.93-1.05,2.51,2.51,0,0,0-1.34-.36,2.57,2.57,0,0,0-1.35.36,2.4,2.4,0,0,0-.93,1.05,3.93,3.93,0,0,0-.34,1.75v1.43a4,4,0,0,0,.34,1.75,2.49,2.49,0,0,0,.93,1.06,2.57,2.57,0,0,0,1.35.35,2.38,2.38,0,0,0,2.27-1.41,4,4,0,0,0,.34-1.75v-1.43A3.93,3.93,0,0,0,2126.38,1528.14Z" transform="translate(-108.89 -161.94)"/><path class="cls-21" d="M2134.72,1526.36a2.37,2.37,0,0,1,1,.93,2.7,2.7,0,0,1,.35,1.42,3,3,0,0,1-.21,1.13,2.38,2.38,0,0,1-.6.86,2.57,2.57,0,0,1-.94.54l1.91,3.94h-1.13l-1.75-3.73H2131v3.73h-1V1526h3.21A3.25,3.25,0,0,1,2134.72,1526.36Zm-1.69,4.19a2.25,2.25,0,0,0,1.51-.45,1.67,1.67,0,0,0,.53-1.32,1.78,1.78,0,0,0-.53-1.37,2.09,2.09,0,0,0-1.47-.49H2131v3.63Z" transform="translate(-108.89 -161.94)"/><path class="cls-21" d="M2143.9,1528.45a2.3,2.3,0,0,0-.29-.7,2.07,2.07,0,0,0-.48-.54,2.21,2.21,0,0,0-.68-.36,2.82,2.82,0,0,0-.85-.12,2.29,2.29,0,0,0-1.9.85,3.62,3.62,0,0,0-.69,2.34v1.32a4.38,4.38,0,0,0,.31,1.75,2.5,2.5,0,0,0,.9,1.11,2.53,2.53,0,0,0,1.42.38,3,3,0,0,0,1.3-.26,1.88,1.88,0,0,0,.8-.75,2.23,2.23,0,0,0,.27-1.11v-1h-2.49v-.89H2145v1.88a3.23,3.23,0,0,1-.23,1.22,2.82,2.82,0,0,1-.65,1,3,3,0,0,1-1,.62,4.33,4.33,0,0,1-1.4.22,4.09,4.09,0,0,1-1.53-.28,3.12,3.12,0,0,1-1.14-.81,3.59,3.59,0,0,1-.71-1.31,5.81,5.81,0,0,1-.24-1.74v-1.32a5.15,5.15,0,0,1,.43-2.17,3.22,3.22,0,0,1,1.24-1.41,3.52,3.52,0,0,1,1.92-.5,3.69,3.69,0,0,1,1.23.19,3.26,3.26,0,0,1,1,.54,2.7,2.7,0,0,1,.69.82,3.09,3.09,0,0,1,.36,1.06Z" transform="translate(-108.89 -161.94)"/><path class="cls-21" d="M2153.63,1533.51a3.19,3.19,0,0,1-1.25,1.39,4,4,0,0,1-3.81,0,3.25,3.25,0,0,1-1.25-1.39,5.06,5.06,0,0,1-.44-2.19v-1.42a5,5,0,0,1,.44-2.19,3.2,3.2,0,0,1,1.25-1.39,4,4,0,0,1,3.81,0,3.14,3.14,0,0,1,1.25,1.39,4.86,4.86,0,0,1,.45,2.19v1.42A4.92,4.92,0,0,1,2153.63,1533.51Zm-.88-5.37a2.4,2.4,0,0,0-.93-1.05,2.69,2.69,0,0,0-2.69,0,2.4,2.4,0,0,0-.93,1.05,3.93,3.93,0,0,0-.34,1.75v1.43a4,4,0,0,0,.34,1.75,2.49,2.49,0,0,0,.93,1.06,2.76,2.76,0,0,0,2.69,0,2.49,2.49,0,0,0,.93-1.06,4,4,0,0,0,.34-1.75v-1.43A3.93,3.93,0,0,0,2152.75,1528.14Z" transform="translate(-108.89 -161.94)"/><path class="cls-21" d="M2157.85,1535.18v-8.26H2155V1526h6.68v.89h-2.86v8.26Z" transform="translate(-108.89 -161.94)"/><path class="cls-21" d="M2171.18,1526.38a2.42,2.42,0,0,1,1,1,3.16,3.16,0,0,1,0,2.93,2.36,2.36,0,0,1-1,1,3.19,3.19,0,0,1-1.52.35h-2.23v3.56h-1V1526h3.23A3.18,3.18,0,0,1,2171.18,1526.38Zm-.15,1a1.9,1.9,0,0,0-1.4-.5h-2.21v3.81h2.21a2.18,2.18,0,0,0,1-.23,1.57,1.57,0,0,0,.65-.65,2.14,2.14,0,0,0,.22-1A1.94,1.94,0,0,0,2171,1527.42Z" transform="translate(-108.89 -161.94)"/><path class="cls-21" d="M2173.16,1535.18l3.29-9.15h1l3.28,9.15h-1l-1-2.86h-3.52l-1,2.86Zm3.74-7.93-1.46,4.26h3l-1.47-4.26Z" transform="translate(-108.89 -161.94)"/><path class="cls-21" d="M2182.71,1532.91a1.57,1.57,0,0,0,.25.63,1.72,1.72,0,0,0,.48.49,2.23,2.23,0,0,0,.71.34,3.58,3.58,0,0,0,.9.11,3,3,0,0,0,1.18-.21,1.79,1.79,0,0,0,.77-.6,1.55,1.55,0,0,0,.27-.91,1.28,1.28,0,0,0-.4-1,2.78,2.78,0,0,0-1.21-.58l-1.57-.42a3.64,3.64,0,0,1-1.16-.51,2.25,2.25,0,0,1-.71-.8,2.39,2.39,0,0,1,.15-2.39,2.63,2.63,0,0,1,1.1-.92,3.55,3.55,0,0,1,1.6-.34,3.71,3.71,0,0,1,1.54.3,2.69,2.69,0,0,1,1.07.82,2.32,2.32,0,0,1,.47,1.22h-1a1.61,1.61,0,0,0-.35-.76,1.76,1.76,0,0,0-.71-.5,2.74,2.74,0,0,0-1-.18,2.33,2.33,0,0,0-1.51.46,1.45,1.45,0,0,0-.57,1.2,1.22,1.22,0,0,0,.36.9,2.11,2.11,0,0,0,1,.53l1.54.42a5,5,0,0,1,1.35.55,2.2,2.2,0,0,1,.78.8,2.34,2.34,0,0,1,.26,1.12,2.46,2.46,0,0,1-.42,1.43,2.64,2.64,0,0,1-1.16.93,4.35,4.35,0,0,1-1.76.33,4.28,4.28,0,0,1-1.29-.18,3.32,3.32,0,0,1-1-.52,2.72,2.72,0,0,1-.66-.78,2.53,2.53,0,0,1-.29-1Z" transform="translate(-108.89 -161.94)"/><path class="cls-21" d="M2190.75,1532.91a1.72,1.72,0,0,0,.24.63,1.9,1.9,0,0,0,.49.49,2.28,2.28,0,0,0,.7.34,3.58,3.58,0,0,0,.9.11,3,3,0,0,0,1.18-.21,1.73,1.73,0,0,0,.77-.6,1.55,1.55,0,0,0,.27-.91,1.31,1.31,0,0,0-.39-1,2.83,2.83,0,0,0-1.22-.58l-1.57-.42a3.58,3.58,0,0,1-1.15-.51,2.25,2.25,0,0,1-.71-.8,2.18,2.18,0,0,1-.25-1.06,2.25,2.25,0,0,1,.4-1.33,2.67,2.67,0,0,1,1.09-.92,3.63,3.63,0,0,1,1.61-.34,3.74,3.74,0,0,1,1.54.3,2.76,2.76,0,0,1,1.07.82,2.41,2.41,0,0,1,.47,1.22h-1a1.73,1.73,0,0,0-.36-.76,1.69,1.69,0,0,0-.71-.5,2.66,2.66,0,0,0-1-.18,2.31,2.31,0,0,0-1.51.46,1.45,1.45,0,0,0-.57,1.2,1.22,1.22,0,0,0,.36.9,2.07,2.07,0,0,0,1,.53l1.53.42a5.26,5.26,0,0,1,1.36.55,2.2,2.2,0,0,1,.78.8,2.34,2.34,0,0,1,.25,1.12,2.53,2.53,0,0,1-.41,1.43,2.7,2.7,0,0,1-1.16.93,4.4,4.4,0,0,1-1.77.33,4.26,4.26,0,0,1-1.28-.18,3.32,3.32,0,0,1-1-.52,2.57,2.57,0,0,1-.66-.78,2.37,2.37,0,0,1-.29-1Z" transform="translate(-108.89 -161.94)"/><path class="cls-21" d="M2200,1535.18l-2.53-9.15h1.16l1.81,7.61h.06l1.92-7.61h1l1.93,7.61h0l1.81-7.61h1.16l-2.53,9.15h-.88l-2-7.52h0l-2,7.52Z" transform="translate(-108.89 -161.94)"/><path class="cls-21" d="M2216.34,1533.51a3.25,3.25,0,0,1-1.25,1.39,3.69,3.69,0,0,1-1.91.48,3.65,3.65,0,0,1-1.9-.48,3.19,3.19,0,0,1-1.25-1.39,4.92,4.92,0,0,1-.45-2.19v-1.42a4.86,4.86,0,0,1,.45-2.19,3.14,3.14,0,0,1,1.25-1.39,3.65,3.65,0,0,1,1.9-.48,3.69,3.69,0,0,1,1.91.48,3.2,3.2,0,0,1,1.25,1.39,5,5,0,0,1,.44,2.19v1.42A5.06,5.06,0,0,1,2216.34,1533.51Zm-.89-5.37a2.4,2.4,0,0,0-.93-1.05,2.67,2.67,0,0,0-2.68,0,2.36,2.36,0,0,0-.94,1.05,4.07,4.07,0,0,0-.34,1.75v1.43a4.1,4.1,0,0,0,.34,1.75,2.44,2.44,0,0,0,.94,1.06,2.5,2.5,0,0,0,3.61-1.06,4,4,0,0,0,.35-1.75v-1.43A3.92,3.92,0,0,0,2215.45,1528.14Z" transform="translate(-108.89 -161.94)"/><path class="cls-21" d="M2223.8,1526.36a2.34,2.34,0,0,1,1,.93,2.7,2.7,0,0,1,.36,1.42,2.78,2.78,0,0,1-.22,1.13,2.38,2.38,0,0,1-.6.86,2.53,2.53,0,0,1-.93.54l1.91,3.94h-1.14l-1.75-3.73h-2.37v3.73h-1V1526h3.22A3.31,3.31,0,0,1,2223.8,1526.36Zm-1.7,4.19a2.25,2.25,0,0,0,1.51-.45,1.67,1.67,0,0,0,.53-1.32,1.78,1.78,0,0,0-.52-1.37,2.1,2.1,0,0,0-1.47-.49h-2.1v3.63Z" transform="translate(-108.89 -161.94)"/><path class="cls-21" d="M2230.3,1526a4.33,4.33,0,0,1,2.23.53,3.17,3.17,0,0,1,1.34,1.54,6.19,6.19,0,0,1,.45,2.51,6.41,6.41,0,0,1-.44,2.51,3.24,3.24,0,0,1-1.35,1.54,4.33,4.33,0,0,1-2.23.52h-2.8V1526Zm-1.81,8.25h1.78a3.42,3.42,0,0,0,1.34-.23,2.29,2.29,0,0,0,.95-.7,3,3,0,0,0,.56-1.15,6.22,6.22,0,0,0,.18-1.59,5.52,5.52,0,0,0-.33-2,2.51,2.51,0,0,0-1-1.23,3.17,3.17,0,0,0-1.7-.42h-1.78Z" transform="translate(-108.89 -161.94)"/><path class="cls-21" d="M2236,1527.16a2,2,0,0,1,.63-.79,2.72,2.72,0,0,1,.87-.43,4,4,0,0,1,1-.13,3.18,3.18,0,0,1,1.26.25,2.24,2.24,0,0,1,1,.74,2,2,0,0,1,.38,1.26,2.06,2.06,0,0,1-.19.93,2.2,2.2,0,0,1-.48.68q-.3.3-.63.57a8.05,8.05,0,0,0-.62.55,1.38,1.38,0,0,0-.33.48,1.91,1.91,0,0,0-.1.64v.44h-1v-.62a1.86,1.86,0,0,1,.18-.81,2.29,2.29,0,0,1,.48-.64q.28-.29.63-.57a4.89,4.89,0,0,0,.76-.73,1.29,1.29,0,0,0,.28-.88,1.33,1.33,0,0,0-.24-.82,1.32,1.32,0,0,0-.61-.48,2.43,2.43,0,0,0-.82-.14,2,2,0,0,0-.76.13,1.32,1.32,0,0,0-.54.38,1.64,1.64,0,0,0-.32.54,2.59,2.59,0,0,0-.11.64h-.93A2.69,2.69,0,0,1,2236,1527.16Zm1.7,6.68a.86.86,0,0,1,1.21,0,.83.83,0,0,1,.25.62.78.78,0,0,1-.25.59.86.86,0,0,1-1.21,0,.81.81,0,0,1-.24-.59A.86.86,0,0,1,2237.73,1533.84Z" transform="translate(-108.89 -161.94)"/><rect class="cls-21" x="1802.73" y="1292.4" width="342.03" height="62.06" rx="31.03"/><path class="cls-36" d="M1979.4,1407.11a4.87,4.87,0,0,0,.72,1.83,5.46,5.46,0,0,0,1.43,1.45,6.89,6.89,0,0,0,2.06,1,9.44,9.44,0,0,0,2.64.34,8.66,8.66,0,0,0,3.46-.63,5.21,5.21,0,0,0,2.25-1.76,4.5,4.5,0,0,0,.8-2.66,3.83,3.83,0,0,0-1.15-2.9,8.25,8.25,0,0,0-3.57-1.71l-4.6-1.24a10.57,10.57,0,0,1-3.39-1.49A6.47,6.47,0,0,1,1978,1397a6.63,6.63,0,0,1-.72-3.11,6.82,6.82,0,0,1,1.16-3.91,8,8,0,0,1,3.22-2.7,10.86,10.86,0,0,1,4.71-1,11,11,0,0,1,4.51.87,8,8,0,0,1,3.14,2.42,6.89,6.89,0,0,1,1.37,3.55h-3a4.7,4.7,0,0,0-1-2.21,5.16,5.16,0,0,0-2.08-1.48,8.12,8.12,0,0,0-3-.52,6.9,6.9,0,0,0-4.43,1.34,4.3,4.3,0,0,0-1.67,3.52,3.63,3.63,0,0,0,1,2.66,6.54,6.54,0,0,0,3,1.55l4.51,1.24a14.12,14.12,0,0,1,4,1.6,6.49,6.49,0,0,1,2.29,2.35,6.75,6.75,0,0,1,.75,3.27,7.23,7.23,0,0,1-1.21,4.19,7.78,7.78,0,0,1-3.41,2.73,12.9,12.9,0,0,1-5.18,1,12.13,12.13,0,0,1-3.75-.54,8.69,8.69,0,0,1-2.9-1.51,7.71,7.71,0,0,1-2-2.29,7.16,7.16,0,0,1-.86-2.88Z" transform="translate(-108.89 -161.94)"/><path class="cls-36" d="M2007.41,1413.76v-24.22h-8.34v-2.61h19.59v2.61h-8.38v24.22Z" transform="translate(-108.89 -161.94)"/><path class="cls-36" d="M2038.3,1409.75a7.18,7.18,0,0,0,1.9-5.24v-17.58h2.87v17.58a10.44,10.44,0,0,1-1.23,5.15,8.54,8.54,0,0,1-3.47,3.45,12,12,0,0,1-10.53,0,8.59,8.59,0,0,1-3.49-3.45,10.33,10.33,0,0,1-1.24-5.15v-17.58H2026v17.58a7.18,7.18,0,0,0,1.9,5.24,7.88,7.88,0,0,0,10.4,0Z" transform="translate(-108.89 -161.94)"/><path class="cls-36" d="M2058.73,1386.93a12.77,12.77,0,0,1,6.53,1.53,9.52,9.52,0,0,1,3.93,4.53,18.16,18.16,0,0,1,1.32,7.35,18.43,18.43,0,0,1-1.31,7.36,9.44,9.44,0,0,1-3.93,4.52,12.81,12.81,0,0,1-6.54,1.54h-8.22v-26.83Zm-5.33,24.19h5.23a10.42,10.42,0,0,0,3.93-.68,6.76,6.76,0,0,0,2.78-2A9.19,9.19,0,0,0,2067,1405a18.08,18.08,0,0,0,.54-4.68,16.14,16.14,0,0,0-1-6,7.39,7.39,0,0,0-2.95-3.63,9.33,9.33,0,0,0-5-1.23h-5.23Z" transform="translate(-108.89 -161.94)"/><path class="cls-36" d="M2092.66,1413.76h-15.82v-26.83h15.82v2.61h-12.95v9.19H2092v2.59h-12.24v9.8h12.95Z" transform="translate(-108.89 -161.94)"/><path class="cls-36" d="M2099.31,1413.76v-26.83h2.89l14,21.87h.14v-21.87h2.89v26.83h-2.89l-14-21.88h-.13v21.88Z" transform="translate(-108.89 -161.94)"/><path class="cls-36" d="M2132.35,1413.76v-24.22H2124v-2.61h19.59v2.61h-8.38v24.22Z" transform="translate(-108.89 -161.94)"/><path class="cls-36" d="M2157.56,1413.76v-26.83h2.9v26.83Z" transform="translate(-108.89 -161.94)"/><path class="cls-36" d="M2176.47,1386.93a12.77,12.77,0,0,1,6.53,1.53,9.52,9.52,0,0,1,3.93,4.53,18.16,18.16,0,0,1,1.32,7.35,18.43,18.43,0,0,1-1.31,7.36,9.44,9.44,0,0,1-3.93,4.52,12.81,12.81,0,0,1-6.54,1.54h-8.22v-26.83Zm-5.33,24.19h5.23a10.42,10.42,0,0,0,3.93-.68,6.67,6.67,0,0,0,2.77-2,9.05,9.05,0,0,0,1.65-3.38,18.08,18.08,0,0,0,.54-4.68,15.92,15.92,0,0,0-1-6,7.29,7.29,0,0,0-2.95-3.63,9.27,9.27,0,0,0-5-1.23h-5.23Z" transform="translate(-108.89 -161.94)"/><path class="cls-36" d="M1997.71,1471a7.3,7.3,0,0,1,3,2.87,9.33,9.33,0,0,1,0,8.6,7.28,7.28,0,0,1-3,2.87,9.21,9.21,0,0,1-4.46,1h-6.55v10.44h-2.89v-26.83h9.46A9.09,9.09,0,0,1,1997.71,1471Zm-.43,3a5.55,5.55,0,0,0-4.1-1.46h-6.49v11.15h6.49a6.23,6.23,0,0,0,3-.67,4.49,4.49,0,0,0,1.9-1.91,6.26,6.26,0,0,0,.66-3A5.56,5.56,0,0,0,1997.28,1474Z" transform="translate(-108.89 -161.94)"/><path class="cls-36" d="M2003.53,1496.77l9.63-26.83H2016l9.62,26.83h-3l-2.86-8.38h-10.32l-2.85,8.38Zm11-23.27-4.29,12.51h8.7l-4.31-12.51Z" transform="translate(-108.89 -161.94)"/><path class="cls-36" d="M2031.54,1490.12a4.7,4.7,0,0,0,.71,1.83,5.5,5.5,0,0,0,1.43,1.46,6.88,6.88,0,0,0,2.06,1,9.42,9.42,0,0,0,2.64.35,8.66,8.66,0,0,0,3.46-.63,5.21,5.21,0,0,0,2.25-1.76,4.48,4.48,0,0,0,.8-2.67,3.76,3.76,0,0,0-1.15-2.89,8.25,8.25,0,0,0-3.57-1.71l-4.6-1.24a10.58,10.58,0,0,1-3.39-1.5,6.38,6.38,0,0,1-2.81-5.44,6.85,6.85,0,0,1,1.16-3.92,7.92,7.92,0,0,1,3.22-2.69,10.72,10.72,0,0,1,4.71-1,11,11,0,0,1,4.51.88,7.9,7.9,0,0,1,3.14,2.42,6.78,6.78,0,0,1,1.38,3.55h-3a4.67,4.67,0,0,0-1-2.21,5.16,5.16,0,0,0-2.08-1.48,7.92,7.92,0,0,0-3-.52,6.9,6.9,0,0,0-4.43,1.34,4.29,4.29,0,0,0-1.67,3.52,3.57,3.57,0,0,0,1,2.65,6.35,6.35,0,0,0,3,1.56l4.5,1.24a14.12,14.12,0,0,1,4,1.6,6.34,6.34,0,0,1,2.29,2.35,6.74,6.74,0,0,1,.75,3.26,7.2,7.2,0,0,1-1.21,4.19,7.74,7.74,0,0,1-3.41,2.74,12.86,12.86,0,0,1-5.17,1,12.51,12.51,0,0,1-3.76-.53,8.87,8.87,0,0,1-2.9-1.51,7.62,7.62,0,0,1-1.95-2.3,7.15,7.15,0,0,1-.85-2.88Z" transform="translate(-108.89 -161.94)"/><path class="cls-36" d="M2055.1,1490.12a4.87,4.87,0,0,0,.72,1.83,5.46,5.46,0,0,0,1.42,1.46,6.82,6.82,0,0,0,2.07,1,9.3,9.3,0,0,0,2.63.35,8.74,8.74,0,0,0,3.47-.63,5.21,5.21,0,0,0,2.25-1.76,4.55,4.55,0,0,0,.79-2.67,3.76,3.76,0,0,0-1.15-2.89,8.14,8.14,0,0,0-3.57-1.71l-4.6-1.24a10.52,10.52,0,0,1-3.38-1.5,6.31,6.31,0,0,1-2.81-5.44,6.78,6.78,0,0,1,1.16-3.92,7.82,7.82,0,0,1,3.21-2.69,10.72,10.72,0,0,1,4.71-1,11,11,0,0,1,4.52.88,7.86,7.86,0,0,1,3.13,2.42,6.78,6.78,0,0,1,1.38,3.55h-3a4.75,4.75,0,0,0-1-2.21,5.19,5.19,0,0,0-2.09-1.48,7.92,7.92,0,0,0-3-.52,6.87,6.87,0,0,0-4.42,1.34,4.26,4.26,0,0,0-1.67,3.52,3.56,3.56,0,0,0,1,2.65,6.35,6.35,0,0,0,3,1.56l4.5,1.24a14.07,14.07,0,0,1,4,1.6,6.41,6.41,0,0,1,2.29,2.35,6.73,6.73,0,0,1,.74,3.26,7.27,7.27,0,0,1-1.2,4.19,7.82,7.82,0,0,1-3.42,2.74,12.86,12.86,0,0,1-5.17,1,12.56,12.56,0,0,1-3.76-.53,9,9,0,0,1-2.9-1.51,7.62,7.62,0,0,1-1.95-2.3,7.31,7.31,0,0,1-.85-2.88Z" transform="translate(-108.89 -161.94)"/><path class="cls-36" d="M2082.08,1496.77l-7.41-26.83h3.4l5.29,22.31h.18l5.65-22.31h3l5.66,22.31h.16l5.29-22.31h3.4l-7.39,26.83h-2.6l-5.94-22.07h-.14l-5.94,22.07Z" transform="translate(-108.89 -161.94)"/><path class="cls-36" d="M2130.14,1491.86a9.33,9.33,0,0,1-3.67,4.07,11.77,11.77,0,0,1-11.17,0,9.27,9.27,0,0,1-3.67-4.07,14.44,14.44,0,0,1-1.3-6.42v-4.15a14.53,14.53,0,0,1,1.3-6.44,9.33,9.33,0,0,1,3.67-4.07,11.77,11.77,0,0,1,11.17,0,9.39,9.39,0,0,1,3.67,4.07,14.67,14.67,0,0,1,1.29,6.44v4.15A14.58,14.58,0,0,1,2130.14,1491.86Zm-2.6-15.74a7.24,7.24,0,0,0-2.72-3.09,8,8,0,0,0-7.88,0,7.15,7.15,0,0,0-2.74,3.09,11.72,11.72,0,0,0-1,5.13v4.19a11.86,11.86,0,0,0,1,5.14,7.13,7.13,0,0,0,2.74,3.1,7.92,7.92,0,0,0,7.88,0,7.21,7.21,0,0,0,2.72-3.1,11.72,11.72,0,0,0,1-5.14v-4.19A11.58,11.58,0,0,0,2127.54,1476.12Z" transform="translate(-108.89 -161.94)"/><path class="cls-36" d="M2152,1470.91a7,7,0,0,1,2.92,2.72,8,8,0,0,1,1,4.16,8.56,8.56,0,0,1-.62,3.31,7,7,0,0,1-1.77,2.54,7.69,7.69,0,0,1-2.74,1.59l5.6,11.54h-3.32l-5.13-10.94h-7v10.94h-2.89v-26.83h9.42A9.63,9.63,0,0,1,2152,1470.91Zm-5,12.29a6.6,6.6,0,0,0,4.44-1.34A4.83,4.83,0,0,0,2153,1478a5.23,5.23,0,0,0-1.53-4,6.11,6.11,0,0,0-4.31-1.42H2141v10.64Z" transform="translate(-108.89 -161.94)"/><path class="cls-36" d="M2171.09,1469.94a12.68,12.68,0,0,1,6.53,1.54,9.54,9.54,0,0,1,3.93,4.52,21.23,21.23,0,0,1,0,14.71,9.46,9.46,0,0,1-3.93,4.53,12.81,12.81,0,0,1-6.54,1.53h-8.22v-26.83Zm-5.33,24.2H2171a10.42,10.42,0,0,0,3.93-.68,6.78,6.78,0,0,0,2.77-2,8.93,8.93,0,0,0,1.65-3.37,18.13,18.13,0,0,0,.54-4.68,15.89,15.89,0,0,0-1-6,7.29,7.29,0,0,0-2.95-3.63,9.27,9.27,0,0,0-5-1.23h-5.23Z" transform="translate(-108.89 -161.94)"/><path class="cls-21" d="M2041.2,1618.51h-16.28v-26.85h4.46v23h11.82Z" transform="translate(-108.89 -161.94)"/><path class="cls-21" d="M2064.92,1613.45a9.65,9.65,0,0,1-3.85,4.16,13.07,13.07,0,0,1-11.89,0,9.69,9.69,0,0,1-3.87-4.16,14.56,14.56,0,0,1-1.35-6.52v-3.66a14.51,14.51,0,0,1,1.35-6.53,9.69,9.69,0,0,1,3.87-4.16,12.91,12.91,0,0,1,11.89,0,9.65,9.65,0,0,1,3.85,4.16,14.38,14.38,0,0,1,1.36,6.53v3.66A14.42,14.42,0,0,1,2064.92,1613.45Zm-4-14.83a6.21,6.21,0,0,0-2.36-2.76,6.84,6.84,0,0,0-6.82,0,6.15,6.15,0,0,0-2.36,2.76,10.74,10.74,0,0,0-.87,4.61V1607a10.8,10.8,0,0,0,.87,4.61,6.21,6.21,0,0,0,2.36,2.76,6.31,6.31,0,0,0,9.18-2.76,10.8,10.8,0,0,0,.87-4.61v-3.72A10.74,10.74,0,0,0,2060.89,1598.62Z" transform="translate(-108.89 -161.94)"/><path class="cls-21" d="M2088.27,1599.33a6,6,0,0,0-.74-1.79,5.14,5.14,0,0,0-1.25-1.38,5.42,5.42,0,0,0-1.72-.9,6.94,6.94,0,0,0-2.15-.31,5.82,5.82,0,0,0-4.84,2.19,9.7,9.7,0,0,0-1.73,6.13v3.5a12,12,0,0,0,.76,4.49,6.15,6.15,0,0,0,2.25,2.93,6.35,6.35,0,0,0,3.7,1,7,7,0,0,0,3.33-.71,4.8,4.8,0,0,0,2-1.91,5.53,5.53,0,0,0,.67-2.71v-2.13h-6.18v-3.52h10.46v5.45a10.23,10.23,0,0,1-.65,3.65,8.5,8.5,0,0,1-2,3,9,9,0,0,1-3.22,2,14.19,14.19,0,0,1-9.3-.13,9.22,9.22,0,0,1-3.51-2.46,10.52,10.52,0,0,1-2.14-3.88,16.68,16.68,0,0,1-.71-5.06v-3.54a14.51,14.51,0,0,1,1.32-6.4,9.75,9.75,0,0,1,3.83-4.22,11.42,11.42,0,0,1,6-1.5,12.19,12.19,0,0,1,4,.62,9.72,9.72,0,0,1,3.1,1.73,8.63,8.63,0,0,1,2.09,2.61,9.43,9.43,0,0,1,1,3.24Z" transform="translate(-108.89 -161.94)"/><path class="cls-21" d="M2107.86,1618.51v-26.85h4.47v26.85Z" transform="translate(-108.89 -161.94)"/><path class="cls-21" d="M2119.41,1618.51v-26.85h3.93l12.53,19.28h.2v-19.28h4.28v26.85h-3.91l-12.57-19.33h-.18v19.33Z" transform="translate(-108.89 -161.94)"/><path d="M1641.48,1260.16a5.6,5.6,0,0,1,1.1,3.12,3.32,3.32,0,0,1-1.15,2.72,2.73,2.73,0,0,1-2.43,1.12,3.83,3.83,0,0,1-2.7-1.47,34,34,0,0,0-3.21-3,20.66,20.66,0,0,0-6.07-3.39,29.58,29.58,0,0,0-9.06-1.7,33.64,33.64,0,0,0-12.31,2.18c-7.5,2.6-13.18,6.19-17,10.68s-6,8.74-6.47,12.72a18.6,18.6,0,0,0,.17,4.15,6,6,0,0,0,2.29,4c.85.9,2.07,1,3.65.36a27.3,27.3,0,0,0,5.08-2.89c1.82-1.26,3.55-2.57,5.21-3.92a39.25,39.25,0,0,1,4.25-3.11c8.33-5.07,15.9-6.64,22.58-4.76s11.48,7.38,14.46,16.42l7.05,21.94c1.12,3.37,1.27,6.2.49,8.49a15.17,15.17,0,0,1-3.24,5.58,22.46,22.46,0,0,1-6,4.18,13.73,13.73,0,0,1-17.28-8.89,13.9,13.9,0,0,1,.41-10.67,12.91,12.91,0,0,1,15.46-7.23l-3.87-11.52q-3.5-9.86-10.19-10.63c-4.47-.5-9.74,1.12-15.75,4.91a50.62,50.62,0,0,0-6.61,4.52,38.39,38.39,0,0,1-6.91,4.44,15.62,15.62,0,0,1-6.92,1.77q-3.4,0-6.61-3.34a20.28,20.28,0,0,1-4.93-15.71,27.68,27.68,0,0,1,2.18-7.66,32.73,32.73,0,0,1,5.08-8,45.88,45.88,0,0,1,8.47-7.6,48.37,48.37,0,0,1,12.23-6.11,40.8,40.8,0,0,1,15.2-2.59,35.14,35.14,0,0,1,11.45,2.29,27.19,27.19,0,0,1,7.71,4.56A48.76,48.76,0,0,1,1641.48,1260.16Zm-1,57.8a5.62,5.62,0,0,0-3.83-3.89,8.33,8.33,0,0,0-5.18,0,8.7,8.7,0,0,0-4.11,3.1,5.61,5.61,0,0,0-.62,5.53,5.88,5.88,0,0,0,3.93,4,8.21,8.21,0,0,0,5.14,0,7.17,7.17,0,0,0,4.2-3.56A6.47,6.47,0,0,0,1640.48,1318Z" transform="translate(-108.89 -161.94)"/><path d="M1644.45,1198.5c-2.66,8.38-6,15.14-10.15,20.32a60.8,60.8,0,0,1-12.64,12.23,44.55,44.55,0,0,1-12.33,6.23,63.4,63.4,0,0,1-9.12,2.21,42.9,42.9,0,0,1-6.39.31,23,23,0,0,1-6.39-1,16.49,16.49,0,0,1-5.47-2.92,12.44,12.44,0,0,1-3.73-5.58,13.07,13.07,0,0,1,.66-10.66,13.87,13.87,0,0,1,8.1-7.14,15.05,15.05,0,0,1,10.8.35,13.24,13.24,0,0,1,6.72,18.22,43.26,43.26,0,0,0,7.91-3.22,47.55,47.55,0,0,0,9.44-6.47,53.25,53.25,0,0,0,9.14-10.43,58.48,58.48,0,0,0,7.19-15.18,4.45,4.45,0,0,1,1.7-2,2.52,2.52,0,0,1,2.52,0,3.37,3.37,0,0,1,2,1.86A3.7,3.7,0,0,1,1644.45,1198.5ZM1599.13,1223a5.48,5.48,0,0,0-4.12-3.78,9.89,9.89,0,0,0-5.63.14,9,9,0,0,0-4.11,3.35,5.75,5.75,0,0,0,3.23,9.16,9.3,9.3,0,0,0,5.23,0,8.64,8.64,0,0,0,4.67-3.64A5.81,5.81,0,0,0,1599.13,1223Z" transform="translate(-108.89 -161.94)"/><path d="M1734.64,1270.71a93.34,93.34,0,0,1,2.13,11.32,24.7,24.7,0,0,1-.9,10.77,21,21,0,0,1-6.38,9.26c-3.18,2.82-8,5.08-14.36,6.85s-11.67,2.28-15.84,1.49a21.15,21.15,0,0,1-10.24-4.66,24.62,24.62,0,0,1-6.27-8.7,91.58,91.58,0,0,1-3.94-10.73l-.06-.2q-4.08-13.68-8.17-27.37a13.81,13.81,0,0,1-17.33,2.17,12.75,12.75,0,0,1-5.26-5.73,14.55,14.55,0,0,1-1.42-7.6,14.89,14.89,0,0,1,2.68-7.31,12.88,12.88,0,0,1,7.17-4.87,13.2,13.2,0,0,1,10.94,1.18,13.89,13.89,0,0,1,6.59,8.28q5.74,19.64,11.5,39.27l.06.2q1.32,4.5,2.85,8.49a16.2,16.2,0,0,0,4.39,6.49,14,14,0,0,0,7.6,3.13c3.18.42,7.35-.1,12.55-1.54s9-3.13,11.54-5.12a13.73,13.73,0,0,0,4.9-6.68,17,17,0,0,0,.41-7.92q-.72-4.22-1.89-8.74-6.33-24.54-12.67-49.07a4.57,4.57,0,0,1,.24-3.14,3.12,3.12,0,0,1,2.11-1.86,3.52,3.52,0,0,1,2.81.5,4,4,0,0,1,1.79,2.51q3.12,12.39,6.26,24.77Zm-66.85-24a5.52,5.52,0,0,0-3.83-4.09,9.35,9.35,0,0,0-5.34-.06,9.2,9.2,0,0,0-4.4,3,5.48,5.48,0,0,0-.91,5.52,5.78,5.78,0,0,0,3.88,4.15,8.8,8.8,0,0,0,5.33.16,7.65,7.65,0,0,0,4.52-3.48A6.33,6.33,0,0,0,1667.79,1246.69Z" transform="translate(-108.89 -161.94)"/><path d="M1825.35,1279.11a4.81,4.81,0,0,1-.4,3.1,2.84,2.84,0,0,1-2.07,1.69,3.07,3.07,0,0,1-2.63-.8,4.55,4.55,0,0,1-1.59-2.72q-.89-4.71-1.79-9.4a69.84,69.84,0,0,0-2.22-7.36,42.45,42.45,0,0,0-5.71-10.92,34.8,34.8,0,0,0-10-9.28c-4.11-2.57-9.11-3.41-14.94-2.47a33.74,33.74,0,0,0-9.22,3.06,15.42,15.42,0,0,0-7.41,7.74,24.57,24.57,0,0,0-2.2,8.57,38.57,38.57,0,0,0,.77,11,12.79,12.79,0,0,1,8.42-6.26,11.87,11.87,0,0,1,5,0,15.67,15.67,0,0,1,4.86,1.88,13.4,13.4,0,0,1,3.94,3.62,13.82,13.82,0,0,1,2.31,5.38,13.67,13.67,0,0,1-10,16.54,12.52,12.52,0,0,1-9.88-1.8,21.17,21.17,0,0,1-7.55-9.28c-3-6.72-4.61-12.94-4.72-18.67a35,35,0,0,1,2.76-15.16,22.62,22.62,0,0,1,8.18-9.8,32.67,32.67,0,0,1,13.41-5c6.7-1.12,12.51-.37,17.38,2.21a36.47,36.47,0,0,1,12.17,10.3q-1.26-6.68-2.54-13.36a23.8,23.8,0,0,0-8.6-14.8c-6.31-5-14.82-6.41-25.41-4.17a30.16,30.16,0,0,0-10.47,4.32,29.3,29.3,0,0,0-7.69,7.28,26.55,26.55,0,0,0-4.25,9.27,23.63,23.63,0,0,0-.21,10.32,4,4,0,0,1-.4,3,3.36,3.36,0,0,1-2.19,1.72,3.87,3.87,0,0,1-2.7-.78,4.33,4.33,0,0,1-1.64-2.57,32.24,32.24,0,0,1,0-13.55,34.19,34.19,0,0,1,14.74-21.71,37.37,37.37,0,0,1,13.13-5.46c9.07-1.91,17.27-1.31,24.51,1.76a16.66,16.66,0,0,0,5-4.42,45.44,45.44,0,0,0,4.25-6.42q2.1-3.85,4.13-8.33a3.37,3.37,0,0,1,1.4-2.73,3,3,0,0,1,2.74-.6c1.76.69,2.76,1.67,3,2.92a5.85,5.85,0,0,1,0,2,24.65,24.65,0,0,1-1.53,5.13,62.2,62.2,0,0,1-2.86,6,43,43,0,0,1-4,6,40.68,40.68,0,0,1-4.66,5.09c5.66,4.84,9.2,11.32,10.7,19.4Zm-40.95-1.94q-.76-3.54-3.41-4.48a8.64,8.64,0,0,0-9.49,2.1c-1.33,1.32-1.72,3.16-1.19,5.51s1.69,3.83,3.44,4.45a9,9,0,0,0,5,.4,7.33,7.33,0,0,0,4.55-3A6.1,6.1,0,0,0,1784.4,1277.17Z" transform="translate(-108.89 -161.94)"/><path d="M1908.14,1244.38a71.17,71.17,0,0,1,.45,11.16,20.21,20.21,0,0,1-3.14,10.32c-2.55,4-6.72,6.4-12.57,7.18a18.13,18.13,0,0,1-8-.83,40.39,40.39,0,0,1-8.17-3.65,65.79,65.79,0,0,1-7.37-5,70.68,70.68,0,0,1-5.51-4.74,25.21,25.21,0,0,1-.48,13,9.23,9.23,0,0,1-7.72,6.83,10.22,10.22,0,0,1-9.93-3.52,24,24,0,0,1-5.25-12q-1.38-8,1.09-13.55a10.33,10.33,0,0,1,8.12-6.51,9.94,9.94,0,0,1,5.69.59c-.31-2-.68-4.33-1.13-7.13s-.84-5.53-1.2-8.19-.71-5-1-7-.51-3.25-.58-3.67a13.55,13.55,0,0,1-6.5,3,13.38,13.38,0,0,1-10.34-2.37,13.9,13.9,0,0,1-5.69-9.37,13.51,13.51,0,0,1,2.31-10.42,13.29,13.29,0,0,1,9.16-5.71,18.94,18.94,0,0,1,3.92-.1,12.5,12.5,0,0,1,5,1.47,14.43,14.43,0,0,1,4.64,4,16.14,16.14,0,0,1,2.82,7.52l6.63,43.23c1.68,1.61,3.68,3.41,6,5.43a63.59,63.59,0,0,0,7.29,5.47,46.26,46.26,0,0,0,7.74,4,14.44,14.44,0,0,0,7.38,1.13q6.59-.87,8.6-5.08c1.34-2.8,1.6-7.65.74-14.52q-3.37-27.71-6.73-55.39-.5-4,3-4.43a3.48,3.48,0,0,1,2.71.85,4,4,0,0,1,1.44,2.72Q1904.84,1216.68,1908.14,1244.38Zm-58.11-39.1a5.52,5.52,0,0,0-3.23-4.55,9.28,9.28,0,0,0-5.25-.77,8.85,8.85,0,0,0-4.72,2.5,5.53,5.53,0,0,0-1.63,5.22,5.85,5.85,0,0,0,3.26,4.52,8.49,8.49,0,0,0,5.25,1,7.53,7.53,0,0,0,4.9-2.83A6.32,6.32,0,0,0,1850,1205.28Zm8.3,54.79a19.52,19.52,0,0,0-2.37-7,4.57,4.57,0,0,0-5-2.31,5.78,5.78,0,0,0-4.54,3.55,13.43,13.43,0,0,0-.56,7.84,15,15,0,0,0,3,7.15,5.55,5.55,0,0,0,5.5,2.22c2-.32,3.2-1.7,3.76-4.16A19.1,19.1,0,0,0,1858.33,1260.07Z" transform="translate(-108.89 -161.94)"/><path d="M1924.29,1143q-6.29,11.49-13.76,17.84a59.86,59.86,0,0,1-14.63,9.47,43.67,43.67,0,0,1-13.16,3.68,64.68,64.68,0,0,1-9.26.38,43.24,43.24,0,0,1-6.26-1,22.52,22.52,0,0,1-6-2.25,16.26,16.26,0,0,1-4.75-3.92,12.41,12.41,0,0,1-2.54-6.17,13,13,0,0,1,2.68-10.26,13.67,13.67,0,0,1,9.22-5.39,14.91,14.91,0,0,1,10.41,2.45,13.21,13.21,0,0,1,3,19.08,42.24,42.24,0,0,0,8.3-1.6,46.75,46.75,0,0,0,10.41-4.47,52.55,52.55,0,0,0,10.87-8.39,58.18,58.18,0,0,0,9.89-13.41,4.46,4.46,0,0,1,2-1.59,2.47,2.47,0,0,1,2.44.51,3.32,3.32,0,0,1,1.56,2.19A3.7,3.7,0,0,1,1924.29,1143Zm-48.69,15a5.48,5.48,0,0,0-3.28-4.49,9.78,9.78,0,0,0-5.49-1,8.86,8.86,0,0,0-4.62,2.47,5.74,5.74,0,0,0,1.38,9.56,9.12,9.12,0,0,0,5.07,1,8.53,8.53,0,0,0,5.23-2.64A5.81,5.81,0,0,0,1875.6,1158Z" transform="translate(-108.89 -161.94)"/><path d="M1992.1,1258.42a4.58,4.58,0,0,1-.87,3,3.09,3.09,0,0,1-2.35,1.42,2.84,2.84,0,0,1-2.41-1.13,4.77,4.77,0,0,1-1.14-2.9q-1.44-22.93-2.89-45.87c-.64-10.14-3.32-17.12-8.09-20.91s-11.21-5.39-19.26-4.75c-8.66.69-15.33,3.43-20,8.13s-6.4,12.06-5.38,22l1.11,11a41.13,41.13,0,0,1,5.47-10.23,34.32,34.32,0,0,1,6.77-6.92,30.56,30.56,0,0,1,7-4,17.64,17.64,0,0,1,6.33-1.38h.18a12.62,12.62,0,0,1,5.87.81,14.43,14.43,0,0,1,4.57,3,13.72,13.72,0,0,1,3,4.25,14.08,14.08,0,0,1,1.26,4.9,14.59,14.59,0,0,1-3,10,12.41,12.41,0,0,1-9.5,5,14,14,0,0,1-4.76-.45,12.68,12.68,0,0,1-4.56-2.27,14.55,14.55,0,0,1-3.58-4,13.82,13.82,0,0,1-1.81-6l0-.21a43.36,43.36,0,0,0-8.16,11.3,34.08,34.08,0,0,0-3.27,14.5q.82,8.22,1.67,16.45a4.88,4.88,0,0,1-.65,3,2.87,2.87,0,0,1-2.2,1.51,3.08,3.08,0,0,1-2.55-1,4.53,4.53,0,0,1-1.35-2.84l-4.86-45.54a45,45,0,0,1,.85-16.08,29,29,0,0,1,6-11.9,29.47,29.47,0,0,1,10.53-7.7,43.21,43.21,0,0,1,14.23-3.45c10.67-.85,19,1.44,25,6.72s9.28,14.29,10,27Q1990.77,1235.59,1992.1,1258.42Zm-27-39.17a8,8,0,0,0-1.76-4.22c-1.07-1.4-3.11-2-6.1-1.75a10.11,10.11,0,0,0-5,1.69c-1.43,1-2,2.79-1.79,5.47q.31,3.58,2.84,4.86a9.3,9.3,0,0,0,5,1.07,7.58,7.58,0,0,0,5-2.3A6,6,0,0,0,1965.06,1219.25Z" transform="translate(-108.89 -161.94)"/><path d="M2074.48,1193.61a5.57,5.57,0,0,1,.08,3.28,3.29,3.29,0,0,1-1.91,2.21,2.71,2.71,0,0,1-2.63.31,3.86,3.86,0,0,1-2.09-2.22,34.16,34.16,0,0,0-2.09-3.8,20.53,20.53,0,0,0-4.67-5.06,29,29,0,0,0-8-4.39,32.86,32.86,0,0,0-12.21-1.72c-7.83.14-14.25,1.78-19.2,4.83s-8.26,6.4-9.93,10a17.8,17.8,0,0,0-1.11,4,6,6,0,0,0,.92,4.52c.52,1.11,1.62,1.59,3.3,1.46a27.85,27.85,0,0,0,5.65-1.16c2.08-.64,4.11-1.34,6.07-2.1a37.93,37.93,0,0,1,4.93-1.62c9.35-2.22,16.94-1.37,22.63,2.44s8.54,10.49,8.58,19.93l-.06,22.83c0,3.53-.7,6.25-2.13,8.16a15,15,0,0,1-4.74,4.27,22.3,22.3,0,0,1-6.9,2.1,13.12,13.12,0,0,1-9.17-3.64,13.25,13.25,0,0,1-4.33-10,13.81,13.81,0,0,1,3.62-9.93,12.46,12.46,0,0,1,9.45-4.3,12.32,12.32,0,0,1,7.26,2.24l-.12-12.06q-.27-10.35-6.33-13.14c-4-1.85-9.48-1.94-16.27-.21a49.37,49.37,0,0,0-7.57,2.22,38.19,38.19,0,0,1-7.83,2.07,15.32,15.32,0,0,1-7-.47c-2.13-.69-3.85-2.41-5.18-5.18a19.36,19.36,0,0,1-1.64-8,19.09,19.09,0,0,1,1.8-8.35,27.33,27.33,0,0,1,4.37-6.54,31.89,31.89,0,0,1,7.2-6,44.86,44.86,0,0,1,10.25-4.56,47.35,47.35,0,0,1,13.32-2,40,40,0,0,1,15.06,2.23,34.87,34.87,0,0,1,10.05,5.66,27.15,27.15,0,0,1,5.86,6.67A49.6,49.6,0,0,1,2074.48,1193.61Zm-18.56,54.18a5.58,5.58,0,0,0-2.42-4.84,8.22,8.22,0,0,0-4.85-1.63,8.56,8.56,0,0,0-4.8,1.67,5.57,5.57,0,0,0-2.27,5,5.88,5.88,0,0,0,2.46,5,8.19,8.19,0,0,0,4.82,1.61,7.08,7.08,0,0,0,5-2.08A6.38,6.38,0,0,0,2055.92,1247.79Z" transform="translate(-108.89 -161.94)"/><path d="M2168.16,1246.08q-.75,10.1-4.61,14.05t-8.33,3.67a8,8,0,0,1-4.5-1.66,11.12,11.12,0,0,1-3.08-3.78,17.31,17.31,0,0,1-1.63-5,18.69,18.69,0,0,1-.13-5.39,25.72,25.72,0,0,1-2.91,5.12,21.42,21.42,0,0,1-4.7,4.71,24.8,24.8,0,0,1-6.42,3.39,21.1,21.1,0,0,1-8.12,1.12,34.2,34.2,0,0,1-6.54-1.09,18.3,18.3,0,0,1-7.51-4,23.66,23.66,0,0,1-6-9.15c-1.64-4.06-2.4-9.54-2.24-16.44l.72-30.41a14.24,14.24,0,0,1-6.55,1.54,14.45,14.45,0,0,1-9.44-3.75c-2.81-2.43-4.21-5.89-4.17-10.4a13.14,13.14,0,0,1,4.13-9.68,13.44,13.44,0,0,1,10-3.85,12.72,12.72,0,0,1,9.94,4.47,13.88,13.88,0,0,1,3.5,9.61q-.59,20.26-1.16,40.54-.42,14.37,3.63,19.77c2.68,3.61,6.67,5.5,12,5.72a14.93,14.93,0,0,0,10.8-3.53,40.56,40.56,0,0,0,7.46-8.5q3.06-4.7,5.36-9c1.52-2.87,3-4.61,4.48-5.23q1.44-23.81,2.89-47.61.24-4,3.74-3.78c2.34.15,3.41,1.56,3.24,4.23l-3,46.12a7.91,7.91,0,0,1,3.57,1.19,9.91,9.91,0,0,1,3.17,3.18,16.69,16.69,0,0,1,2.08,5.55A30,30,0,0,1,2168.16,1246.08Zm-65-57.11a7,7,0,0,0-1.82-4.27,6.6,6.6,0,0,0-5.36-2.44,7.53,7.53,0,0,0-5.35,1.91,6,6,0,0,0-2.26,4.51c0,2.39.8,4.1,2.48,5.11a9.88,9.88,0,0,0,4.88,1.57,7.46,7.46,0,0,0,5.22-1.79A6.07,6.07,0,0,0,2103.16,1189Zm59.54,57.14a15.61,15.61,0,0,0-1.13-8c-1-2-2.37-2.95-4.15-2.92q-3,0-4.46,3.41a21.65,21.65,0,0,0-1.68,7.2,21.35,21.35,0,0,0,.77,7.55c.67,2.23,2,3.4,4,3.53a4.77,4.77,0,0,0,4.64-2.76A18.94,18.94,0,0,0,2162.7,1246.11Z" transform="translate(-108.89 -161.94)"/><path d="M2197.65,1142q-8.31,10.05-16.84,14.87a59.81,59.81,0,0,1-16.12,6.52,43.55,43.55,0,0,1-13.59,1.15,64.74,64.74,0,0,1-9.16-1.36,42.5,42.5,0,0,1-6-2.1,22.58,22.58,0,0,1-5.45-3.32,16.1,16.1,0,0,1-3.93-4.71,12.28,12.28,0,0,1-1.34-6.5,12.9,12.9,0,0,1,4.54-9.53,13.64,13.64,0,0,1,10-3.55,14.9,14.9,0,0,1,9.75,4.34,13.11,13.11,0,0,1-.59,19.2,42.93,42.93,0,0,0,8.43,0,46.51,46.51,0,0,0,11.05-2.43,52.83,52.83,0,0,0,12.23-6.17,57.74,57.74,0,0,0,12.22-11.26,4.31,4.31,0,0,1,2.29-1.17,2.5,2.5,0,0,1,2.31.94,3.34,3.34,0,0,1,1.12,2.44A3.67,3.67,0,0,1,2197.65,1142Zm-50.58,5.6a5.43,5.43,0,0,0-2.38-5,9.74,9.74,0,0,0-5.2-2,8.93,8.93,0,0,0-5,1.56,5.69,5.69,0,0,0-.43,9.6,9.31,9.31,0,0,0,4.79,1.92,8.54,8.54,0,0,0,5.62-1.61A5.77,5.77,0,0,0,2147.07,1147.64Z" transform="translate(-108.89 -161.94)"/><path d="M2245.75,1267.65a4.7,4.7,0,0,1-1.33,2.79,2.88,2.88,0,0,1-2.49,1,3.08,3.08,0,0,1-2.25-1.57,4.39,4.39,0,0,1-.66-3q2.91-22.68,5.81-45.35c1.29-10-.06-17.36-4.1-22s-10.22-7.41-18.5-8.32c-5.47-.61-10.13-.17-14,1.28a28.54,28.54,0,0,0-9.45,5.65,28.89,28.89,0,0,0-5.77,7.3,53.71,53.71,0,0,0-3,6.3l4.06,3.12c1.7,1.28,3.33,2.49,4.91,3.63a15.29,15.29,0,0,1,5.6-3.69,3,3,0,0,1,2.69.27,3.7,3.7,0,0,1,1.56,2.49,4.22,4.22,0,0,1-.14,3.16,3.57,3.57,0,0,1-2.18,1.9,8.43,8.43,0,0,0-3.68,2.6,13.84,13.84,0,0,0-2.14,3.6,15.9,15.9,0,0,0-.94,3.3c-.16,1-.24,1.53-.25,1.67q-1.07,7.32-1.66,14.46t-1.06,13.88a4,4,0,0,1-1.06,2.86,2.85,2.85,0,0,1-2.45,1q-3.28-.3-3.27-4.32.43-6.74,1-13.89t1.63-15.1a15.85,15.85,0,0,0,.53-2.81,18.13,18.13,0,0,1,1.43-4.84q-2.61-1.93-5.23-3.86c-1.69-1.28-3-2.31-4-3.11a13.7,13.7,0,0,1-2.26-2.09,3.68,3.68,0,0,1-.86-1.66,5.31,5.31,0,0,1,.17-2,55.23,55.23,0,0,1,3.24-8.51,47.76,47.76,0,0,1,4.75-7.53,36.55,36.55,0,0,1,7.45-7.27,33.24,33.24,0,0,1,10.74-5.1,37.78,37.78,0,0,1,14.56-.9c10.77,1.19,18.69,5,23.68,11.42s6.61,15.78,5,28.17Q2248.76,1245.09,2245.75,1267.65Z" transform="translate(-108.89 -161.94)"/><path d="M2294.93,1266.37q-1.09,6.44-5.66,9.4a13.16,13.16,0,0,1-9.52,2.18,15.24,15.24,0,0,1-8.94-4.7q-3.64-3.86-2.59-10.94,5.07-33.82,10.13-67.67a4.36,4.36,0,0,1,1.53-2.75,3.36,3.36,0,0,1,2.75-.86,3.14,3.14,0,0,1,2.28,1.63,4.58,4.58,0,0,1,.55,3.07l-8.61,55.55a13.44,13.44,0,0,1,7.3-.77,12,12,0,0,1,8.84,5.72A14.34,14.34,0,0,1,2294.93,1266.37Zm-5.88-1a6,6,0,0,0-1.33-4.92,7.33,7.33,0,0,0-4.74-2.68,7.65,7.65,0,0,0-5.43,1,6,6,0,0,0-1.43,9.15,7.6,7.6,0,0,0,4.79,2.68,7.36,7.36,0,0,0,5.31-1.06A6,6,0,0,0,2289.05,1265.39Z" transform="translate(-108.89 -161.94)"/><path d="M2382,1229.37a5.42,5.42,0,0,1-.64,3.2,3.28,3.28,0,0,1-2.36,1.72,2.75,2.75,0,0,1-2.64-.28,3.76,3.76,0,0,1-1.56-2.62,34.51,34.51,0,0,0-1.23-4.15,20.29,20.29,0,0,0-3.47-5.94,29.29,29.29,0,0,0-6.88-6,33.37,33.37,0,0,0-11.6-4.38q-11.57-2.37-19.88.45c-5.53,1.87-9.49,4.39-11.91,7.5a17.67,17.67,0,0,0-2,3.6,6,6,0,0,0-.09,4.58c.27,1.2,1.24,1.91,2.92,2.15a27.78,27.78,0,0,0,5.78.12q3.27-.24,6.41-.7a40.31,40.31,0,0,1,5.18-.48c9.66-.09,16.91,2.41,21.66,7.37s6.08,12,4,21.21l-5.07,22.12c-.75,3.43-2,5.9-3.88,7.44a15.14,15.14,0,0,1-5.58,3.09,22.63,22.63,0,0,1-7.23.51,13.58,13.58,0,0,1-10.24-16.26,13.66,13.66,0,0,1,5.73-8.82,12.88,12.88,0,0,1,16.85,1.69l2.52-11.71c1.33-6.73.23-11.46-3.33-14.14s-8.87-4-15.9-3.8a50.3,50.3,0,0,0-7.91.49,38.59,38.59,0,0,1-8.12.27,15.4,15.4,0,0,1-6.77-2q-2.9-1.71-3.94-6.16a20,20,0,0,1,3.73-15.79,27.31,27.31,0,0,1,5.72-5.38,32.12,32.12,0,0,1,8.36-4.23,45.12,45.12,0,0,1,11-2.16,48,48,0,0,1,13.5,1,40.77,40.77,0,0,1,14.28,5.49,35.34,35.34,0,0,1,8.62,7.71,27,27,0,0,1,4.29,7.76A48.36,48.36,0,0,1,2382,1229.37ZM2352,1277.78a5.54,5.54,0,0,0-1.31-5.22,8.3,8.3,0,0,0-4.4-2.65,8.73,8.73,0,0,0-5.08.55,5.51,5.51,0,0,0-3.32,4.37,5.79,5.79,0,0,0,1.31,5.42,8.27,8.27,0,0,0,4.37,2.62,7.12,7.12,0,0,0,5.38-.9A6.3,6.3,0,0,0,2352,1277.78Z" transform="translate(-108.89 -161.94)"/><path d="M2381.79,1199.58a3.14,3.14,0,0,1-2.26.67c-.74-.09-1.29-.18-1.66-.26a106,106,0,0,0-13.3-5.16,144.73,144.73,0,0,0-15-3.86q-7.68-1.54-15.67-2.53c-5.32-.66-10.42-1.13-15.29-1.44a2.64,2.64,0,0,1-2.16-1.13,4.07,4.07,0,0,1-.74-2.8,3.35,3.35,0,0,1,1.39-2.53,7.43,7.43,0,0,1,1.29-.84,26.47,26.47,0,0,0,6.76-4.24,63.71,63.71,0,0,1,7.7-5.42,36.87,36.87,0,0,1,9.31-3.9,24.15,24.15,0,0,1,11.77.19,38.23,38.23,0,0,1,10.47,4.3,26.66,26.66,0,0,1,8.23,7.34q1.74-8.12,3.49-16.23.79-3.71,4.17-3c2.62.57,3.65,2.17,3.07,4.77q-2.52,11.49-5.06,23a29.08,29.08,0,0,1,2.07,3.69c.34.8,1,2.1,2,3.9Q2384.54,1197.62,2381.79,1199.58Zm-5.94-6.93a32.91,32.91,0,0,1-3.8-5,38.88,38.88,0,0,0-4.21-5.53,31.49,31.49,0,0,0-6-5,28.4,28.4,0,0,0-9.09-3.69,22.16,22.16,0,0,0-8.42-.29,23.78,23.78,0,0,0-6.58,2.26,62.69,62.69,0,0,0-5.6,3.33,21.42,21.42,0,0,1-5.65,2.69,103.34,103.34,0,0,1,12.43.85,126,126,0,0,1,12.93,2.34q6.39,1.51,12.58,3.58A107.06,107.06,0,0,1,2375.85,1192.65Z" transform="translate(-108.89 -161.94)"/><path d="M2451.85,1286.92c-.35,1.21-.81,2.64-1.36,4.3a39,39,0,0,1-2.16,5.16,28.08,28.08,0,0,1-3.35,5.14,21.71,21.71,0,0,1-4.74,4.31,19.27,19.27,0,0,1-11,3.51,52.4,52.4,0,0,1-14.29-2.07q-8.6-2.31-13.26-5.55a23.62,23.62,0,0,1-6.83-6.83,16.34,16.34,0,0,1-2.48-7.11,43.85,43.85,0,0,1-.12-6.52,28.59,28.59,0,0,1,2.44-11,28.15,28.15,0,0,1,6-9c-6.53-4.52-9.85-10.49-9.92-18a23.71,23.71,0,0,1,2.49-11.6,24.31,24.31,0,0,1,16.49-12.84,21.39,21.39,0,0,1,10.13.08,13.26,13.26,0,0,1,8.73,6.61,13.78,13.78,0,0,1,1.31,10.56,13.47,13.47,0,0,1-6.36,8.63A13.67,13.67,0,0,1,2413,1246a13.4,13.4,0,0,1-7.95-5.37,14.28,14.28,0,0,1-2.44-9.58,21.28,21.28,0,0,0-3.43,5.54,15,15,0,0,0-1.29,6.06,12.56,12.56,0,0,0,2,6.86,15.34,15.34,0,0,0,4.16,4.28,29,29,0,0,0,6.06,3,37.74,37.74,0,0,0,10,2,36.08,36.08,0,0,0,10.23-.74,2.94,2.94,0,0,1,2.7.41,3.86,3.86,0,0,1,1.35,2.65,4.51,4.51,0,0,1-.58,3.11,4,4,0,0,1-2.44,1.72,39.08,39.08,0,0,1-12,.8,48,48,0,0,1-11.67-2.27c-2.12,1.05-4,3.09-5.71,6.13a24,24,0,0,0-2.95,9.87q-.54,7.22,3.23,11.65c2.51,3,7.44,5.38,14.79,7.35a48.13,48.13,0,0,0,11.61,1.87,14.14,14.14,0,0,0,8.4-2.21,13.64,13.64,0,0,0,5.52-6.71q1.7-4.3,2.58-7.34,7.23-25.1,14.47-50.19a4.48,4.48,0,0,1,1.79-2.54,3.12,3.12,0,0,1,2.76-.5,3.47,3.47,0,0,1,2.18,1.84,3.88,3.88,0,0,1,.27,3Q2459.25,1261.77,2451.85,1286.92Zm-28.16-52.47a5.72,5.72,0,0,0-1.17-5.4,8.62,8.62,0,0,0-4.47-3,8.94,8.94,0,0,0-5.34.37,5.68,5.68,0,0,0-3.64,4.28,5.43,5.43,0,0,0,1.21,5.39,9.28,9.28,0,0,0,4.49,2.77,7.9,7.9,0,0,0,5.62-.5A5.92,5.92,0,0,0,2423.69,1234.45Z" transform="translate(-108.89 -161.94)"/><path d="M2544.85,1329.08q-3.55,9.4-8.42,12.05t-9.14,1.08a8.24,8.24,0,0,1-3.91-2.87,11.19,11.19,0,0,1-1.94-4.49,16.94,16.94,0,0,1-.2-5.19,17.78,17.78,0,0,1,1.39-5.17,25.23,25.23,0,0,1-4.27,4,21.27,21.27,0,0,1-5.89,3.14,25.35,25.35,0,0,1-7.2,1.37,21.75,21.75,0,0,1-8.2-1.26,34.64,34.64,0,0,1-6.05-2.92,18.57,18.57,0,0,1-6.15-6,23.18,23.18,0,0,1-3.29-10.43q-.69-6.51,2.44-16.28,4.61-14.37,9.22-28.74a14.58,14.58,0,0,1-6.78-.4,14.89,14.89,0,0,1-8.12-6.27q-3.06-4.68-1.12-11.09a13,13,0,0,1,6.72-8,13.77,13.77,0,0,1,10.79-.8,13,13,0,0,1,8.39,7.09,13.6,13.6,0,0,1,.69,10.14q-6.24,19.13-12.49,38.25-4.43,13.56-2,19.85c1.6,4.21,4.94,7.15,10.07,8.89a15.31,15.31,0,0,0,11.49-.25,40.65,40.65,0,0,0,9.63-5.94q4.31-3.58,7.74-7c2.28-2.29,4.23-3.52,5.83-3.68q8.07-22.25,16.15-44.48c.91-2.49,2.47-3.34,4.7-2.52s2.88,2.47,2,5l-15.87,43a8.29,8.29,0,0,1,3.15,2.16,10,10,0,0,1,2.19,4,16.46,16.46,0,0,1,.47,5.88A28.82,28.82,0,0,1,2544.85,1329.08Zm-47.19-73a7.32,7.32,0,0,0-5.08-8.45,7.8,7.8,0,0,0-5.73.29,5.92,5.92,0,0,0-3.45,3.65,5.3,5.3,0,0,0,1,5.57,10.08,10.08,0,0,0,4.3,2.89,7.58,7.58,0,0,0,5.56-.21A6,6,0,0,0,2497.66,1256.05Zm41.87,71.48a15.13,15.13,0,0,0,1.14-7.94c-.41-2.17-1.48-3.49-3.21-4q-3-.85-5.31,2a22.25,22.25,0,0,0-5,13.77c0,2.32,1,3.82,2.88,4.51a4.84,4.84,0,0,0,5.29-1.29A18.4,18.4,0,0,0,2539.53,1327.53Z" transform="translate(-108.89 -161.94)"/></g></g><g id="symbols"><path class="cls-37" d="M1304.07,1149c-8.43,0-19.13-6.6-30.9-19.22-14.25-15.29-28.62-37.72-40.44-63.15S1213,1015.72,1210.51,995c-2.58-21.41,1-35.51,10-39.7s22.06,2.2,36.77,18c14.26,15.29,28.62,37.72,40.45,63.15s19.71,50.87,22.21,71.63c2.58,21.42-1,35.51-10,39.7A13.79,13.79,0,0,1,1304.07,1149Zm-77.68-191.33a10.39,10.39,0,0,0-4.39.91c-7.36,3.43-10.24,16.54-7.89,36,2.46,20.39,10.23,45.44,21.9,70.53s25.81,47.19,39.81,62.21c13.36,14.33,25.24,20.58,32.6,17.16s10.24-16.54,7.9-36c-2.46-20.38-10.24-45.43-21.91-70.53s-25.8-47.19-39.8-62.21C1243.65,964,1233.68,957.63,1226.39,957.63Z" transform="translate(-108.89 -161.94)"/><path class="cls-37" d="M1202.57,1086.49q-4.44-.67-8.55-1.56c-21.1-4.49-33.29-12.4-34.33-22.28s9.22-20.16,28.91-29c19.08-8.54,45-14.87,72.84-17.82s54.52-2.18,75,2.18c21.09,4.49,33.28,12.4,34.33,22.28s-9.22,20.17-28.91,29c-19.09,8.54-45,14.87-72.85,17.82C1244.83,1089.67,1221.63,1089.43,1202.57,1086.49Zm124.72-66.44c-18.75-2.88-41.62-3.11-65.47-.59-27.52,2.91-53,9.14-71.75,17.52-17.87,8-27.64,17.22-26.78,25.29s12.33,15,31.48,19.12c20.09,4.28,46.31,5,73.83,2.12s53-9.13,71.75-17.52c17.88-8,27.64-17.22,26.79-25.29s-12.33-15-31.49-19.12Q1331.63,1020.72,1327.29,1020.05Z" transform="translate(-108.89 -161.94)"/><path class="cls-37" d="M1211.1,1139.39a15.2,15.2,0,0,1-9.27-2.79c-8-5.94-8.56-20.46-1.67-40.9,6.67-19.81,19.57-43.11,36.32-65.61s35.38-41.53,52.45-53.6c17.61-12.45,31.69-16,39.66-10.11s8.56,20.45,1.68,40.89c-6.67,19.82-19.57,43.12-36.33,65.61s-35.37,41.53-52.44,53.6C1229.43,1135,1219,1139.39,1211.1,1139.39Zm26.83-108.22,1.45,1.08c-16.53,22.2-29.24,45.14-35.79,64.61-6.25,18.56-6.11,32,.41,36.83s19.41,1.15,35.41-10.16c16.76-11.86,35.1-30.61,51.63-52.81s29.24-45.14,35.8-64.6c6.25-18.57,6.1-32-.41-36.84S1307,968.13,1291,979.44c-16.77,11.86-35.11,30.62-51.64,52.81Z" transform="translate(-108.89 -161.94)"/><circle class="cls-37" cx="1156.33" cy="889.55" r="11.9"/><circle class="cls-37" cx="1422.62" cy="623.76" r="11.61" transform="translate(379.81 1703.08) rotate(-76.72)"/><circle class="cls-37" cx="1171.62" cy="565.63" r="11.61"/><circle class="cls-37" cx="1371.94" cy="624.24" r="11.61"/><circle class="cls-37" cx="1526.7" cy="830.67" r="11.61" transform="translate(-310.56 485.54) rotate(-22.5)"/><polygon class="cls-37" points="1372.08 621.45 1286.33 689.09 1175.02 566.25 1314.7 463.69 1312.77 459.95 1168.23 565.02 1285.85 694.82 1371.8 627.03 1416.35 670.24 1419.28 667.22 1372.08 621.45"/><circle class="cls-37" cx="1394.97" cy="853.89" r="11.61" transform="translate(134.54 1853.43) rotate(-76.72)"/><path class="cls-37" d="M2604.6,788.62h-23.38v21.69h26.06v6.52h-33.83V756.67h32.49v6.51h-24.72v19h23.38Z" transform="translate(-108.89 -161.94)"/><path class="cls-37" d="M2614.16,786.75v-5.36h46.05v5.36Zm0,17.49v-5.35h46.05v5.35Z" transform="translate(-108.89 -161.94)"/><path class="cls-37" d="M2670.3,785.32c0-4.46-.09-8.12-.36-11.69h6.88l.35,7h.27c2.41-4.11,6.43-8,13.57-8a12.78,12.78,0,0,1,12.23,8.66h.17a17.87,17.87,0,0,1,4.82-5.62,14.78,14.78,0,0,1,9.55-3c5.72,0,14.2,3.75,14.2,18.75v25.44h-7.68V792.37c0-8.3-3-13.3-9.37-13.3-4.46,0-7.95,3.3-9.28,7.14a12.84,12.84,0,0,0-.63,3.93v26.69h-7.68V790.94c0-6.87-3-11.87-9-11.87-4.91,0-8.48,3.93-9.73,7.86a10.69,10.69,0,0,0-.62,3.83v26.07h-7.68Z" transform="translate(-108.89 -161.94)"/><path class="cls-37" d="M2775.54,815.22a29,29,0,0,1-12.41,2.5c-13,0-21.51-8.84-21.51-22.05s9.1-22.94,23.21-22.94a26.32,26.32,0,0,1,10.89,2.23l-1.79,6.07a18.21,18.21,0,0,0-9.1-2c-9.91,0-15.27,7.32-15.27,16.34,0,10,6.43,16.15,15,16.15a22.35,22.35,0,0,0,9.64-2.14Z" transform="translate(-108.89 -161.94)"/><path class="cls-37" d="M2782.23,772.73v-1.88l2.41-2.34c5.8-5.52,8.42-8.46,8.46-11.88,0-2.31-1.12-4.44-4.51-4.44a7.76,7.76,0,0,0-4.82,1.92l-1-2.16a10,10,0,0,1,6.43-2.31c4.89,0,7,3.36,7,6.6,0,4.2-3,7.59-7.82,12.2l-1.82,1.67v.07h10.2v2.55Z" transform="translate(-108.89 -161.94)"/><path class="cls-38" d="M2371.68,566.55l59.12,131.9a144.62,144.62,0,0,1-59.12,12.64c-79.29,0-144.53-65.25-144.53-144.54S2292.39,422,2371.68,422s144.54,65.24,144.54,144.53Z" transform="translate(-108.89 -161.94)"/><path class="cls-37" d="M2371.68,566.55H2227.15c0-79.29,65.24-144.53,144.53-144.53s144.54,65.24,144.54,144.53Z" transform="translate(-108.89 -161.94)"/><path class="cls-38" d="M2744.72,1139.6l-24.36-30.53,237.25-189.26a5.46,5.46,0,0,1,7.67.86l17.55,22a5.45,5.45,0,0,1-.86,7.67Z" transform="translate(-108.89 -161.94)"/><rect class="cls-37" x="2933.97" y="941.66" width="14.63" height="1.07" transform="translate(1734.73 -2106.61) rotate(51.42)"/><rect class="cls-37" x="2930.26" y="942.96" width="6.55" height="0.48" transform="translate(1732.58 -2100.17) rotate(51.42)"/><rect class="cls-37" x="2925.04" y="947.13" width="6.55" height="0.48" transform="translate(1733.88 -2094.52) rotate(51.42)"/><rect class="cls-37" x="2919.81" y="951.3" width="6.55" height="0.48" transform="translate(1735.2 -2088.87) rotate(51.42)"/><rect class="cls-37" x="2913.07" y="958.33" width="14.63" height="1.07" transform="translate(1739.88 -2083.99) rotate(51.42)"/><rect class="cls-37" x="2909.36" y="959.64" width="6.55" height="0.48" transform="translate(1737.75 -2077.56) rotate(51.42)"/><rect class="cls-37" x="2904.14" y="963.8" width="6.55" height="0.48" transform="translate(1739.08 -2071.91) rotate(51.42)"/><rect class="cls-37" x="2898.91" y="967.97" width="6.55" height="0.48" transform="translate(1740.33 -2066.25) rotate(51.42)"/><rect class="cls-37" x="2892.17" y="975" width="14.63" height="1.07" transform="translate(1745.05 -2061.38) rotate(51.42)"/><rect class="cls-37" x="2888.46" y="976.31" width="6.55" height="0.48" transform="translate(1742.92 -2054.94) rotate(51.42)"/><rect class="cls-37" x="2883.24" y="980.48" width="6.55" height="0.48" transform="translate(1744.21 -2049.29) rotate(51.42)"/><rect class="cls-37" x="2878.01" y="984.65" width="6.55" height="0.48" transform="translate(1745.54 -2043.65) rotate(51.42)"/><rect class="cls-37" x="2871.27" y="991.67" width="14.63" height="1.07" transform="translate(1750.22 -2038.77) rotate(51.42)"/><rect class="cls-37" x="2867.56" y="992.98" width="6.55" height="0.48" transform="translate(1748.09 -2032.33) rotate(51.42)"/><rect class="cls-37" x="2862.34" y="997.15" width="6.55" height="0.48" transform="translate(1749.41 -2026.69) rotate(51.42)"/><rect class="cls-37" x="2857.11" y="1001.32" width="6.55" height="0.48" transform="translate(1750.67 -2021.02) rotate(51.42)"/><rect class="cls-37" x="2850.37" y="1008.35" width="14.63" height="1.07" transform="translate(1755.39 -2016.15) rotate(51.42)"/><rect class="cls-37" x="2846.66" y="1009.65" width="6.55" height="0.48" transform="translate(1753.29 -2009.73) rotate(51.42)"/><rect class="cls-37" x="2841.44" y="1013.82" width="6.55" height="0.48" transform="translate(1754.54 -2004.06) rotate(51.42)"/><rect class="cls-37" x="2836.21" y="1017.99" width="6.55" height="0.48" transform="translate(1755.87 -1998.42) rotate(51.42)"/><rect class="cls-37" x="2829.47" y="1025.02" width="14.63" height="1.07" transform="translate(1760.54 -1993.53) rotate(51.42)"/><rect class="cls-37" x="2825.76" y="1026.33" width="6.55" height="0.48" transform="translate(1758.42 -1987.1) rotate(51.42)"/><rect class="cls-37" x="2820.54" y="1030.5" width="6.55" height="0.48" transform="translate(1759.75 -1981.46) rotate(51.42)"/><rect class="cls-37" x="2815.31" y="1034.66" width="6.55" height="0.48" transform="translate(1761 -1975.79) rotate(51.42)"/><rect class="cls-37" x="2808.57" y="1041.69" width="14.63" height="1.07" transform="translate(1765.72 -1970.92) rotate(51.42)"/><rect class="cls-37" x="2804.86" y="1043" width="6.55" height="0.48" transform="translate(1763.62 -1964.5) rotate(51.42)"/><rect class="cls-37" x="2799.64" y="1047.17" width="6.55" height="0.48" transform="translate(1764.88 -1958.83) rotate(51.42)"/><rect class="cls-37" x="2794.41" y="1051.34" width="6.55" height="0.48" transform="translate(1766.17 -1953.18) rotate(51.42)"/><rect class="cls-37" x="2787.67" y="1058.37" width="14.63" height="1.07" transform="translate(1770.9 -1948.31) rotate(51.42)"/><rect class="cls-37" x="2783.96" y="1059.67" width="6.55" height="0.48" transform="translate(1768.75 -1941.87) rotate(51.42)"/><rect class="cls-37" x="2778.74" y="1063.84" width="6.55" height="0.48" transform="translate(1770.08 -1936.23) rotate(51.42)"/><rect class="cls-37" x="2773.51" y="1068.01" width="6.55" height="0.48" transform="translate(1771.34 -1930.57) rotate(51.42)"/><rect class="cls-37" x="2766.77" y="1075.04" width="14.63" height="1.07" transform="translate(1776.04 -1925.69) rotate(51.42)"/><rect class="cls-37" x="2763.06" y="1076.35" width="6.55" height="0.48" transform="translate(1773.95 -1919.27) rotate(51.42)"/><rect class="cls-37" x="2757.84" y="1080.51" width="6.55" height="0.48" transform="translate(1775.21 -1913.61) rotate(51.42)"/><rect class="cls-37" x="2752.61" y="1084.68" width="6.55" height="0.48" transform="translate(1776.5 -1907.95) rotate(51.42)"/><rect class="cls-37" x="2745.87" y="1091.71" width="14.63" height="1.07" transform="translate(1781.24 -1903.09) rotate(51.42)"/><rect class="cls-37" x="2742.16" y="1093.02" width="6.55" height="0.48" transform="translate(1779.09 -1896.65) rotate(51.42)"/><rect class="cls-37" x="2736.94" y="1097.19" width="6.55" height="0.48" transform="translate(1780.38 -1890.99) rotate(51.42)"/><rect class="cls-37" x="2731.71" y="1101.36" width="6.55" height="0.48" transform="translate(1781.67 -1885.34) rotate(51.42)"/><rect class="cls-38" x="1770.23" y="242.53" width="150.35" height="150.35"/><path class="cls-39" d="M1901.59,640.13H1756.81V495.36h144.78Zm-142.2-2.58H1899V497.94H1759.39Z" transform="translate(-108.89 -161.94)"/><path class="cls-39" d="M1972.68,578.37H1827.91V433.59h144.77Zm-142.19-2.58H1970.1V436.17H1830.49Z" transform="translate(-108.89 -161.94)"/><polygon class="cls-39" points="1650.06 335.69 1647.92 333.42 1719.02 271.66 1721.16 273.92 1650.06 335.69"/><rect class="cls-39" x="1888.76" y="464.47" width="94.18" height="2.58" transform="translate(60.09 1221.76) rotate(-40.98)"/><polygon class="cls-39" points="1792.7 478.2 1790.56 475.93 1861.66 414.17 1863.8 416.43 1792.7 478.2"/><rect class="cls-39" x="1746.56" y="606.67" width="94.18" height="2.58" transform="translate(-68.04 1163.3) rotate(-40.98)"/><path class="cls-40" d="M1737,630.71a1.27,1.27,0,0,1-1.27-1.28v-5.87a1.27,1.27,0,0,1,2.54,0v5.87A1.27,1.27,0,0,1,1737,630.71Zm0-11.75a1.27,1.27,0,0,1-1.27-1.28v-5.87a1.27,1.27,0,0,1,2.54,0v5.87A1.27,1.27,0,0,1,1737,619Zm0-11.75a1.27,1.27,0,0,1-1.27-1.28v-5.87a1.27,1.27,0,0,1,2.54,0v5.87A1.27,1.27,0,0,1,1737,607.21Zm0-11.76a1.27,1.27,0,0,1-1.27-1.27v-5.87a1.27,1.27,0,0,1,2.54,0v5.87A1.27,1.27,0,0,1,1737,595.45Zm0-11.75a1.27,1.27,0,0,1-1.27-1.27v-5.87a1.27,1.27,0,0,1,2.54,0v5.87A1.27,1.27,0,0,1,1737,583.7Zm0-11.75a1.27,1.27,0,0,1-1.27-1.27v-5.87a1.27,1.27,0,1,1,2.54,0v5.87A1.27,1.27,0,0,1,1737,572Zm0-11.75a1.27,1.27,0,0,1-1.27-1.27v-5.87a1.27,1.27,0,1,1,2.54,0v5.87A1.27,1.27,0,0,1,1737,560.2Zm0-11.75a1.27,1.27,0,0,1-1.27-1.27v-5.87a1.27,1.27,0,1,1,2.54,0v5.87A1.27,1.27,0,0,1,1737,548.45Zm0-11.75a1.27,1.27,0,0,1-1.27-1.27v-5.87a1.27,1.27,0,1,1,2.54,0v5.87A1.27,1.27,0,0,1,1737,536.7Zm0-11.75a1.27,1.27,0,0,1-1.27-1.27v-5.87a1.27,1.27,0,1,1,2.54,0v5.87A1.27,1.27,0,0,1,1737,525Zm0-11.75a1.27,1.27,0,0,1-1.27-1.27v-5.87a1.27,1.27,0,1,1,2.54,0v5.87A1.27,1.27,0,0,1,1737,513.2Z" transform="translate(-108.89 -161.94)"/><path class="cls-40" d="M1744.43,506.88h-15a1.2,1.2,0,0,1-1.19-1.2h0a1.2,1.2,0,0,1,1.19-1.19h15a1.2,1.2,0,0,1,1.2,1.19h0A1.2,1.2,0,0,1,1744.43,506.88Z" transform="translate(-108.89 -161.94)"/><path class="cls-40" d="M1765,657.9a1.27,1.27,0,0,1,1.27-1.28h5.88a1.28,1.28,0,0,1,0,2.55h-5.88A1.27,1.27,0,0,1,1765,657.9Zm11.75,0a1.27,1.27,0,0,1,1.27-1.28h5.88a1.28,1.28,0,0,1,0,2.55H1778A1.27,1.27,0,0,1,1776.7,657.9Zm11.75,0a1.27,1.27,0,0,1,1.27-1.28h5.88a1.28,1.28,0,0,1,0,2.55h-5.88A1.27,1.27,0,0,1,1788.45,657.9Zm11.75,0a1.27,1.27,0,0,1,1.27-1.28h5.88a1.28,1.28,0,0,1,0,2.55h-5.88A1.27,1.27,0,0,1,1800.2,657.9Zm11.75,0a1.27,1.27,0,0,1,1.27-1.28h5.88a1.28,1.28,0,0,1,0,2.55h-5.88A1.27,1.27,0,0,1,1812,657.9Zm11.75,0a1.27,1.27,0,0,1,1.27-1.28h5.88a1.28,1.28,0,0,1,0,2.55H1825A1.27,1.27,0,0,1,1823.7,657.9Zm11.75,0a1.27,1.27,0,0,1,1.27-1.28h5.88a1.28,1.28,0,0,1,0,2.55h-5.88A1.27,1.27,0,0,1,1835.45,657.9Zm11.75,0a1.27,1.27,0,0,1,1.27-1.28h5.88a1.28,1.28,0,0,1,0,2.55h-5.88A1.27,1.27,0,0,1,1847.2,657.9Zm11.75,0a1.27,1.27,0,0,1,1.27-1.28h5.88a1.28,1.28,0,0,1,0,2.55h-5.88A1.27,1.27,0,0,1,1859,657.9Zm11.75,0a1.27,1.27,0,0,1,1.27-1.28h5.88a1.28,1.28,0,0,1,0,2.55H1872A1.27,1.27,0,0,1,1870.7,657.9Zm11.75,0a1.27,1.27,0,0,1,1.27-1.28h5.88a1.28,1.28,0,0,1,0,2.55h-5.88A1.27,1.27,0,0,1,1882.45,657.9Z" transform="translate(-108.89 -161.94)"/><path class="cls-40" d="M1889.05,665.37v-15a1.19,1.19,0,0,1,1.19-1.19h0a1.19,1.19,0,0,1,1.19,1.19v15a1.19,1.19,0,0,1-1.19,1.19h0A1.19,1.19,0,0,1,1889.05,665.37Z" transform="translate(-108.89 -161.94)"/></g></g></svg>